<?xml version="1.0" encoding="UTF-8"?>
<!DOCTYPE svg PUBLIC "-//W3C//DTD SVG 1.1//EN" "http://www.w3.org/Graphics/SVG/1.1/DTD/svg11.dtd">
<!-- Creator: CorelDRAW -->
<svg xmlns="http://www.w3.org/2000/svg" xml:space="preserve" width="210mm" height="297mm" style="shape-rendering:geometricPrecision; text-rendering:geometricPrecision; image-rendering:optimizeQuality; fill-rule:evenodd; clip-rule:evenodd"
viewBox="0 0 210 297">
 <defs>
  <style type="text/css">
   <![CDATA[
    .fil0 {fill:black}
    .fil1 {fill:white}
   ]]>
  </style>
 </defs>
 <g id="Ebene_x0020_1">
  <metadata id="CorelCorpID_0Corel-Layer"/>
  <g id="_130254792">
   <path id="_130319544" class="fil0" d="M11.1047 228.893c-0.7716,-0.4685 -1.5155,-0.9093 -2.2595,-1.3502 -0.1103,-0.4409 -0.1929,-0.8818 -0.2756,-1.2951 1.1849,-1.6809 1.8462,-1.984 3.7475,-2.8382 0.248,-2.48 0.5236,-4.96 0.7991,-7.44 -1.2124,-3.8853 -3.9955,-9.672 -3.9955,-14.1084 0.7991,-0.1929 1.5982,-0.3858 2.4249,-0.5511 0.1653,-0.6062 0.1653,-0.6062 -0.5511,-2.7556 -1.0196,0.1103 -2.0391,0.2205 -3.0311,0.3583 -0.0551,-0.2756 -0.0827,-0.5511 -0.1102,-0.7991 -0.3307,-0.1378 -0.6614,-0.2756 -0.9645,-0.3858 0,-3.4169 0.3307,-7.4675 1.3502,-10.6915 -0.8817,-1.5156 -2.3422,-1.7911 -2.232,-3.5271 1.1298,-0.0551 2.5627,0.4133 3.0587,0.1378 0,-2.0116 -0.8267,-2.6178 -1.1022,-4.4365 3.5822,-1.3502 7.3022,1.2125 11.1875,1.0747 0.744,-1.0471 1.2675,-2.2871 2.5626,-2.5351 0.3032,-0.496 0.6063,-0.9645 0.9094,-1.4329 -2.3147,-0.9644 -2.3147,-0.9644 -3.1965,-1.7911 -0.5786,0.992 -0.992,0.8818 -2.0666,1.1022 0.0827,-0.5235 0.1653,-1.0195 0.2755,-1.5155 0.4134,-0.0276 0.8267,-0.0551 1.24,-0.0551 -1.5155,-8.4871 1.3778,-10.4987 7.8258,-15.6515 12.455,-6.2276 23.8354,-5.3733 37.2274,-3.1138 6.5857,0 20.0328,-0.6889 23.9457,-6.6684 5.8417,-2.5627 10.4159,-2.5627 16.7261,-1.6258 0,0.4409 0,0.8818 0,1.3502 -0.5235,-0.2755 -1.0471,-0.5235 -1.5706,-0.7715 -0.7165,1.5431 0.0275,1.5155 1.3502,1.9289 2.8933,-2.3423 3.3617,-3.3894 4.2986,-3.6649 0.6062,1.24 -10.6915,12.6755 -12.5928,16.3679 -0.2756,0.0276 -0.5236,0.0551 -0.7716,0.1102 -4.7671,6.3653 -7.6053,14.9902 -16.3955,13.5298 -1.8462,0.9644 -1.8462,0.9644 -1.6257,1.2951 2.5351,0 6.3102,-1.2125 7.1644,1.6257 -2.2044,0.1654 -4.4089,0.3583 -6.5858,0.5511 0,0.2205 0,0.4409 0,0.6889 3.1965,0.1378 6.3929,0.2756 9.6169,0.4409 0.1102,-0.3306 0.248,-0.6613 0.3858,-0.9644 2.976,-0.2756 7.247,-0.2756 8.6799,-3.3893 1.9289,-0.7991 5.2631,-2.48 5.8142,-4.4916 0.5787,-0.1653 1.1849,-0.3031 1.7911,-0.4409 -0.1102,0.3583 -0.1929,0.7165 -0.2755,1.0747 -0.3307,0.1102 -0.6614,0.248 -0.9645,0.3858 -0.1102,1.1022 -7.5226,6.9439 -9.727,8.4319 0.1102,1.2676 0.2204,2.5627 0.3306,3.8578 0.2205,0 0.4409,0 0.6614,0 1.1848,-4.0506 5.2631,-7.7706 8.0186,-10.8017 0.3858,0 0.7991,0 1.2124,0 0,1.7084 -2.3697,5.3733 -3.9679,6.0622 -1.6534,2.5351 -3.2791,5.0702 -4.9049,7.6053 -0.5236,3.6924 -0.5236,3.6924 -1.0196,4.7395 1.7911,-0.5787 5.8693,-5.3458 6.1449,-7.4951 1.4329,-0.8818 3.7475,-1.7635 4.3262,-3.3617 -1.0747,-1.736 -1.1573,-2.3423 -0.4684,-4.4089 3.9955,-1.0196 6.8888,-1.0196 10.6364,0.9093 0,0.6889 0,1.4053 0,2.1218 -1.0471,-0.3031 -9.4516,-3.0311 -8.68,0 0.3031,0.0827 0.6062,0.1653 0.9093,0.2755 0.0827,0.5236 0.1654,1.0471 0.2756,1.5707 5.3457,-0.8818 10.0853,-1.8187 15.3759,-2.7555 0.6062,-2.1494 1.1573,-3.7476 1.0747,-5.9796 -4.8222,-4.6568 3.6373,-15.927 9.3964,-13.1439 0.1102,0.6062 0.248,1.2124 0.3858,1.8462 1.1297,-0.6338 2.2595,-1.2676 3.4168,-1.9013 8.5973,0 9.6995,7.1368 6.3102,13.6399 -0.2755,0.0276 -0.5235,0.0551 -0.7715,0.1102 -0.1929,0.5511 -0.3858,1.1023 -0.5787,1.6809 -3.9404,1.7636 -6.2275,2.48 -10.6088,1.0196 0.1377,2.7555 0.2755,5.5111 0.4409,8.2666 1.8462,0.3858 1.8462,0.3858 3.0862,1.24 5.4559,0 9.8373,-1.9013 14.687,-4.2435 -0.1653,0.5786 -0.3031,1.1848 -0.4409,1.7911 -5.2906,2.5075 -8.9279,4.6844 -14.8248,4.6844 -1.0747,-0.496 -1.0747,-0.496 -1.9013,-0.2205 -0.1102,0.3032 -0.1929,0.6063 -0.2756,0.9094 -0.3582,-0.1102 -0.7164,-0.2205 -1.0746,-0.3031 -1.4329,-4.3262 -0.8267,-8.7351 -2.1769,-13.0338 -0.3307,-0.1377 -0.6614,-0.2755 -0.992,-0.3857 -0.744,0.5511 -1.488,1.1022 -2.232,1.6808 0,3.1965 1.2675,5.4836 1.2675,8.6249 -0.3582,0.0827 -0.7164,0.1653 -1.0471,0.2756 -0.0826,-2.5351 -1.1297,-1.984 -1.9013,-3.9129 -2.728,0.1102 -5.9244,0.3858 -8.2942,1.7911 0,0.2204 0,0.4409 0,0.6613 0.3031,0.1102 0.6338,0.248 0.9645,0.3858 0,0.248 0.0275,0.5235 0.0551,0.7991 2.3146,0.6889 4.6293,1.3778 6.9439,2.0667 0.1103,1.1297 3.8578,4.7395 4.464,5.5386 3.4169,0.7716 6.2551,0.9369 9.7822,0.9369 4.0231,-0.8818 5.704,-1.736 7.2195,-2.0116 -0.1653,0.5787 -0.3031,1.1849 -0.4409,1.7911 -4.3537,2.232 -8.4044,2.5076 -13.3092,2.8107 -0.4685,0.7716 -0.9369,1.5431 -1.4054,2.3422 -4.4364,1.5707 -7.6328,3.3067 -11.2977,6.3102 -0.4409,-0.1102 -0.8818,-0.1929 -1.2951,-0.2755 -0.1653,-0.5236 -0.3307,-1.0472 -0.496,-1.5707 -4.3813,0 -5.1529,4.9875 -8.68,6.0897 -1.7911,6.2827 -1.7911,6.2827 -1.736,7.9911 0.8543,0.5236 1.7085,1.0747 2.5903,1.6258 -0.1654,0.5511 -0.3032,1.1022 -0.4409,1.6809 -2.7556,0 -7.4676,-3.0311 -10.6364,-3.968 -2.0116,1.7911 -2.0116,1.7911 -2.9485,2.0115 -0.0551,-0.2755 -0.1102,-0.5235 -0.1377,-0.7715 -0.5236,0 -1.0471,0 -1.5431,0 0,0.3582 0,0.7164 0,1.1022 0.3031,0.1378 0.6062,0.2756 0.9368,0.4133 0.0827,0.6889 0.1654,1.4054 0.2756,2.1218 5.7591,2.3973 10.2231,3.6373 15.8444,0.2756 3.1413,-9.1484 6.8613,-15.8995 17.7732,-12.3173 10.5813,0 21.9342,2.2871 29.1813,-6.4756 3.4995,-8.5697 5.5937,-18.5723 -1.736,-25.9021 -0.6614,-1.3226 -0.744,-1.7084 -2.0116,-2.2871 -0.0551,-0.2755 -0.0827,-0.5235 -0.1102,-0.7715 -0.2205,0 -0.4409,0 -0.6613,0 0.1653,2.7004 0.3306,5.4008 0.496,8.1013 -0.496,-0.0551 -0.992,-0.1102 -1.488,-0.1654 -1.1849,-4.3813 -0.6338,-8.5146 -1.4605,-12.8683 -0.2755,-0.0552 -0.5511,-0.0827 -0.7991,-0.1103 0.5236,-5.1253 6.696,-9.0933 9.3413,-13.199 9.3689,-3.9405 16.6435,4.1608 26.4532,3.968 1.4605,-1.2125 2.3147,-1.736 2.976,-3.472 0.496,-0.1102 0.992,-0.1929 1.5156,-0.2756 -0.1378,1.5431 -0.6338,3.8853 -2.5902,4.1333 -0.0551,0.248 -0.0827,0.5236 -0.1103,0.7991 -7.6053,2.3423 -15.5688,-1.5155 -22.5403,-4.2435 -2.3422,0.3031 -3.6098,0.3582 -5.5387,1.6533 0,0.3583 0,0.744 0,1.1298 4.6569,-0.0551 6.3929,0.3858 10.6364,2.3422 0.0276,0.248 0.0552,0.5236 0.1103,0.7991 4.3537,2.0391 7.0266,4.8498 12.3448,5.704 7.6604,-1.984 13.144,-6.4204 20.8044,-3.5271 0.744,1.1298 1.9288,2.1769 1.6808,3.5822 -3.1964,-3.1964 -4.519,-3.2515 -8.983,-2.7004 -4.96,2.8106 -10.4711,4.4364 -16.1751,4.4364 -2.4524,-0.6889 -8.3768,-2.0667 -9.3964,-4.4915 -3.968,-2.8107 -10.471,-6.4205 -13.6399,-0.496 -0.6338,0.1102 -1.24,0.248 -1.8462,0.3857 -0.1103,0.3032 -0.2205,0.6338 -0.3307,0.9645 0.3031,0.2204 0.6062,0.4409 0.9369,0.6613 -1.1022,1.1849 -1.1022,1.1849 -1.9565,1.5156 0.4409,3.1964 2.8107,2.3973 5.3182,1.4053 3.8027,0.3031 5.7867,0.4684 9.0658,2.3422 0.9369,1.9013 1.8462,6.8062 2.7831,8.6524 3.8026,2.232 7.2746,3.0036 11.3528,4.4916 -0.1653,0.8817 -0.3031,1.7635 -0.4409,2.6728 -4.2159,-0.744 -8.8177,-3.2791 -12.703,-5.2079 -0.9369,-2.7831 -1.3778,-6.3654 -2.1769,-8.5422 -3.6373,-2.1494 -5.2355,-2.5902 -9.5066,-1.4054 -0.0551,0.3858 -0.0827,0.7716 -0.1102,1.1849 0.248,0.0276 0.5235,0.0551 0.7991,0.1102 0.7991,1.4605 1.6257,2.9209 2.4524,4.4089 3.8026,10.6089 2.3698,18.1039 -2.9209,27.8035 -0.2755,0.0275 -0.5235,0.0551 -0.7715,0.1102 -0.248,0.496 -0.496,0.992 -0.744,1.5155 2.8933,0 4.5742,0.5511 7.3297,1.5156 -0.1102,0.7991 -0.1929,1.5982 -0.2755,2.3973 -0.6614,0.2204 -1.3227,0.4684 -1.9565,0.7164 -0.0826,-0.2755 -0.1653,-0.5235 -0.2204,-0.7715 -0.3307,0.6062 -0.6338,1.2124 -0.9369,1.8462 -1.1022,0.0827 -2.2044,0.1653 -3.3067,0.2756 -0.0551,-0.2756 -0.0826,-0.5512 -0.1102,-0.7991 -0.4684,-0.1103 -0.9369,-0.2205 -1.4053,-0.3307 -0.1653,0.1929 -0.3307,0.4133 -0.496,0.6338 1.0195,3.8026 1.2675,6.3653 1.1022,10.3333 -4.3537,-0.5512 -7.5226,-6.7511 -7.192,-10.912 -5.1528,0.1102 -10.2781,0.2204 -15.4034,0.3307 -4.5191,2.5351 -2.8658,10.0301 -9.1485,9.231 -0.4408,-3.3617 1.6258,-6.0071 3.4996,-8.6524 -1.6809,-0.0551 -3.3618,-0.0826 -5.0151,-0.1102 0,-0.8818 0,-1.736 0,-2.5902 0.2755,-0.1929 0.5511,-0.3858 0.8267,-0.5511 -1.2676,-0.4133 -1.4054,-0.2205 -2.6729,0.3306 -0.0827,0.2756 -0.1654,0.5512 -0.2205,0.8543 -3.6924,0.5235 -3.7199,3.5546 -6.1724,4.5742 -0.9369,2.6453 -1.8738,5.2906 -2.7831,7.9359 -5.0426,1.984 -9.2862,1.6534 -14.4941,0.2205 -3.0036,1.984 -5.1254,1.7635 -8.1013,-0.1654 0,-1.8462 -0.0552,-2.7555 0.9368,-4.2986 -0.496,-0.6062 -0.496,-0.6062 -2.6177,-17.1119 -1.6809,0.1102 -3.3618,0.248 -5.0427,0.3857 -0.4409,6.1725 -0.4133,12.4551 -0.5511,18.6275 2.0667,0.5511 1.9013,0.9645 1.8462,2.976 -2.3973,1.5431 -5.1253,1.3502 -7.9359,1.3227 -0.496,-0.9369 -0.992,-1.8738 -1.4605,-2.7831 0.9645,-1.3778 1.2125,-1.9289 1.4054,-3.5822 -1.0747,-5.2356 -2.1494,-10.4711 -3.1965,-15.7066 -8.8453,-1.4054 -19.6195,-1.984 -28.4096,-0.6889 -3.0036,-0.4409 -3.0036,-0.4409 -22.5404,-0.1654 -1.5155,5.9245 -3.7751,13.0889 -1.9013,19.0684 0.7715,0.1102 1.5431,0.248 2.3146,0.3858 0,0.8542 0,1.7084 0,2.5902 -3.1137,3.0035 -5.263,2.5351 -9.5617,2.976z"/>
   <path id="_130318912" class="fil1" d="M150.673 216.796c-0.7991,-1.4879 -1.24,-2.3697 -2.6177,-3.2515 0.9093,-0.0275 1.8462,-0.0551 2.7831,-0.0551 -0.0552,1.1022 -0.1103,2.2044 -0.1654,3.3066z"/>
   <path id="_130318248" class="fil1" d="M101.927 216.355c-0.9644,-0.5511 -1.9288,-1.1023 -2.8657,-1.6258 0,-1.9289 2.5075,-4.2987 4.1884,-5.0978 0.0551,2.2596 0.4409,4.2987 -0.2756,6.448 -0.3582,0.0827 -0.7164,0.1653 -1.0471,0.2756z"/>
   <path id="_130317560" class="fil1" d="M95.6448 214.123c1.5707,-6.2827 1.5707,-6.2827 2.232,-11.6284 2.976,-0.3031 5.952,-0.6062 8.9555,-0.9094 0,0.3032 0,0.6063 0,0.9094 -2.8933,1.1297 -4.9875,4.6568 -5.8142,7.6053 -2.4249,1.2675 -2.5626,3.0862 -5.3733,4.0231z"/>
   <path id="_130316896" class="fil1" d="M105.951 208.309c0.744,-2.1218 2.5076,-3.6925 2.3974,-5.8969 1.1297,-0.1378 2.2595,-0.2755 3.4168,-0.3858 0,0.3031 0,0.6063 0,0.9094 -2.3422,1.3226 -4.1057,3.3893 -5.8142,5.3733z"/>
   <path id="_130316264" class="fil1" d="M76.4111 206.959c-0.1653,-0.9094 -0.3031,-1.7911 -0.4409,-2.6729 0.4409,0 0.8818,0 1.3502,0 -0.3031,0.8818 -0.6062,1.7635 -0.9093,2.6729z"/>
   <path id="_130315632" class="fil0" d="M137.694 203.818c-2.232,-1.24 -4.4364,-2.48 -6.6409,-3.6924 3.224,-0.0827 4.6569,0.9093 7.5502,2.3698 -0.2755,1.0471 -0.2755,1.0471 -0.9093,1.3226z"/>
   <path id="_130315000" class="fil0" d="M169.025 203.377c-0.0551,-3.0586 -1.1573,-8.5697 -0.1102,-11.7386 0.5236,0 1.0471,0 1.5707,0 0.8266,2.3974 1.7084,10.6915 -1.4605,11.7386z"/>
   <path id="_130314336" class="fil0" d="M175.749 203.377c0.6613,-1.8462 1.5431,-6.7786 3.3893,-12.2621 0.4133,0 0.8267,0 1.24,0 0.1653,0.3306 0.3582,0.6613 0.5511,1.0195 -1.488,4.1885 -2.6453,7.6053 -5.1804,11.2426z"/>
   <path id="_130313704" class="fil1" d="M81.3435 202.495c0,-0.3031 0,-0.6062 0,-0.9094 1.4054,0 2.8107,0 4.2436,0 -1.2951,0.9369 -2.6178,0.7992 -4.2436,0.9094z"/>
   <path id="_130312744" class="fil1" d="M117.138 200.235c-2.8382,-6.5306 -1.7635,-6.3377 -8.239,-6.5306 -1.4605,-3.1689 -5.2907,0.6062 -3.1414,-5.704 3.224,-2.5075 5.0427,-2.7831 9.1209,-2.5075 0,0.2755 0,0.5786 0,0.8817 -3.0862,1.3778 -6.1449,2.6454 -5.2906,6.4756 2.1768,0 2.8657,-2.3147 4.6844,-3.4996 7.3848,0 7.9359,0.3582 10.967,7.5502 0.4134,0.0551 0.8543,0.1378 1.2952,0.2205 -0.1103,0.3306 -0.2205,0.6888 -0.3032,1.0471 -3.1413,1.2124 -5.759,1.6809 -9.0933,2.0666z"/>
   <path id="_130312080" class="fil1" d="M40.1757 199.794c-0.1102,-0.1928 -0.2205,-0.3857 -0.3307,-0.5511 0.992,0.0276 1.984,0.0551 3.0036,0.1103 0,0.1377 0,0.2755 0,0.4408 -0.9094,0 -1.7911,0 -2.6729,0z"/>
   <path id="_130311448" class="fil1" d="M73.2698 199.794c-0.1102,-0.1928 -0.2205,-0.3857 -0.3307,-0.5511 1.8462,-0.0551 1.8462,-0.0551 2.0667,0.2205 -0.5787,0.1102 -1.1574,0.2204 -1.736,0.3306z"/>
   <path id="_130310784" class="fil1" d="M110.415 198.444c-2.1218,-0.5235 -2.6453,-0.5511 -3.9129,-2.3422 2.48,0.1929 3.968,0.3307 6.1449,1.4605 0,0.2755 0,0.5786 0,0.8817 -0.744,0 -1.488,0 -2.232,0z"/>
   <path id="_130310152" class="fil1" d="M45.549 197.563c-1.7911,-0.4409 -1.7911,-0.4409 -1.7911,-0.8818 1.488,0 2.976,0 4.464,0 0,0.4409 0,0.4409 -2.6729,0.8818z"/>
   <path id="_130305384" class="fil1" d="M53.5952 197.563c0,-0.2756 0,-0.5787 0,-0.8818 0.3031,0 0.6062,0 0.9093,0 0,0.2755 0,0.5786 0,0.8818 -0.3031,0 -0.6062,0 -0.9093,0z"/>
   <path id="_130304752" class="fil1" d="M16.9189 195.331c0.1378,-0.5236 0.2756,-1.0471 0.4409,-1.5707 0.2755,0.5236 0.5787,1.0471 0.8818,1.5707 -0.4409,0 -0.8818,0 -1.3227,0z"/>
   <path id="_130304088" class="fil1" d="M25.8469 195.331c0,-0.3032 0,-0.6063 0,-0.9094 0.3031,0 0.6062,0 0.9093,0 0,0.3031 0,0.6062 0,0.9094 -0.3031,0 -0.6062,0 -0.9093,0z"/>
   <path id="_130303456" class="fil1" d="M12.8958 194.89c0,-0.7716 0,-1.5156 0,-2.2596 0.4409,0 0.4409,0 0.8818,2.2596 -0.3031,0 -0.6062,0 -0.8818,0z"/>
   <path id="_130302824" class="fil1" d="M96.0857 193.539c0.992,-1.984 2.1218,-5.4009 4.5466,-6.0898 0.6614,1.9013 1.3227,3.8027 2.0116,5.704 -2.2045,0.1102 -4.3813,0.248 -6.5582,0.3858z"/>
   <path id="_130302056" class="fil1" d="M80.8751 192.63c-0.1102,-0.1929 -0.2205,-0.3858 -0.3307,-0.5511 0.3582,0 0.7165,0.0276 1.0747,0.0551 -0.248,0.1654 -0.496,0.3307 -0.744,0.496z"/>
   <path id="_130301392" class="fil1" d="M24.0558 191.748c-0.3858,-0.6338 -0.7716,-1.24 -1.1574,-1.8463 0.8267,-0.1377 1.6534,-0.2755 2.5076,-0.3857 0.0826,0.6062 0.1653,1.2124 0.2755,1.8462 -0.5511,0.1102 -1.1022,0.248 -1.6257,0.3858z"/>
   <path id="_130300728" class="fil1" d="M28.1064 191.748c-0.248,-0.6338 -0.496,-1.24 -0.744,-1.8463 1.6809,0 3.3618,0 5.0427,0 -0.1103,0.6063 -0.1929,1.2125 -0.2756,1.8463 -1.3502,0 -2.7004,0 -4.0231,0z"/>
   <path id="_130300064" class="fil1" d="M34.8024 191.748c-0.4409,-0.6338 -0.8818,-1.2676 -1.2951,-1.9014 1.0746,-0.0275 2.1493,-0.0551 3.2515,-0.0551 0.248,0.6338 0.496,1.2951 0.744,1.9565 -0.9093,0 -1.8186,0 -2.7004,0z"/>
   <path id="_130299400" class="fil1" d="M40.6166 191.748c-0.6614,-0.8543 -0.6614,-0.8543 -0.8818,-2.232 1.9289,0.1377 3.8578,0.2755 5.8142,0.4408 -0.1102,0.496 -0.1929,0.992 -0.2755,1.5156 -1.5707,0.0827 -3.1138,0.1653 -4.6569,0.2756z"/>
   <path id="_130298736" class="fil1" d="M20.0327 191.307c-0.1103,-0.3583 -0.2205,-0.6889 -0.3307,-1.0196 0.248,-0.1102 0.5236,-0.2204 0.7991,-0.3307 0,0.4409 0,0.8818 0,1.3503 -0.1653,0 -0.3307,0 -0.4684,0z"/>
   <path id="_130298072" class="fil1" d="M48.6628 191.307c-0.1654,-0.4685 -0.3031,-0.9094 -0.4409,-1.3503 1.1849,0.1378 2.3698,0.2756 3.5822,0.4409 0,0.3031 0,0.6063 0,0.9094 -1.0471,0 -2.0942,0 -3.1413,0z"/>
   <path id="_130297408" class="fil1" d="M16.0096 190.839c-0.1654,-0.4409 -0.3031,-0.8818 -0.4409,-1.3226 0.4409,0 0.8818,0 1.3502,0 0,0.4408 0,0.8817 0,1.3226 -0.3031,0 -0.6062,0 -0.9093,0z"/>
   <path id="_130296776" class="fil1" d="M57.6183 190.839c0.1102,-0.1929 0.2204,-0.3858 0.3307,-0.5511 1.6257,-0.0551 1.6257,-0.0551 1.8462,0.2205 -0.744,0.1102 -1.4605,0.2204 -2.1769,0.3306z"/>
   <path id="_130296112" class="fil1" d="M62.5507 190.839c-0.1102,-0.1929 -0.2204,-0.3858 -0.3307,-0.5511 0.992,-0.1102 1.984,-0.2204 3.0036,-0.3307 0,0.2756 0,0.5787 0,0.8818 -0.9093,0 -1.7911,0 -2.6729,0z"/>
   <path id="_130295344" class="fil1" d="M80.4342 189.516c0,-0.3031 0,-0.6063 0,-0.9094 0.5787,0.0551 1.1849,0.1378 1.7911,0.2205 -0.4409,0.4684 -0.4409,0.4684 -1.7911,0.6889z"/>
   <path id="_130294656" class="fil1" d="M82.2253 187.284c-0.4684,-0.1654 -0.9093,-0.3307 -1.3502,-0.4685 -0.1102,-0.496 -0.2205,-0.992 -0.3307,-1.4604 1.7636,-1.0471 3.224,-1.2951 5.2631,-1.6533 0.1378,1.1848 0.2756,2.3697 0.4409,3.5822 -1.3502,0 -2.7004,0 -4.0231,0z"/>
   <path id="_130294024" class="fil1" d="M101.459 186.375c0.6062,-0.8542 1.2124,-1.6808 1.8462,-2.5075 0.1378,0.3858 0.2756,0.7715 0.4133,1.1573 -0.7715,0.4409 -1.5155,0.8818 -2.2595,1.3502z"/>
   <path id="_130293392" class="fil1" d="M13.7776 185.493c-0.1654,-1.0471 -0.3031,-2.0942 -0.4409,-3.1414 1.0195,0.1378 2.0667,0.2756 3.1138,0.4409 -0.3858,1.5156 -1.3227,2.1769 -2.6729,2.7005z"/>
   <path id="_130292704" class="fil1" d="M24.5242 181.443c-2.9209,-0.8818 -2.9209,-0.8818 -2.9209,-1.3226 2.9209,-2.5351 2.9209,-2.5351 3.8578,-2.9209 8.928,0.5786 17.8835,1.1849 26.839,1.7911 7.1093,0 13.943,-0.1929 20.9697,0.9093 -15.1555,0.8818 -15.1555,0.8818 -48.7456,1.5431z"/>
   <path id="_130292072" class="fil1" d="M75.0609 177.419c-1.0471,-0.2204 -2.0942,-0.4409 -3.1138,-0.6613 1.3227,-0.4409 1.3227,-0.4409 4.2436,-0.2205 -0.3858,0.2756 -0.7716,0.5787 -1.1298,0.8818z"/>
   <path id="_130290976" class="fil1" d="M65.6645 176.979c1.488,-0.5511 1.9564,-0.6062 3.5271,-0.3306 -1.1849,0.1102 -2.3698,0.2204 -3.5271,0.3306z"/>
   <path id="_130290592" class="fil1" d="M44.6397 175.628c-2.976,-0.2204 -5.952,-0.4409 -8.928,-0.6613 2.976,-0.2205 5.952,-0.4409 8.928,-0.6613 0,-0.1654 0,-0.3307 0,-0.4685 -0.6062,0 -1.2125,0 -1.7911,0 0,-0.1653 0,-0.3031 0,-0.4409 0.9644,0.1378 1.9289,0.2756 2.9208,0.4409 -0.1653,0.3031 -0.3031,0.6062 -0.4408,0.9093 0.1377,0.1378 0.2755,0.2756 0.4408,0.4409 -0.3857,0.1378 -0.7715,0.2756 -1.1297,0.4409z"/>
   <path id="_130289880" class="fil1" d="M135.022 175.628c-1.5706,-0.8266 -1.5706,-0.8266 -2.5075,-1.8462 4.6844,-2.2871 4.9049,-2.8382 4.9049,-7.9911 -0.9094,-0.5786 -1.7912,-1.1573 -2.6729,-1.736 2.5075,-1.6257 3.0311,-1.5706 6.0897,-1.3777 3.0587,5.0702 3.2791,7.3297 -1.1849,11.7937 -1.5431,0.3858 -3.0862,0.7715 -4.6293,1.1573z"/>
   <path id="_130289216" class="fil1" d="M74.62 174.747c0.1378,-0.4684 0.2756,-0.9093 0.4409,-1.3502 0.5786,0 1.1849,0 1.7911,0 -0.1102,0.3582 -0.1929,0.7165 -0.2756,1.0747 -0.6613,0.0827 -1.3226,0.1653 -1.9564,0.2755z"/>
   <path id="_130288200" class="fil1" d="M22.2922 174.306c-7.1368,-7.8809 3.72,-13.0338 9.6444,-16.7262 1.488,0 1.9565,0.496 3.1413,1.4329 -0.248,0.6062 -0.496,1.24 -0.7164,1.8738 -3.8578,-1.1298 -8.0186,0.0826 -9.8373,4.0231 -0.2756,0.0275 -0.5511,0.0551 -0.7991,0.1102 -0.3307,0.744 -0.6338,1.5155 -0.9369,2.2871 0.3858,0.0551 0.7716,0.1102 1.1573,0.1653 0.4409,-1.2124 1.0471,-1.3502 2.1218,-2.0115 0.4684,0.3857 0.9369,0.7715 1.4053,1.1573 -0.1102,0.3031 -0.1929,0.6338 -0.2755,0.9644 -7.6604,1.736 -3.1965,1.9014 -4.0231,6.7236 -0.3031,0 -0.6062,0 -0.8818,0z"/>
   <path id="_130287568" class="fil1" d="M24.5242 173.837c0,-0.3031 0,-0.6062 0,-0.8818 0.5787,0.0552 1.1849,0.1378 1.7911,0.2205 -0.4684,0.4409 -0.4684,0.4409 -1.7911,0.6613z"/>
   <path id="_130286904" class="fil1" d="M27.638 173.837c-0.0551,-0.3582 -0.1103,-0.7164 -0.1654,-1.0471 0.744,0.0276 1.488,0.0551 2.232,0.1102 -0.1102,0.3031 -0.1929,0.6062 -0.2755,0.9369 -0.6062,0 -1.2125,0 -1.7911,0z"/>
   <path id="_130286272" class="fil1" d="M32.5704 173.837c0.1102,-0.3307 0.2204,-0.6613 0.3307,-0.992 5.5386,-0.1102 5.5386,-0.1102 6.3928,0.3307 -1.2951,0.4409 -1.2951,0.4409 -6.7235,0.6613z"/>
   <path id="_130285608" class="fil1" d="M70.156 173.837c0,-0.3031 0,-0.6062 0,-0.8818 0.5787,-0.1653 1.1849,-0.3031 1.7911,-0.4408 -0.1102,0.3306 -0.1929,0.6888 -0.2755,1.0471 -0.5236,0.0826 -1.0196,0.1653 -1.5156,0.2755z"/>
   <path id="_130284944" class="fil1" d="M60.3187 173.396c-0.0826,-0.3582 -0.1378,-0.7164 -0.1929,-1.0471 0.496,-0.1102 0.992,-0.1929 1.5156,-0.2755 -0.1102,0.3306 -0.1929,0.6889 -0.2756,1.0471 -0.3582,0.0826 -0.7164,0.1653 -1.0471,0.2755z"/>
   <path id="_130284280" class="fil1" d="M64.7827 173.396c0,-0.2755 0,-0.5786 0,-0.8817 0.5787,0 1.1849,0 1.7911,0 0,0.2755 0,0.5786 0,0.8817 -0.5787,0 -1.1849,0 -1.7911,0z"/>
   <path id="_130283616" class="fil1" d="M54.9454 172.955c0.1102,-0.3582 0.2205,-0.6888 0.3307,-1.0195 0.3306,-0.1102 0.6613,-0.2205 0.992,-0.3307 0,0.4409 0,0.8818 0,1.3502 -0.4409,0 -0.8818,0 -1.3227,0z"/>
   <path id="_130282872" class="fil1" d="M125.184 172.955c-0.1653,-0.4684 -0.3031,-0.9093 -0.4409,-1.3502 2.2596,-0.3031 2.728,-1.4053 4.1885,-3.1137 -0.1102,-1.0196 -0.1929,-2.0391 -0.2756,-3.0311 -0.8266,-0.3307 -1.6258,-0.6614 -2.4249,-0.9645 2.2596,-1.5982 2.9209,-1.984 5.6489,-2.2871 -1.1849,3.4169 -2.4249,6.448 -2.9484,10.0302 -1.2676,0.2204 -2.5076,0.4684 -3.7476,0.7164z"/>
   <path id="_130282208" class="fil1" d="M76.4111 172.074c0.1102,-0.3583 0.2204,-0.6889 0.3307,-1.0196 0.9369,-0.4133 1.8737,-0.8266 2.8106,-1.24 -0.248,0.6338 -0.496,1.2951 -0.744,1.9565 -0.7991,0.0826 -1.5982,0.1928 -2.3973,0.3031z"/>
   <path id="_130281432" class="fil1" d="M72.388 171.605c-0.0551,-0.3582 -0.1102,-0.7164 -0.1653,-1.0471 0.5786,0.0276 1.1849,0.0551 1.7911,0.1102 -0.5511,0.3031 -1.1022,0.6063 -1.6258,0.9369z"/>
   <path id="_130280744" class="fil1" d="M81.7844 171.605c0.8818,-1.488 1.7636,-2.976 2.6729,-4.464 0.248,-0.0551 0.5235,-0.0826 0.7991,-0.1102 1.6533,-3.6649 6.5582,-5.208 7.7155,-8.4044 0.2205,0.1102 0.4685,0.248 0.7165,0.3858 -2.8107,4.0231 -7.936,10.7191 -11.904,12.5928z"/>
   <path id="_130280080" class="fil1" d="M41.0575 169.814c0,-0.3031 0,-0.6062 0,-0.8818 0.3306,-0.1102 0.6613,-0.2204 1.0195,-0.3306 0.1102,0.3858 0.2205,0.7991 0.3307,1.2124 -0.4685,0 -0.9093,0 -1.3502,0z"/>
   <path id="_130279416" class="fil1" d="M48.6628 169.814c0,-0.4409 0,-0.8818 0,-1.3226 0.4409,0 0.8817,0 1.3502,0 0,0.2755 0,0.5786 0,0.8817 -0.4685,0.1378 -0.9093,0.2756 -1.3502,0.4409z"/>
   <path id="_130278752" class="fil1" d="M53.1543 169.373c0.1102,-0.3582 0.2205,-0.6889 0.3307,-1.0195 0.3306,-0.1102 0.6613,-0.2205 1.0195,-0.3307 -0.1102,0.3582 -0.2204,0.7165 -0.3031,1.0747 -0.3582,0.0826 -0.7164,0.1653 -1.0471,0.2755z"/>
   <path id="_130278120" class="fil1" d="M57.6183 168.932c0.8818,-0.7715 1.0747,-1.1297 2.232,-1.1297 -0.6614,0.496 -0.6614,0.496 -0.496,0.7991 -0.5787,0.1102 -1.1573,0.2204 -1.736,0.3306z"/>
   <path id="_130277488" class="fil1" d="M62.9916 168.492c0.3307,-0.5787 0.3307,-0.5787 1.3502,-0.9094 0,0.3031 0,0.6062 0,0.9094 -0.4684,0 -0.9093,0 -1.3502,0z"/>
   <path id="_130276824" class="fil1" d="M81.7844 168.492c-0.3858,-0.6338 -0.3858,-0.6338 -1.3502,-0.9094 1.5431,-4.4088 2.1493,-4.9324 6.7235,-5.8142 0,0.3031 0,0.6062 0,0.9094 -1.8462,0.1928 -4.1884,4.3537 -5.3733,5.8142z"/>
   <path id="_130276192" class="fil1" d="M30.7793 167.582c0,-0.3031 0,-0.6062 0,-0.8817 1.1849,-0.0827 2.3698,-0.1654 3.5822,-0.248 -0.4409,0.4684 -0.4409,0.4684 -3.5822,1.1297z"/>
   <path id="_130275560" class="fil1" d="M37.5028 166.7c0.3307,-0.5787 0.3307,-0.5787 2.6729,-1.3503 -0.1102,0.3307 -0.1929,0.6889 -0.2756,1.0471 -0.7991,0.0827 -1.5982,0.1929 -2.3973,0.3032z"/>
   <path id="_130274760" class="fil1" d="M75.5293 166.7c0,-0.4685 0,-0.9094 0,-1.3503 0.2756,0 0.5787,0 0.8818,0 0.5787,-1.7635 2.2871,-2.3973 4.0231,-2.6728 -0.9644,2.8382 -1.984,3.6373 -4.9049,4.0231z"/>
   <path id="_130274096" class="fil1" d="M43.317 166.232c0,-0.3031 0,-0.6062 0,-0.8818 0.744,-0.1653 1.488,-0.3031 2.232,-0.4408 -0.1102,0.3306 -0.1929,0.6888 -0.2755,1.0471 -0.6614,0.0826 -1.3227,0.1653 -1.9565,0.2755z"/>
   <path id="_130273488" class="fil1" d="M60.3187 166.232c0.8267,-0.6613 0.8267,-0.6613 1.7911,-0.6613 -0.6062,0.2204 -1.2124,0.4409 -1.7911,0.6613z"/>
   <path id="_130272856" class="fil1" d="M65.2236 166.232c0.7715,-1.1573 0.9093,-1.0471 2.232,-1.3226 -0.1102,0.3306 -0.1929,0.6888 -0.2756,1.0471 -0.6613,0.0826 -1.3226,0.1653 -1.9564,0.2755z"/>
   <path id="_130272192" class="fil1" d="M71.5062 166.232c0.2205,-0.496 0.4685,-0.992 0.7165,-1.488 0.4409,0.0276 0.8817,0.0551 1.3226,0.1102 -0.1929,0.3583 -0.3857,0.7165 -0.5511,1.1023 -0.496,0.0826 -0.992,0.1653 -1.488,0.2755z"/>
   <path id="_130271560" class="fil1" d="M34.3615 163.559c0.7164,-1.6533 1.2124,-1.7635 2.7831,-2.6177 0.1102,1.1297 -0.3031,1.4604 -0.9369,2.3973 -0.6338,0.0551 -1.24,0.1378 -1.8462,0.2204z"/>
   <path id="_130270712" class="fil0" d="M149.35 162.209c-0.3032,-0.1653 -0.6063,-0.3031 -0.9094,-0.4409 0.3307,-5.8417 5.2356,-10.3333 10.2231,-12.7581 4.7946,-0.7716 8.8453,-0.3032 13.5022,0.6888 0.0275,0.248 0.0551,0.496 0.1102,0.7716 1.5431,-0.2204 2.48,0.3858 3.9129,1.0195 -0.1378,0.2205 -0.2756,0.4685 -0.4134,0.7165 -7.1644,-1.488 -12.5101,-1.4604 -19.5092,0.2204 -0.0827,0.2756 -0.1654,0.5511 -0.2205,0.8543 -3.224,0.9644 -4.4364,4.8497 -4.7946,7.9359 0.1929,0.1654 0.3858,0.3307 0.6062,0.496 -0.8542,0.1654 -1.6809,0.3307 -2.5075,0.496z"/>
   <path id="_130269808" class="fil1" d="M40.1757 159.977c0.1653,-1.24 0.1929,-1.3777 -0.496,-2.4524 -1.984,0 -2.3147,0.7164 -3.968,1.1022 0.0827,-0.496 0.1653,-0.992 0.2756,-1.488 6.9715,-1.736 18.6274,-2.8933 25.0479,0.5511 -1.2676,1.4329 -1.5707,1.5431 -3.4169,1.8462 -0.0551,-0.2755 -0.0827,-0.5511 -0.1102,-0.7991 -0.5787,-0.0551 -1.1298,-0.0826 -1.6809,-0.1102 -0.3031,-0.496 -0.6062,-0.992 -0.8818,-1.488 -0.9093,0 -2.1769,0.8267 -3.3066,0.7716 -0.1378,-0.3307 -0.2756,-0.6338 -0.3858,-0.9369 -2.1218,0.1653 -3.5547,0.3306 -4.1333,2.5626 -0.4134,-0.8542 -0.8267,-1.7084 -1.24,-2.5626 -2.5076,0.1102 -3.4996,2.0115 -5.704,3.0035z"/>
   <path id="_130269176" class="fil1" d="M62.9916 159.536c0,-0.6062 0,-1.2124 0,-1.7911 0.5787,0 1.1849,0 1.7911,0 -0.5511,1.0747 -0.6613,1.4329 -1.7911,1.7911z"/>
   <path id="_130268408" class="fil0" d="M134.581 159.536c-3.5822,-6.7786 -1.2951,-6.4204 -9.1208,-7.8257 -6.944,0.4409 -6.944,0.4409 -12.9786,0.3858 -0.5511,-7.7707 -1.0471,-8.4596 -0.8818,-8.8453 0.5511,0 1.1022,0 1.6533,0 1.1022,2.3422 1.1298,4.1608 1.2951,6.7786 6.4205,0.6062 15.2933,-2.4524 20.0328,2.5076 0.6614,1.5706 0.6614,1.5706 1.3503,6.999 -0.4685,0 -0.9094,0 -1.3503,0z"/>
   <path id="_130267640" class="fil1" d="M69.2467 158.627c0,-0.3031 0,-0.6062 0,-0.8818 0.248,0.1103 0.496,0.248 0.744,0.3858 -0.248,0.1653 -0.496,0.3307 -0.744,0.496z"/>
   <path id="_130266816" class="fil0" d="M141.277 157.745c-1.0746,-2.6453 -2.1493,-5.2906 -3.224,-7.9359 -0.2755,-0.0551 -0.5511,-0.0827 -0.7991,-0.1103 -0.8818,-1.5982 -1.5155,-1.8186 -3.1137,-2.7004 -0.1929,-1.9013 -2.8658,-2.8933 -4.4916,-3.1138 0.496,-4.7946 3.5822,-5.4008 7.6604,-7.4399 0.3858,0.3031 0.7716,0.6062 1.1849,0.9369 -1.8462,1.1573 -4.7395,2.6453 -5.4835,4.8773 2.0115,2.232 4.6293,4.7946 7.1644,6.4755 1.7911,4.0231 1.7911,4.0231 3.3618,9.0106 -0.7716,0 -1.5156,0 -2.2596,0z"/>
   <path id="_130266184" class="fil1" d="M96.0857 155.954c0.496,-1.6809 2.2871,-2.0115 2.7004,-3.5822 0.2756,0 0.5787,0 0.8818,0 -0.5236,1.5982 -2.1218,2.8933 -3.5822,3.5822z"/>
   <path id="_130265520" class="fil1" d="M90.2715 155.072c0,-0.3032 0,-0.6063 0,-0.9094 1.5155,-0.4409 2.0666,-0.5511 2.9209,-1.7911 0,1.4054 0,1.4054 -0.496,2.3973 -0.8267,0.0827 -1.6258,0.1929 -2.4249,0.3032z"/>
   <path id="_130264824" class="fil1" d="M94.763 155.072c-0.2204,-0.9645 -0.2204,-0.9645 0.4409,-2.7005 1.7636,-0.7991 1.736,-2.5351 3.472,-3.2515 0.0276,-0.2756 0.0551,-0.5236 0.1102,-0.7716 0.8267,0.1103 1.6533,0.248 2.5076,0.3858 -1.0471,2.2596 -4.5191,4.8773 -6.5307,6.3378z"/>
   <path id="_130264192" class="fil1" d="M90.7399 151.49c1.0471,-1.3502 1.0471,-1.3502 2.6178,-2.5351 0.1102,0.2205 0.2204,0.4409 0.3307,0.6614 -2.0116,1.6258 -2.0116,1.6258 -2.9485,1.8737z"/>
   <path id="_130263808" class="fil0" d="M38.8255 142.534c-6.6409,-2.1217 -10.9395,-5.9519 -16.7262,-8.7902 -1.1298,-1.4053 -2.0391,-3.8302 -3.5822,-4.4639 -0.3031,-1.0747 -1.6258,-6.4756 -0.6062,-7.2747 0.4409,9.0658 17.4426,21.4933 25.5714,16.9466 3.3618,-6.9164 -1.9288,-15.5412 -3.5822,-22.8159 -2.0942,-1.984 -5.8693,-1.9013 -8.4044,-3.8577 -0.496,-1.24 -0.9644,-2.48 -1.4329,-3.6925 1.1849,-1.984 1.8463,-3.3617 3.7476,-4.6293 0.0275,-0.2755 0.0551,-0.5511 0.1102,-0.7991 0.992,-0.3307 1.984,-0.6613 3.0036,-0.992 -1.5432,-7.8809 -6.2827,-33.9483 9.231,-26.0123 3.6373,5.0151 3.6373,5.0151 4.5191,6.8062 0,6.1999 -3.224,10.8017 -3.6649,16.5057 1.488,1.0195 1.488,1.0195 3.0036,1.4604 3.8577,7.7155 -1.1573,10.912 -7.6053,14.6044 -0.9093,7.7706 12.0693,26.0674 -3.5822,27.0043z"/>
   <path id="_130262744" class="fil0" d="M65.2236 142.093c-0.1653,-2.6453 0.7164,-2.3422 1.3502,-4.4915 0.7991,-0.0827 3.7475,-2.6729 4.4089,-3.3618 1.0195,-0.2755 2.0391,-0.5235 3.0862,-0.7715 0.3307,-1.2951 0.3307,-1.2951 0.2755,-8.3769 -2.5075,-1.7635 -4.2986,-5.1528 -0.6888,-6.5582 1.6257,0.744 1.7635,2.0943 2.4248,3.7476 3.8854,-0.4409 11.1875,-4.3813 13.5298,-3.5271 -0.1654,1.1022 -0.3307,2.232 -0.496,3.3617 -1.2676,0.496 -2.5903,1.7636 -2.5903,3.1965 1.8738,-0.8818 2.5627,-0.8267 4.6569,-0.6614 -0.3306,3.8027 -2.8657,4.3538 -3.8577,7.7707 -3.6925,0.9369 -3.6925,0.9369 -5.704,0.8818 -0.0276,-0.992 -0.0551,-1.9565 -0.0551,-2.9209 1.1849,-1.7085 4.6844,-6.5582 3.8577,-8.2115 -7.1644,2.7004 -7.1644,2.7004 -8.9004,3.0311 0.0276,3.1137 0.0551,6.2275 0.1102,9.3413 -1.2675,3.7199 -3.1413,4.5466 -6.3653,6.3101 -0.0551,0.248 -0.0826,0.496 -0.1102,0.7716 -1.6533,0.1378 -3.3066,0.3031 -4.9324,0.4684z"/>
   <path id="_130261408" class="fil0" d="M99.6679 128.674c-0.6613,-7.6053 -0.6613,-7.6053 -0.5511,-16.671 0.6338,-0.1102 1.2675,-0.2204 1.9013,-0.3307 0.2205,3.8578 0.4409,7.7431 0.6613,11.6284 3.0863,-3.0862 4.7947,-7.5777 8.0738,-10.7466 0.8818,-3.1413 0.8818,-3.1413 0.8818,-5.3733 -2.3698,2.4249 -4.6845,2.5351 -7.8258,2.7004 -0.5235,-5.5111 4.6844,-6.7511 8.9555,-4.9324 -1.1297,-4.6018 1.1574,-10.4435 6.8062,-8.1564 0.1103,4.0782 -1.6809,5.2355 -5.0151,7.2746 -0.1377,3.9405 -0.9644,5.8693 1.6534,8.8178 1.9564,-1.0196 2.9208,-0.992 5.1528,-0.8818 -0.1377,3.7475 -1.2124,3.7475 -4.6844,4.9049 0.0276,1.4604 0.0551,2.9208 0.1102,4.3813 3.0311,-3.0311 5.1529,-5.704 9.3964,-6.944 0.6614,-4.4089 1.3227,-8.8177 2.0116,-13.199 -0.7165,-5.456 1.0471,-5.4836 6.0346,-7.6053 6.1173,0 0.7991,3.5822 0.1102,5.7039 -0.3306,0.1103 -0.6613,0.2205 -0.9919,0.3307 0,0.3031 0,0.6062 0,0.9093 -1.0472,0.4409 -2.0943,0.8818 -3.1414,1.3227 -0.6889,4.2711 -2.2871,9.9751 -0.6889,14.1084 -0.1928,0.248 -0.3857,0.496 -0.5511,0.7715 -1.24,0.0276 -2.48,0.0551 -3.6924,0.1102 -2.6729,1.7912 -2.6729,1.7912 -3.5822,2.0116 -1.8462,2.5075 -4.3538,8.0737 -7.6053,8.9555 -0.3031,-4.4915 -0.6062,-8.9555 -0.8818,-13.4195 -0.6062,0 -1.2124,0 -1.7911,0 -0.4409,1.1298 -3.1413,4.2436 -8.2666,12.9786 -0.8267,0.4409 -1.6533,0.8818 -2.48,1.3502z"/>
   <path id="_130260720" class="fil0" d="M18.2416 121.069c-0.1103,-0.248 -0.1929,-0.4684 -0.2756,-0.6888 0.5511,-0.7716 1.1022,-1.5432 1.6809,-2.2871 -0.0276,0.5235 -0.0551,1.0746 -0.0551,1.6257 -0.2756,0.0276 -0.5236,0.0551 -0.7716,0.1102 -0.1929,0.4134 -0.3858,0.8267 -0.5786,1.24z"/>
   <path id="_130259976" class="fil1" d="M41.5259 112.995c-0.8818,-3.3342 -1.1298,-5.6213 -1.0747,-9.1209 11.1324,-6.2826 12.0418,7.7156 1.0747,9.1209z"/>
   <path id="_130259312" class="fil1" d="M36.5935 112.554c-1.8187,-1.1298 -3.0862,-1.5431 -3.8578,-3.5271 1.2951,-2.5902 2.3422,-3.6098 5.208,-4.0782 0.2756,2.5351 0.5787,5.0702 0.8818,7.6053 -0.744,0 -1.488,0 -2.232,0z"/>
   <path id="_130258704" class="fil1" d="M38.8255 100.926c-2.0667,-7.6053 -4.216,-34.4994 8.7351,-19.6746 2.7279,6.944 -1.3227,17.608 -8.7351,19.6746z"/>
   <path id="_130255152" class="fil0" d="M71.9471 93.7611c-0.3031,-0.1653 -0.6062,-0.3031 -0.9093,-0.4409 -0.744,-4.3538 2.5626,-6.1173 6.4204,-5.8693 2.1218,-5.704 2.8107,-9.9475 0.0827,-15.5413 0,-1.2675 0.0275,-2.5351 0.0551,-3.8026 0.5511,0 1.1022,0 1.6809,0 0.8542,1.9013 1.7084,3.8302 2.5626,5.7591 3.3618,1.1022 6.9991,0.4684 10.2782,-0.5236 0.3858,0.3031 0.7716,0.6338 1.1849,0.9645 -0.6062,2.5626 -2.9484,8.239 -4.0231,2.5626 -2.48,0.1378 -4.9324,0.2756 -7.3849,0.4409 -0.1929,3.6649 0.248,11.8213 -4.0231,12.9786 -1.7635,2.7004 -2.6453,3.1689 -5.9244,3.472z"/>
  </g>
 </g>
</svg>
