<?xml version="1.0" encoding="UTF-8" standalone="no"?>
<!-- Created with Inkscape (http://www.inkscape.org/) -->

<svg
   xmlns:dc="http://purl.org/dc/elements/1.1/"
   xmlns:cc="http://creativecommons.org/ns#"
   xmlns:rdf="http://www.w3.org/1999/02/22-rdf-syntax-ns#"
   xmlns:svg="http://www.w3.org/2000/svg"
   xmlns="http://www.w3.org/2000/svg"
   xmlns:sodipodi="http://sodipodi.sourceforge.net/DTD/sodipodi-0.dtd"
   xmlns:inkscape="http://www.inkscape.org/namespaces/inkscape"
   width="256"
   height="256"
   id="svg2"
   version="1.1"
   inkscape:version="0.48.4 r9939"
   sodipodi:docname="bitman.svg">
  <defs
     id="defs4" />
  <sodipodi:namedview
     id="base"
     pagecolor="#ffffff"
     bordercolor="#666666"
     borderopacity="1.0"
     inkscape:pageopacity="0.0"
     inkscape:pageshadow="2"
     inkscape:zoom="1.979899"
     inkscape:cx="234.19383"
     inkscape:cy="67.363932"
     inkscape:document-units="px"
     inkscape:current-layer="layer1"
     showgrid="false"
     fit-margin-top="0"
     fit-margin-left="0"
     fit-margin-right="0"
     fit-margin-bottom="0"
     inkscape:window-width="1362"
     inkscape:window-height="714"
     inkscape:window-x="0"
     inkscape:window-y="34"
     inkscape:window-maximized="0" />
  <metadata
     id="metadata7">
    <rdf:RDF>
      <cc:Work
         rdf:about="">
        <dc:format>image/svg+xml</dc:format>
        <dc:type
           rdf:resource="http://purl.org/dc/dcmitype/StillImage" />
        <dc:title />
      </cc:Work>
    </rdf:RDF>
  </metadata>
  <g
     inkscape:label="Layer 1"
     inkscape:groupmode="layer"
     id="layer1"
     transform="translate(-326.36327,-240.51528)">
    <path
       style="fill:#000000;stroke:none"
       d="m 348.06775,314.68878 c -2.24911,0.0978 -4.43152,0.51744 -6.17329,1.51182 -6.19293,3.53551 -5.92131,9.38591 -5.92131,9.38591 2.85505,5.58744 7.07736,8.82758 12.66153,13.22846 0,0 -14.62297,15.46929 -16.75605,32.56721 -3.00801,24.11091 9.57489,33.5121 9.57489,33.5121 0,0 6.9357,-11.61353 11.33868,-13.98437 7.60409,-4.09452 12.34656,4.85043 12.34656,4.85043 0,0 4.29038,-8.85273 11.33868,-10.07882 6.4664,-1.12486 9.70087,5.92131 9.70087,5.92131 0,0 3.94349,-7.3518 8.75598,-8.25204 4.97957,-0.93151 6.38684,1.43242 9.13394,1.63781 2.74713,0.20538 6.55124,-1.51183 6.55124,-1.51183 0.92421,2.86709 12.16982,15.07928 18.39386,18.83481 l -0.56693,22.04744 c 0,0 -7.30715,0.8369 -12.34657,6.23627 -5.03941,5.39937 -1.03818,8.29792 0.75591,8.44102 6.20506,0.49495 10.65371,-3.56573 18.45686,-5.9843 2.99492,-0.92828 7.89031,-0.0335 9.19693,-1.82679 1.3066,-1.79393 -1.56329,-24.26881 4.40949,-24.25218 5.97277,0.0161 1.88705,22.57611 2.26773,24.37816 0.38068,1.80206 4.4393,0.69611 8.37803,2.77168 4.57079,2.40866 9.11388,6.08782 11.40167,6.48825 2.28779,0.40043 10.42012,1.39273 11.52766,-3.84256 1.25457,-5.93028 -14.04737,-11.65364 -14.04737,-11.65364 l 0.56694,-19.33875 c 0,0 6.96181,-3.98271 12.09459,-9.4489 6.20118,-6.60399 8.75598,-12.28357 8.75598,-12.28357 2.47129,1.39329 5.36135,3.57062 8.81898,1.51182 0,0 5.77216,-4.35466 9.51189,-1.95277 3.73973,2.40188 2.26774,6.8662 2.26774,6.8662 0,0 6.55123,-4.2295 11.59065,-0.62993 5.03941,3.5996 3.84255,10.01584 3.84255,10.01584 0,0 10.56477,-4.2835 15.24423,0.75591 4.67946,5.03941 2.39372,12.15759 2.39372,12.15759 0,0 9.67388,5.47135 19.84269,-16.12613 7.43158,-15.78391 7.30687,-22.36774 6.8662,-31.05539 -0.62992,-12.41854 -6.29926,-18.26787 -6.29926,-18.26787 7.82683,-6.16286 12.06226,-12.51976 17.51196,-20.34663 -6.78612,-4.96369 -14.46907,-9.39664 -25.95298,-5.66934 0,0 -2.44765,4.75958 -10.96073,9.70087 -8.82609,5.12298 -17.81858,8.01881 -25.82699,10.96072 -19.14264,7.03206 -36.91371,7.37014 -36.91371,7.37014 l -2.83467,-4.2205 c 0,0 0.60624,-5.98447 -1.63781,-13.60642 -2.45958,-8.354 -9.70087,-13.03948 -9.70087,-13.03948 -4.2041,5.73672 -3.87733,12.08356 -4.72445,18.26787 -4.5414,-0.97777 -8.93279,-1.25358 -12.72452,-0.8819 0.17698,0.0452 1.4146,-12.7378 0.25197,-19.33875 -7.30574,-0.16247 -14.1133,10.48182 -17.25999,19.21277 -6.68144,3.45355 -9.84164,6.48623 -13.22846,10.64576 0,0 -17.58052,-3.07376 -35.14992,-10.64576 -17.56939,-7.572 -24.8821,-19.40175 -24.8821,-19.40175 0,0 -4.60445,-1.43883 -9.57489,-1.6378 -0.74557,-0.0298 -1.51803,-0.0325 -2.26773,0 z m 12.0316,27.14984 c 0.26952,-0.0121 0.52432,0.0161 0.69292,0.0629 0,0 -4.86344,4.19203 -7.62212,6.99219 -2.75863,2.80018 -6.04729,8.18904 -6.04729,8.18904 0,0 1.29496,-7.26649 4.34649,-10.64576 2.6701,-2.95684 6.74324,-4.50836 8.63,-4.59846 z m 8.37802,4.59846 c 1.37804,-0.19694 6.17328,1.57482 6.17328,1.57482 -2.35903,1.64902 -3.80715,4.36455 -5.16539,7.18116 0,0 1.47314,-5.20281 -0.94489,-7.7481 -0.60451,-0.63631 -0.52235,-0.94226 -0.0629,-1.00788 z m 65.63837,0.8819 c 0.82539,-0.3585 4.59846,7.93708 4.59846,7.93708 0,0 -6.53378,-2.15276 -7.87408,-2.70869 0,0 2.4502,-4.86995 3.27562,-5.22839 z m 118.48921,1.57482 c 0.6822,-0.0732 1.51632,0.17517 2.20475,0.88189 1.83582,1.88452 2.87825,16.76765 -2.01577,24.25218 1.60147,-7.10382 -0.0685,-19.7189 -1.32284,-22.2994 -0.78393,-1.61282 -0.004,-2.7126 1.13386,-2.83467 z m -188.97801,0.18887 c 1.60592,-0.1663 3.16408,1.74916 1.76379,2.77168 -1.86706,1.36336 -3.16802,4.78724 -4.22051,8.25204 -1.19819,3.94449 -1.95277,12.9135 -1.95277,12.9135 0,0 -1.83703,-8.3256 -0.81891,-13.54343 1.01811,-5.21784 2.02627,-6.97537 3.71657,-9.4489 0.42259,-0.61837 0.97652,-0.88945 1.51183,-0.94489 z m 175.24561,1.19686 c 0.87694,-0.12517 2.33073,2.46688 2.33073,3.02365 0,0.63632 -1.88722,6.09878 -2.14175,7.24416 l -3.52759,-1.88978 c 0,0 2.26006,-7.04367 3.02365,-8.18905 0.0953,-0.14312 0.18968,-0.17114 0.31496,-0.18887 z m -159.68642,0.62993 c 1.13342,0.10865 1.30809,1.5135 0.8189,1.88978 0,0 -3.67403,1.91472 -4.66146,5.73233 -0.98744,3.8176 -0.0939,4.69375 -3.27562,7.7481 -3.03028,2.30302 -6.54045,-1.14461 -3.90554,-1.88978 1.59201,-0.45022 3.42986,-2.09401 4.15752,-5.73233 0.95446,-4.77241 4.7998,-7.02392 5.48036,-7.37014 0.28184,-0.14332 0.58939,-0.26582 0.8189,-0.31497 0.20077,-0.0429 0.40501,-0.0784 0.56694,-0.0629 z m 6.99218,0.18888 2.5827,3.4016 c -1.28549,3.26445 -3.94626,4.37038 -6.36226,5.85832 0,0 3.77956,-8.24182 3.77956,-9.25992 z m 79.87471,1.13387 c 0.0847,-0.0288 0.18162,-0.0208 0.25197,0 1.12542,0.33183 4.12815,2.63309 4.22051,3.14963 0.0923,0.5165 -8.44102,2.96066 -8.44102,2.96066 0,0 2.69883,-5.67827 3.96854,-6.11029 z m -110.8671,0.18887 c 0,0 -3.63822,10.2488 -5.79533,19.59072 -1.27825,5.53582 -1.07599,11.80683 -0.56693,15.37022 0.50906,3.56341 -2.08396,2.93745 -3.71657,0.31496 -1.63259,-2.62249 -1.0875,-10.15095 1.13387,-17.197 3.1097,-9.86376 8.94496,-18.0789 8.94496,-18.0789 z m 206.36399,0.62993 c 0,0 3.91563,7.19205 3.90555,14.11036 -0.0101,6.91833 -4.78232,14.85986 -5.29138,15.4962 1.72468,-10.23775 4.06674,-19.02992 1.38583,-29.60656 z m -16.56707,0.56693 c 0.59092,0.0552 1.23494,0.64122 1.7008,2.01577 1.24214,3.66543 2.11099,9.44346 0,18.8978 -2.11099,9.45437 -9.70087,18.58284 -9.70087,18.58284 0.63299,-1.41525 5.70313,-13.02195 6.99219,-19.90568 1.37153,-7.32391 0.80927,-12.88004 -0.18888,-16.18912 -0.62392,-2.06816 0.212,-3.49375 1.19686,-3.40161 z m -146.39497,1.32285 c -3.55154,10.40157 -2.70869,21.41751 -2.70869,21.41751 0,0 -3.09442,-6.04548 -2.14175,-11.77963 0.95265,-5.73415 4.85044,-9.63788 4.85044,-9.63788 z m 133.10352,0 c 0.30526,-0.004 0.50394,0 0.50394,0 0,0 -3.57843,2.43113 -4.78744,4.97642 0,0 -0.70472,-2.37624 0.50394,-3.77956 0.90649,-1.05251 2.86377,-1.18573 3.77956,-1.19686 z m -13.10248,2.20474 c -2.43373,6.36325 -3.26223,11.79399 -3.96854,17.13401 0,0 -1.4528,-4.76303 -0.56693,-9.32291 0.88585,-4.55991 4.53547,-7.8111 4.53547,-7.8111 z m -108.72535,0.69292 c 1.36681,-0.0627 2.82568,-0.001 3.21262,0.50394 2.29076,2.99072 -1.38583,6.29927 -1.38583,6.29927 0.32373,-0.14715 -1.54678,-4.89617 -4.47248,-6.55124 0,0 1.27888,-0.18928 2.64569,-0.25197 z m 94.99295,1.19686 3.27562,0.69292 c -0.08,2.15947 -0.45101,4.2006 -2.51971,5.66934 0.34873,-2.12106 0.71612,-4.24119 -0.75591,-6.36226 z m -117.85929,2.77168 c 0,0 0.95352,7.80575 -0.75591,12.15759 -1.70943,4.35183 -7.93708,7.93707 -7.93708,7.93707 3.78397,-6.58998 6.78368,-13.27792 8.69299,-20.09466 z m 134.86731,0.37796 c 0,0 3.06201,10.82353 -0.75591,18.20488 -3.81794,7.38133 -3.65358,5.85832 -3.65358,5.85832 l -2.20474,-3.27562 c 0,0 2.69461,-2.46087 4.09452,-8.31503 1.39991,-5.85417 2.51971,-12.47255 2.51971,-12.47255 z m -145.07212,2.20474 c 0,0 1.02066,4.06768 -0.25198,6.74022 -1.15916,2.43424 -6.61493,4.10768 -7.62211,4.40948 0.70989,-0.39968 2.40316,-1.57657 4.59847,-4.53547 2.92707,-3.94519 0.98484,-1.39638 3.27562,-6.61423 z m 157.41868,1.38584 c 0,0 0.70955,6.29191 -0.94489,13.29145 -1.65444,6.99955 -3.08664,10.51978 -3.08664,10.51978 0,0 -1.19587,-5.30306 -0.62992,-9.38591 0.89084,-6.42684 4.66145,-14.42532 4.66145,-14.42532 z m -100.15835,1.7008 c 0.58794,-0.0246 1.15193,-0.0141 1.70081,0 3.6592,0.0933 6.42233,1.06582 7.55912,3.21263 1.81886,3.43488 3.46459,9.00795 3.46459,9.00795 l 4.66146,-0.12598 c 0,0 2.12133,-5.74056 4.03153,-8.81898 1.9102,-3.0784 10.27382,-1.43678 18.01591,0.44095 7.74209,1.87775 6.39108,7.54281 -1.88978,18.64583 -4.16639,5.58627 -15.82219,9.58349 -23.18131,9.38591 -14.0005,-0.37592 -18.21006,-4.21275 -23.11831,-16.00014 -3.18335,-7.64497 -3.94219,-13.77034 3.08664,-15.05525 1.97687,-0.36138 3.90551,-0.61884 5.66934,-0.69292 z m -73.26047,11.02372 2.64569,3.65358 -2.77168,3.96853 c 0,0 -1.91024,-3.16785 0.12599,-7.62211 z m 190.23787,1.38584 c 0,0 2.02217,0.0242 2.77168,2.14175 0.7495,2.1176 -0.80419,5.69206 -2.26774,9.70087 -1.46355,4.00881 -5.22839,8.37803 -5.22839,8.37803 2.82765,-6.04609 4.93209,-12.48828 4.72445,-20.22065 z m -115.15061,5.03941 c 0,0 -1.39606,1.76253 -0.37795,1.88978 0.4914,0.0615 6.97991,0.0274 13.92138,0.50394 7.44037,0.51084 15.37021,1.57482 15.37021,1.57482 l -4.59847,-2.33073 -10.77174,-1.38584 -13.54343,-0.25197 z"
       id="path2998"
       inkscape:connector-curvature="0" />
  </g>
</svg>
