<?xml version="1.0" encoding="UTF-8"?>
<!DOCTYPE svg PUBLIC "-//W3C//DTD SVG 1.1//EN" "http://www.w3.org/Graphics/SVG/1.1/DTD/svg11.dtd">
<!-- Creator: CorelDRAW -->
<svg xmlns="http://www.w3.org/2000/svg" xml:space="preserve" width="210mm" height="297mm" style="shape-rendering:geometricPrecision; text-rendering:geometricPrecision; image-rendering:optimizeQuality; fill-rule:evenodd; clip-rule:evenodd"
viewBox="0 0 210 297">
 <defs>
  <style type="text/css">
   <![CDATA[
    .fil0 {fill:black}
    .fil1 {fill:white}
   ]]>
  </style>
 </defs>
 <g id="Ebene_x0020_1">
  <metadata id="CorelCorpID_0Corel-Layer"/>
  <g id="_131060480">
   <path id="_131130576" class="fil0" d="M53.8222 287.139c-0.1393,-0.2439 -0.2787,-0.4877 -0.4181,-0.6968 -0.5225,0 -9.685,0.1742 -8.3612,-1.5329 6.7935,0 13.5173,-0.6619 20.276,-1.3238 0.7664,-1.8465 1.1148,-2.1252 2.8916,-3.031 -0.871,-0.6967 -1.7071,-1.3935 -2.5432,-2.0903 -0.0349,-4.6335 -0.5923,-10.5212 1.8812,-14.5972 -0.7316,-0.1742 -0.7316,-0.1742 -0.8361,-0.662 0.2787,-0.0348 0.5574,-0.0697 0.8361,-0.0697 -0.1742,-0.4877 -0.3484,-0.9754 -0.4877,-1.4283 0.3832,0.0348 0.7664,0.0697 1.1497,0.1045 -0.1046,-2.2993 -1.4981,-3.8322 0.9754,-4.8077 0,-0.2439 0,-0.4877 0,-0.7316 -0.2787,-0.0349 -0.5574,-0.0697 -0.8361,-0.1045 0.4181,-1.08 0.8361,-2.1252 1.2542,-3.1703 -0.6968,-1.4632 -0.7316,-2.4735 0,-3.8671 -0.1742,-0.209 -0.3484,-0.3832 -0.5226,-0.5574 -2.2993,0.7664 -2.0206,1.0452 -1.7071,3.24 -3.5535,1.08 -6.4799,0.1045 -10.1379,-0.4878 -0.2091,-0.418 -0.3833,-0.8361 -0.5574,-1.2541 -1.951,-0.4878 -4.111,-1.4284 -4.5987,-3.3794 -1.8813,1.4632 -3.3793,0.0349 -4.1109,-1.4632 -1.1845,-0.3484 -2.3691,-0.6967 -3.5187,-1.0103 -1.08,-1.9161 -1.3936,-3.1703 -3.9368,-2.7174 -0.3483,-0.4529 -0.6967,-0.8709 -1.0103,-1.289 1.08,-1.6723 1.08,-1.6723 2.0903,-2.0903 -0.209,-0.5923 -0.418,-1.1497 -0.6271,-1.7071 -0.1741,0.2787 -0.3135,0.5574 -0.4529,0.871 0.4181,-1.8116 0.2439,-2.4387 -0.3483,-4.2503 -0.2787,-0.1394 -0.5575,-0.2439 -0.8362,-0.3484 1.6723,-1.0452 1.4633,-2.4038 1.8465,-4.32 -0.3136,-0.1045 -0.5923,-0.209 -0.871,-0.2787 0.871,-5.156 0.871,-5.156 1.3587,-5.5393 -0.3135,-0.1045 -0.6271,-0.209 -0.9058,-0.2787 0.209,-4.7728 0.209,-4.7728 -0.1393,-5.6786 -0.3833,0.1393 -0.7316,0.2787 -1.08,0.418 -0.4181,8.7096 -0.4181,8.7096 -0.9407,12.0541 -0.8013,-8.2218 -0.5574,-16.4785 -0.5225,-24.7352 2.0206,-25.3624 2.0206,-25.3624 1.7419,-27.0346 0.3484,0.0696 0.7316,0.1742 1.1148,0.2787 0.1742,0.4877 0.3484,0.9755 0.5226,1.498 0.0697,-0.4529 0.1742,-0.8709 0.2787,-1.289 0.2787,-0.0697 0.5574,-0.1045 0.8361,-0.1393 -0.6271,-1.7768 -0.6271,-1.7768 -0.9755,-4.5987 -0.5225,0.1393 -1.0451,0.2787 -1.5677,0.418 -0.6619,2.1949 -1.9509,3.6232 -2.16,5.7484 -0.4529,0.0348 -0.9058,0.0697 -1.3587,0.1045 -0.8013,1.5677 -1.2542,3.24 -2.8916,3.8671 -0.3832,1.0451 0.0697,1.6374 -0.0696,2.1251 -4.1806,-0.2439 -8.0477,-4.9122 -8.0477,-9.058 1.9509,-4.8425 1.9509,-4.8425 8.0128,-15.8863 0.2787,-0.0697 0.5574,-0.1045 0.8361,-0.1393 0.7317,-1.3239 0.9755,-2.369 2.4039,-2.9265 0.3484,-1.2541 -0.1394,-2.7174 -0.5226,-14.1095 -0.9406,-4.0413 -2.0206,-7.978 -3.4838,-11.8451 0,-3.449 -1.2542,-8.1521 -2.9264,-11.2179 0.1742,-0.4529 0.3483,-0.9058 0.5225,-1.3587 -1.1148,-12.6115 0.3484,-25.1533 1.4632,-37.73 -0.1741,-0.6968 -0.3483,-1.3935 -0.5225,-2.0554 0.1393,-0.0697 0.2787,-0.1394 0.4529,-0.2091 -0.1394,-2.7174 -0.2439,-5.4348 -0.3484,-8.1522 0.2787,0 0.5574,0 0.8361,0 0.1742,0.8362 0.3484,1.6723 0.5226,2.5084 1.2542,-2.4735 0.3135,-2.9613 -0.209,-5.1909 0.8361,-0.1394 0.8361,-0.1394 1.3935,-0.8013 0.2787,0.4877 0.5574,0.9755 0.8361,1.4981 1.289,-0.6968 2.1252,-1.3587 1.4981,-3.031 -0.2787,-0.0348 -0.5575,-0.0697 -0.8013,-0.1045 0.2787,-2.16 0.2787,-2.16 -0.0349,-2.6129 -0.209,0.209 -0.418,0.4181 -0.5922,0.6271 -0.6619,-2.8916 -0.6619,-2.8916 -0.4181,-3.5883 2.0555,-0.7665 2.0207,-5.2606 2.1948,-7.0722 1.951,-6.48 3.449,-11.9148 4.0761,-18.6037 1.8813,2.1251 3.1703,3.9367 4.529,6.4451 0.3484,-0.1394 0.6968,-0.2787 1.08,-0.4181 0.0697,-0.6271 0.1742,-1.2542 0.2787,-1.8464 0.2787,-0.0697 0.5574,-0.1045 0.8361,-0.1394 0.2091,-1.2542 0.4181,-2.5083 0.6271,-3.7277 0.3136,0 0.6271,0 0.9755,0 0.0697,0.3832 0.1742,0.7665 0.2787,1.1497 2.5084,-1.9858 4.8077,-3.9716 6.0967,-6.9329 0.1742,0.2439 0.3833,0.5226 0.5923,0.8013 1.08,-3.3096 7.316,-6.4799 9.5109,-9.3715 0.209,0.0348 0.418,0.1045 0.6619,0.1742 0.4877,-1.5329 1.7768,-1.3239 2.0555,-3.1355 -4.4245,-2.8915 -7.1071,-2.8219 -12.2632,-2.8219 -4.9818,1.4632 -4.9818,1.4632 -6.2012,1.4632 -0.1045,0.2439 -0.209,0.4878 -0.2787,0.7665 -0.4877,0 -0.9755,0 -1.4284,0 0.4181,-1.289 0.6968,-1.1148 0.9755,-1.951 0.9406,-0.1045 1.8813,-0.209 2.8568,-0.3135 5.4696,-3.6232 13.0295,-0.6271 17.872,2.9613 0.4181,-0.2788 0.8362,-0.5226 1.2542,-0.7665 -0.1045,-0.5574 -0.209,-1.1148 -0.2787,-1.6722 -0.3135,-0.0697 -0.6271,-0.1394 -0.9058,-0.2091 -0.1393,-1.2193 -1.1496,-1.5677 -2.16,-2.2296 -0.1045,-0.871 -0.209,-1.7419 -0.2787,-2.6129 0.3833,0.0697 0.7665,0.1742 1.1497,0.2787 1.5329,2.9613 2.6129,3.9019 5.3651,5.8877 0.0697,-0.4529 0.1742,-0.9058 0.2787,-1.3239 1.4981,0.2787 2.0555,-0.418 3.3097,-1.2541 4.8773,-0.9755 9.7547,-1.951 14.6321,-2.9265 0.1742,0.2091 0.3484,0.4181 0.5574,0.662 9.5806,-0.1394 17.2798,1.4283 26.0243,5.4696 1.289,5.5044 8.9534,4.5638 10.7302,9.058 3.8671,2.1948 7.0374,5.2954 8.2219,9.6502 2.1599,0.8361 2.6128,3.6232 4.738,4.4941 0.5226,1.8116 0.8361,2.4039 2.1251,3.6929 2.3342,6.3058 4.9819,12.7857 6.6193,19.2656 0.3484,0.1742 0.7316,0.3484 1.1148,0.5575 0.1394,4.738 -0.5922,8.9186 0.4181,13.6218 4.947,-2.4736 9.8941,-4.9471 14.8412,-7.4206 3.7625,-3.031 7.0721,-10.556 11.1831,-11.3225 0.3484,1.8813 0.6967,3.7626 1.08,5.6787 0.5922,-0.1394 1.1845,-0.2439 1.8116,-0.3484 -1.3239,8.8489 -11.009,14.5624 -13.0644,23.2372 -0.3136,0.0348 -0.5923,0.0697 -0.871,0.1045 -0.0348,0.5923 -0.0697,1.1845 -0.1045,1.8116 -0.4181,0.1742 -0.8361,0.3484 -1.2194,0.5226 -0.0348,0.418 -0.0696,0.8361 -0.1045,1.289 0.3136,0.1393 0.662,0.2787 1.0103,0.4181 0,1.9509 -0.3483,3.2399 -1.8812,4.5986 0.1045,0.5226 0.209,1.0452 0.3135,1.6026 0.3136,0.0697 0.6271,0.1742 0.9407,0.2787 -0.3136,1.7071 -0.3136,1.7071 -0.0697,2.16 0.3135,-0.0697 0.6619,-0.1394 1.0103,-0.2091 0.1045,2.8916 0.8361,3.449 2.0555,6.1316 5.9922,-2.2297 9.4063,-0.5574 14.1095,3.3445 0.6968,4.529 1.4632,8.7444 -0.1742,13.2386 -0.4529,0.0348 -0.9058,0.0696 -1.3587,0.1045 -0.4181,2.0206 -0.4181,2.0206 -1.1497,2.6129 -0.2438,-0.871 -0.4877,-1.742 -0.6967,-2.6129 -1.4284,3.7277 -1.4284,3.7277 -1.951,6.3754 -1.6025,0.1045 -1.6025,0.1045 -1.9509,-0.2439 2.16,-3.3444 2.0206,-8.7792 2.5432,-12.7508 -1.7419,-2.2645 -5.6438,-5.7483 -8.7445,-3.2748 -0.3483,-0.2439 -0.6967,-0.4878 -1.0103,-0.7316 0,8.1522 -0.3484,15.1547 -4.0412,22.3314 1.1845,0.2439 2.4038,0.4877 3.6232,0.7316 -0.2787,0.6619 -0.5226,1.3238 -0.7665,1.9858 -0.7664,-0.1742 -1.498,-0.3136 -2.2296,-0.4529 -0.0697,-0.2439 -0.1394,-0.4878 -0.2091,-0.7316 -2.4038,-0.3832 -5.3999,-1.2542 -6.2709,1.6722 -0.3135,0.0349 -0.5922,0.0697 -0.8709,0.1045 -2.8219,8.2916 -2.8219,8.2916 -3.9716,10.5561 -1.0452,0 -2.0903,0 -3.1006,0.0348 -1.8116,3.0658 3.0309,7.1419 4.7728,9.5457 1.3587,4.9471 1.3936,9.9638 1.742,15.085 -3.2052,1.3239 -3.1007,7.8387 -3.3097,10.9741 0.5574,0 1.1148,0 1.7071,0 0.2787,-1.8812 0.5574,-3.7625 0.871,-5.6438 0.3483,1.3239 0.0696,2.5084 1.0103,3.3097 -0.0349,1.1148 -0.0697,2.2296 -0.0697,3.3793 2.9612,3.6232 1.7419,6.0619 0.7664,10.5212 -3.1354,-0.0697 -3.1354,-0.0697 -13.5869,1.1496 -0.0697,-0.2787 -0.1046,-0.5574 -0.1394,-0.8361 -0.2787,-0.0348 -0.5574,-0.0697 -0.8013,-0.1045 -0.9406,-3.9367 -2.2993,-7.769 -2.16,-11.8451 1.1846,-0.9754 3.5187,-0.2438 5.0168,-0.1045 1.8812,-1.8812 1.289,-6.7586 1.289,-9.5457 0.9058,-1.8116 0.9058,-1.8116 2.4038,-8.2915 -1.0451,-2.1252 -1.0451,-2.1252 -1.3935,-4.0064 -0.7664,-0.2091 -1.5329,-0.3833 -2.2645,-0.5574 -0.1045,-3.3794 0.6968,-8.3613 -1.289,-11.1135 0.5922,-1.2542 0.5922,-1.2542 0.5922,-3.6232 0.7317,-0.0697 0.7317,-0.0697 2.3691,1.0452 0.4877,-1.8813 0.4877,-1.8813 0.5922,-5.0864 -5.3303,-1.4981 -11.1483,-1.8116 -16.5482,-3.3097 -4.0064,2.8568 -11.4967,-1.8116 -15.3638,1.1845 -0.2438,-0.2438 -0.4529,-0.4529 -0.6619,-0.6619 -0.2439,0.3832 -0.4529,0.8013 -0.6619,1.2193 -1.4284,-0.2787 -1.4284,-0.2787 -2.4039,0 -0.0696,-0.3135 -0.1045,-0.5922 -0.1393,-0.8709 -2.0206,-0.3484 -2.6129,0.0697 -4.6684,0.1742 -6.8631,-0.9407 -13.3779,-2.2994 -20.1017,-3.9368 -0.2439,0.1742 -0.4877,0.3484 -0.6968,0.5574 -4.0064,-2.2644 -10.0683,-1.5328 -13.9005,-3.9367 -5.6438,-1.2542 -11.0089,-2.9613 -16.4785,-4.8425 -0.6968,0.5574 -0.6968,0.5574 -1.3936,0.3135 -0.1393,-0.4877 -0.2438,-0.9406 -0.3484,-1.3935 -0.6271,-0.0349 -1.2193,-0.0697 -1.8116,-0.1045 -0.0696,-0.2787 -0.1045,-0.5574 -0.1393,-0.8362 -0.3136,0.0349 -0.5923,0.1046 -0.871,0.1742 -0.6967,-0.7316 -0.6967,-1.9509 -1.289,-2.1251 -0.1393,0.2787 -0.2439,0.5574 -0.3484,0.871 -0.1393,-0.3136 -0.2787,-0.5923 -0.3832,-0.871 -0.2787,-0.0348 -0.5574,-0.0697 -0.8361,-0.1045 -0.0697,-0.3136 -0.1045,-0.5923 -0.1394,-0.871 -0.2787,-0.0348 -0.5574,-0.0697 -0.8361,-0.1045 -0.0697,-0.2787 -0.1045,-0.5574 -0.1393,-0.8361 -0.2788,-0.0349 -0.5575,-0.0697 -0.8013,-0.1045 -0.0697,-0.3136 -0.1045,-0.5923 -0.1394,-0.871 -3.24,-1.2542 -5.1561,-2.4735 -6.3057,-5.818 -1.08,-0.4181 -1.1149,-0.5922 -1.6374,-1.6374 0.4877,0.0697 0.9754,0.1742 1.4632,0.2787 -0.1742,-3.7974 -0.3484,-7.5948 -0.4878,-11.3921 1.6723,-1.3936 1.9162,-8.7096 2.2645,-11.0438 0.4181,-0.0697 0.8362,-0.1045 1.2891,-0.1394 -0.0697,-0.7316 -0.1394,-1.4632 -0.2091,-2.1948 -0.2438,0.4181 -0.4877,0.8361 -0.7316,1.289 0,-0.9058 0.0349,-1.8116 0.0697,-2.6825 0.4529,-0.1045 0.9058,-0.2091 1.3587,-0.2787 -0.1394,-1.289 -0.1394,-1.289 -0.6619,-2.0903 -0.1742,0.4529 -0.3136,0.9406 -0.4529,1.4283 -0.3484,0.1394 -0.6968,0.2788 -1.0452,0.4181 -0.0348,1.2542 -0.0697,2.5084 -0.1045,3.7625 -0.3484,0.0697 -0.6968,0.1742 -1.0452,0.2788 -0.1393,-0.4181 -0.2787,-0.8362 -0.418,-1.2542 0.2787,-0.0697 0.5574,-0.1045 0.8361,-0.1394 -0.1393,-2.787 1.08,-6.1315 3.8671,-7.2464 -0.0697,-0.4877 -0.1394,-0.9406 -0.1742,-1.3935 2.8916,-1.0451 5.1212,-2.8219 7.978,-4.0761 1.8464,-0.0348 3.7277,-0.0348 5.6089,-0.0348 -2.6477,-2.3342 -2.6477,-2.3342 -5.6089,-3.8322 -4.8426,0 -6.0271,-5.2606 -11.3225,-4.529 -0.3136,0.6271 -0.6271,1.2541 -0.9406,1.8812 -0.1394,-0.9406 -0.2788,-1.8812 -0.3833,-2.787 -0.2438,0 -0.4877,0 -0.7316,0 -1.8116,4.2851 -2.2296,9.5108 -3.7625,13.8656 0.5574,1.4284 0.5574,1.4284 0.2787,2.9613 -0.3136,0.0697 -0.5923,0.1394 -0.871,0.209 0.2787,0.0697 0.5574,0.1742 0.871,0.2787 -1.1845,6.3058 -2.2645,13.378 -2.1252,19.8231 0.2091,0.1742 0.4181,0.3832 0.6271,0.5922 -0.3832,0.0349 -0.7664,0.0697 -1.1148,0.1045 -1.08,2.5432 -1.1497,4.3548 0,7.1071 -0.209,2.1251 -1.4284,5.9922 0.4877,7.6296 0,2.6825 0.3136,2.5083 0.3136,5.2606 0.7664,0.2787 1.5329,0.5574 2.2993,0.8361 -0.7316,0.0697 -1.4283,0.1394 -2.1251,0.2439 1.8813,8.187 4.0412,15.6424 5.609,24.0733 2.0903,-0.0697 2.0903,-0.0697 8.4657,-1.4632 0.4181,-2.0206 0.4181,-2.0206 0.1393,-4.7032 1.6374,0 2.8568,1.498 2.5432,3.2748 0.2788,0.0348 0.5575,0.0697 0.871,0.1394 -0.209,12.1237 -0.7664,16.1301 -0.4877,17.4192 -0.3484,0 -0.662,0 -0.9755,0 -0.0697,-0.3136 -0.1045,-0.5923 -0.1394,-0.871 -0.2787,-0.0348 -0.5574,-0.0697 -0.8361,-0.1045 -0.1045,-0.7316 -0.209,-1.4632 -0.2787,-2.16 -0.2439,0 -0.4877,0 -0.7316,0 -1.289,1.289 -2.578,2.578 -3.8671,3.8671 -0.3135,3.9367 1.0452,7.4205 2.0903,11.2179 0.2788,0.0349 0.5575,0.0697 0.871,0.1394 2.4039,8.5354 2.1252,18.6385 2.1252,27.592 -2.2297,7.4902 0.3135,17.3146 1.0451,25.1184 2.7522,2.2297 2.9264,2.8568 3.8671,6.271 3.5186,1.1496 13.3431,-2.5084 18.6037,-2.6129 -5.3652,1.7767 -11.6012,2.4735 -16.7225,4.8773 0.871,1.6026 13.6218,-1.8464 14.8063,-3.0309 0.1394,0.9755 0.1394,0.9755 -0.418,1.4981 4.2851,-0.1742 8.5702,-0.3484 12.8902,-0.4878 6.0967,-1.8813 12.7508,-0.9406 18.4295,-3.4141 0.1742,-0.5575 0.3484,-1.1149 0.5226,-1.6374 5.3302,1.1148 10.5212,-0.2788 15.6424,0.6967 3.2748,-0.5226 3.2748,-0.5226 4.6683,-0.209 0.0697,0.2787 0.1394,0.5574 0.2091,0.8361 0.0697,-0.2787 0.1742,-0.5574 0.2787,-0.8361 0.3135,0 0.6271,0 0.9755,0 0.0348,0.2787 0.0696,0.5574 0.1045,0.8361 0.5922,-0.2439 1.2193,-0.4529 1.8464,-0.6619 2.6129,1.8464 20.7288,1.0103 22.2617,1.0103 3.2748,-0.5923 14.4231,-1.4284 16.165,-3.9019 -0.418,-13.8308 -2.1251,-27.5572 -3.6231,-41.3183 0.3832,-0.2091 0.7664,-0.3832 1.1845,-0.5574 -0.0697,-7.3858 -0.1394,-14.7715 -0.2091,-22.1572 -0.1742,0 -0.3484,0 -0.4877,0 0,-0.4878 0,-0.9755 0,-1.4633 0.209,-0.1045 0.4529,-0.209 0.6968,-0.3135 0.3483,-2.9264 -0.0349,-5.1212 0.0348,-7.9083 0.1394,0.418 0.2787,0.8709 0.4529,1.3238 0.4529,-1.8464 0,-3.3096 -0.209,-5.1909 0.209,-0.1045 0.4529,-0.209 0.6967,-0.3135 0,-3.7974 2.1949,-7.1071 0.0349,-10.6606 0.2787,0.0349 0.5922,0.0697 0.9058,0.1045 0,-0.209 0.0348,-0.418 0.0696,-0.5922 0.5923,0.1742 1.2194,0.3484 1.8465,0.5226 0.418,-0.4878 0.8709,-0.9755 1.3238,-1.4632 0.2091,0.209 0.4181,0.4529 0.662,0.6967 -1.1845,24.8746 -4.1806,47.6589 -1.4632,72.3593 1.0451,3.1355 0.9754,5.0865 2.4386,10.8696 0,3.9368 0.4878,5.5045 -0.6967,9.267 -1.0103,0.2787 -1.0103,0.2787 -3.6581,2.6129 0.3833,0.0697 0.8013,0.1742 1.2194,0.2787 0,0.4878 0,0.9755 0,1.4632 -1.9161,0.5574 -3.7974,1.1149 -5.6787,1.6723 0.9755,0.5225 1.0452,0.6271 1.3239,1.7071 -1.3935,0.2787 -6.8283,-0.2788 -14.3883,-0.3833 0.0349,2.16 0.5575,4.5639 -0.5574,6.48 -0.4529,-0.5923 -0.9058,-1.1845 -1.3238,-1.7768 -5.9574,-0.2439 -5.9574,-0.2439 -9.6503,0.3136 1.2194,1.3587 1.2194,1.3587 2.8916,2.4386 0,0.2788 0,0.5575 0.0349,0.871 2.2993,0.3135 4.5986,1.7768 5.1909,4.0413 0.2787,0.0348 0.5574,0.0696 0.8709,0.1393 0.7665,1.8813 0.7665,1.8813 3.5536,6.0619 1.6025,5.9225 1.2541,11.1483 -1.6026,16.6527 -1.4981,0.1742 -2.8219,2.0207 -2.9264,3.4142 -0.2787,0.0348 -0.5575,0.0697 -0.8362,0.1045 0.0349,0.2439 0.1046,0.5226 0.1742,0.8013 4.9471,0.4529 7.8735,1.1148 12.9599,0.8013 0.0697,0.4529 0.1394,0.9058 0.2439,1.3935 0.3135,-0.0697 0.6619,-0.1393 1.0103,-0.209 -0.1045,0.3832 -0.209,0.7664 -0.3136,1.1497 -5.5044,-0.9755 -11.2527,0.7664 -16.8269,0.0348 -1.9509,0.5574 -2.8916,1.1845 -4.8425,0.4529 -0.0349,0.1742 -0.0349,0.3484 -0.0349,0.5574 -1.8464,-0.0697 -2.0554,-0.209 -3.5883,0.9058 -0.7316,-0.1742 -1.4632,-0.3484 -2.1948,-0.5226 -1.1845,1.0103 -3.7626,0.4181 -5.2955,0.3484 -0.1045,0.3136 -0.209,0.6271 -0.2787,0.9406 -3.1006,-0.1393 -5.609,-0.8361 -8.6051,-0.3832 -0.1393,0.2787 -0.2438,0.5574 -0.3483,0.871 -0.1394,-0.3136 -0.2787,-0.5923 -0.3833,-0.871 -1.6722,-0.1742 -2.5432,-0.7316 -3.867,0.3136 -1.5678,-2.6129 -6.3058,-1.6723 -8.3264,-0.0697 -0.7664,-0.5574 -0.7664,-0.5574 -5.0864,-0.8361 -0.1045,-0.3136 -0.209,-0.5923 -0.2787,-0.871 -0.0697,0.4529 -0.1394,0.9058 -0.209,1.3587 -1.3936,-0.2787 -1.3936,-0.2787 -4.3548,0.4877 -0.1046,-0.2787 -0.2091,-0.5225 -0.3136,-0.7664 -2.9961,0.5923 -5.9573,0.4529 -9.0928,0.4877 -0.1045,0.2439 -0.209,0.4878 -0.2787,0.7665 -7.0025,0.1742 -7.0025,0.1742 -7.9432,0.6619 -0.209,-0.209 -0.3832,-0.3832 -0.5574,-0.5574 -0.0697,0.2787 -0.1393,0.5574 -0.209,0.871 -0.9058,-0.1046 -1.8116,-0.1742 -2.7174,-0.2439 0,-0.1742 0,-0.3136 0.0348,-0.4529 -0.8361,-0.0697 -1.6722,-0.1394 -2.5083,-0.1742 0.1742,0.5922 0.4877,0.4181 0.8361,1.3587 -0.6619,0 -1.289,0 -1.9161,0 -0.1045,-0.3136 -0.209,-0.5923 -0.2787,-0.871 -0.0697,0.2787 -0.1394,0.5574 -0.2091,0.871 -1.707,-0.4529 -3.0309,-0.1394 -4.3547,-0.4877 -0.0697,-0.3136 -0.1046,-0.5923 -0.1394,-0.871 -0.2439,0 -0.4877,0 -0.7316,0 -0.1394,0.2787 -0.2439,0.5574 -0.3484,0.871 -0.3832,-0.871 -0.3832,-0.871 -1.08,-0.871 -0.0348,0.2787 -0.0697,0.5574 -0.1045,0.871 -0.3484,0 -0.6619,0 -0.9755,0 -0.1045,-0.3136 -0.209,-0.5923 -0.2787,-0.871 -1.3587,1.3587 -5.0515,1.1497 -7.0025,1.3587z"/>
   <path id="_131130192" class="fil1" d="M67.8621 285.676c0.2787,-0.2787 0.5922,-0.5574 0.9058,-0.8013 0.1045,0.1045 0.209,0.209 0.3484,0.3484 -0.4181,0.1393 -0.8362,0.2787 -1.2542,0.4529z"/>
   <path id="_131129424" class="fil0" d="M63.5073 282.785c-0.1394,-0.209 -0.2787,-0.4181 -0.3832,-0.6271 0.3832,0 0.7664,0.0348 1.1496,0.0697 -0.2787,0.1742 -0.5226,0.3484 -0.7664,0.5574z"/>
   <path id="_131133424" class="fil1" d="M113.361 282.785c0,-0.3484 0,-0.6619 0,-0.9755 0.2439,0.1394 0.4877,0.2787 0.7664,0.4181 -0.2787,0.1742 -0.5225,0.3484 -0.7664,0.5574z"/>
   <path id="_131133040" class="fil1" d="M67.8621 281.809c0.2787,-0.2438 0.5574,-0.4877 0.8361,-0.7316 -0.2787,0.2439 -0.5574,0.4878 -0.8361,0.7316z"/>
   <path id="_131128552" class="fil1" d="M84.7935 281.321c0.0697,-0.2439 0.1742,-0.4878 0.2787,-0.6968 -4.1109,0 -4.1109,0 -6.2709,-0.5922 -0.0348,-0.3136 -0.0697,-0.5923 -0.0697,-0.871 -0.5574,-0.1045 -1.1148,-0.209 -1.6722,-0.2787 -0.3832,-2.2993 -7.3161,-1.7768 -9.1973,-1.9161 0.8013,-3.9368 6.5844,-14.7367 4.529,-18.1857 -0.9407,1.7768 -1.8813,5.1561 -3.2052,7.4555 1.3239,-8.7096 1.3239,-8.7096 3.3097,-18.0115 1.6374,-1.08 1.6374,-1.08 1.9509,-1.9858 -1.289,-1.7419 0.4878,-1.289 0.8361,-2.6825 -0.5922,-0.2439 -1.6722,0.3135 -2.369,0.0697 0,-0.4181 0.0349,-0.8362 0.0697,-1.2194 1.8465,-0.0697 1.8465,-0.0697 4.0761,-0.7664 -0.3135,1.1496 -0.3135,1.1496 -1.2542,1.7419 0.1742,0.1393 0.3484,0.2787 0.5574,0.418 1.3936,-0.8361 1.6026,-0.9754 2.0207,-2.5432 -0.3484,-0.1393 -0.6968,-0.2787 -1.0452,-0.418 0,-0.3136 0,-0.5923 0,-0.871 12.0541,-0.9406 18.7779,-1.0103 19.3005,-1.289 0.0697,-0.3135 0.1742,-0.6271 0.2787,-0.9058 2.9612,0.1742 9.0928,-1.7071 10.9044,0.5226 -0.2439,0.209 -0.4529,0.418 -0.6619,0.6619 0.2787,0.0697 0.5574,0.1742 0.8709,0.2787 0.0349,0.2439 0.0697,0.5226 0.1045,0.8013 0.662,0.1045 1.3239,0.209 1.9858,0.3484 0.1045,-0.2439 0.2091,-0.4878 0.3136,-0.6968 4.738,-0.3135 8.1522,1.4632 12.6115,1.951 -0.1742,0.2438 -0.3136,0.4877 -0.4529,0.7664 -1.5329,-0.209 -3.0658,-0.3832 -4.5987,-0.5574 -0.1742,0.2439 -0.3484,0.4877 -0.5226,0.7664 -0.1393,-0.3135 -0.2787,-0.5922 -0.3832,-0.8709 -1.2193,0 -1.7767,0.6619 -2.4387,0.8013 -0.209,-0.4529 -0.418,-0.871 -0.5922,-1.2891 -0.2439,0.2091 -0.4529,0.4181 -0.662,0.662 -0.5574,-1.4632 -0.5574,-1.4632 -1.2193,-2.0207 -0.1045,0.9755 -0.1742,1.951 -0.2439,2.9265 -3.6928,0 -10.3121,-0.1045 -13.6566,1.9858 -0.4181,-0.0697 -0.8361,-0.1394 -1.2542,-0.1742 -0.0348,0.2787 -0.0697,0.5574 -0.1045,0.8709 -1.3587,0.1045 -1.9161,0.7665 -2.8219,0.5923 -0.2091,0.3832 -0.3832,0.7664 -0.5574,1.1496 -0.4181,0 -0.8362,0 -1.2542,0 -0.0349,0.5923 -0.0349,1.1845 -0.0349,1.8116 -0.8709,0 -0.8709,0 -1.4283,-0.5574 -0.0697,0.2787 -0.1394,0.5574 -0.2091,0.871 -0.7664,0.3484 -1.5329,0.6968 -2.2993,1.08 -0.209,0.7664 -0.4181,1.5329 -0.5922,2.2993 -0.5226,0.0697 -1.0104,0.1742 -1.4981,0.2787 -0.2787,0.9407 -0.2787,0.9407 0.1394,2.0206 0.2438,0 0.4877,0 0.7316,0 0.0348,-0.2787 0.0696,-0.5574 0.1393,-0.8361 0.2787,-0.0697 0.5574,-0.1045 0.8361,-0.1393 0.1394,-0.3484 0.2787,-0.6968 0.4181,-1.0452 2.369,0.4878 2.369,0.4878 2.8219,0.2439 0,-0.3484 0,-0.6619 0.0348,-0.9755 0.1046,0.2439 0.2091,0.5226 0.3484,0.8013 1.5329,-0.6271 1.5329,-0.6271 1.7419,-1.1148 12.5767,-2.8916 16.9663,-3.4142 17.7328,-3.9019 -0.0697,0.1742 -0.1045,0.3483 -0.1394,0.5225 7.9083,0.1742 20.7985,-1.2193 27.174,4.9123 2.1251,4.8425 3.9019,9.8941 3.9019,15.2592 -2.8219,8.7444 -13.0296,12.4721 -21.774,11.1134 -0.1394,-0.3135 -0.2439,-0.6271 -0.3484,-0.9058 -0.209,0.0349 -0.4181,0.1045 -0.6271,0.1742 0.0697,0.3832 0.1742,0.7664 0.2787,1.1845 -0.6619,0 -1.289,0 -1.9161,0 -0.209,-0.4181 -0.3832,-0.8361 -0.5574,-1.2542 -1.4981,0.0697 -3.1703,-0.0348 -4.2503,1.0452 -2.4038,-1.1497 -3.7625,-1.3936 -5.818,0.4877 -2.7174,-1.1148 -19.7882,0.5574 -22.2966,0.6968z"/>
   <path id="_131127888" class="fil1" d="M142.381 280.346c0,-0.3484 0,-0.6619 0,-0.9755 0.3135,-0.1045 0.6619,-0.209 1.0103,-0.3135 -0.0348,0.418 -0.0348,0.8361 -0.0348,1.289 -0.3484,0 -0.662,0 -0.9755,0z"/>
   <path id="_131127256" class="fil1" d="M141.406 275.503c0.4181,-1.2194 0.4181,-1.2194 3.6929,-5.5045 0.418,0 0.8709,0 1.3238,0 0,2.7871 -2.7522,4.4245 -5.0167,5.5045z"/>
   <path id="_131126624" class="fil0" d="M150.116 274.075c0,-0.3484 0,-0.6619 0,-0.9755 0.6271,0.0697 1.289,0.1394 1.9509,0.2439 -0.4877,0.4877 -0.4877,0.4877 -1.9509,0.7316z"/>
   <path id="_131125992" class="fil1" d="M143.845 268.745c0.2439,-0.9754 0.4877,-1.9509 0.7316,-2.9264 -0.0348,0.871 -0.0697,1.7419 -0.0697,2.6129 -0.2439,0.1045 -0.4529,0.209 -0.6619,0.3135z"/>
   <path id="_131125328" class="fil1" d="M148.687 265.365c0,-0.8013 0,-1.6026 0,-2.4387 0.1394,0 0.3136,0 0.4878,0 0,0.8013 0,1.6026 0,2.4387 -0.1394,0 -0.3136,0 -0.4878,0z"/>
   <path id="_131124696" class="fil1" d="M144.82 263.902c0,-0.9755 0,-1.951 0,-2.8916 0.4529,0 0.4529,0 0.9406,2.8916 -0.3135,0 -0.6271,0 -0.9406,0z"/>
   <path id="_131123952" class="fil1" d="M142.869 261.464c-1.2542,-4.32 -1.2542,-4.32 -1.0451,-5.1212 1.4632,1.9509 1.1845,2.6477 1.0451,5.1212z"/>
   <path id="_131123128" class="fil1" d="M144.332 253.729c0,-0.3484 0,-0.6619 0,-0.9755 -0.6619,-0.1742 -1.3238,-0.3135 -1.9509,-0.4529 -0.0697,-0.3135 -0.1045,-0.5922 -0.1394,-0.8709 -0.4529,-0.0349 -0.9058,-0.0697 -1.3238,-0.1046 -1.1845,-2.8567 -5.5393,-4.4593 -8.4309,-5.156 -0.4878,-2.9265 -1.4981,-2.4736 -4.1458,-3.0658 0,-0.4878 0,-0.9755 0,-1.4632 0.871,0.0696 1.7419,0.1742 2.6129,0.2787 3.7277,4.8425 11.7405,6.0967 14.3186,11.8102 -0.3136,0 -0.6271,0 -0.9407,0z"/>
   <path id="_131122496" class="fil0" d="M88.2077 248.887c0.1045,-0.209 0.209,-0.418 0.3135,-0.627 0.4529,0 0.9058,0.0348 1.3936,0.0696 -0.5923,0.1742 -1.1497,0.3484 -1.7071,0.5574z"/>
   <path id="_131121864" class="fil1" d="M57.2364 247.946c0,-0.4877 0,-0.4877 1.0451,-0.8709 0.1045,0.2787 0.2439,0.5574 0.3832,0.8709 -0.4877,0 -0.9754,0 -1.4283,0z"/>
   <path id="_131121232" class="fil1" d="M59.6402 247.459c-0.1393,-0.2091 -0.2787,-0.4181 -0.3832,-0.6271 0.2787,-0.1394 0.5574,-0.2439 0.871,-0.3484 -0.1742,0.3135 -0.3484,0.6271 -0.4878,0.9755z"/>
   <path id="_131120568" class="fil1" d="M63.5073 247.459c0,-0.3484 0,-0.662 0,-0.9755 -0.9755,0 -0.9755,0 -0.9755,-0.4877 0.7316,0.1393 1.4632,0.2787 2.2297,0.418 -0.4181,0.3484 -0.8362,0.6968 -1.2542,1.0452z"/>
   <path id="_131119936" class="fil1" d="M54.7977 245.995c-0.1045,-0.2091 -0.209,-0.3833 -0.3136,-0.5575 0.4181,0 0.8362,0.0349 1.2891,0.0697 0,0.4878 0,0.4878 -0.9755,0.4878z"/>
   <path id="_131119272" class="fil1" d="M45.6003 243.591c-0.2787,-0.5226 -0.5574,-1.0451 -0.8012,-1.5329 1.3238,-1.2542 2.3341,-1.1496 4.0064,-0.9754 -0.2787,0.6619 -0.5226,1.3238 -0.7665,2.0206 -0.8361,0.1393 -1.6374,0.3135 -2.4387,0.4877z"/>
   <path id="_131118640" class="fil1" d="M51.4184 242.616c0.9754,-2.787 1.0799,-2.7174 3.867,-2.9264 0.0697,0.4878 0.1742,0.9755 0.2787,1.4981 -0.7316,0.6619 -0.7316,0.6619 -4.1457,1.4283z"/>
   <path id="_131117976" class="fil1" d="M56.2609 240.665c-0.1742,-0.6619 -0.3484,-1.289 -0.4877,-1.9161 0.3135,0 0.627,0 0.9754,0 0.0697,0.4877 0.1742,0.9755 0.2787,1.4632 -0.2787,0.1393 -0.5225,0.2787 -0.7664,0.4529z"/>
   <path id="_131117128" class="fil1" d="M43.1965 239.69c-0.1045,-2.2993 -0.209,-4.5638 -0.3135,-6.8283 2.0903,-1.7419 2.9264,-11.4967 3.9367,-14.9457 1.2542,3.3097 0.4181,8.3961 0.3484,11.9844 0.4529,0.0349 0.9058,0.0697 1.3587,0.1394 0.0348,2.1251 0.1045,4.2851 0.1742,6.4451 -2.1949,0.9406 -3.7277,1.6374 -5.5045,3.2051z"/>
   <path id="_131116496" class="fil1" d="M120.607 239.237c0.1393,-0.2787 0.2787,-0.5574 0.418,-0.8013 0.1046,0.1045 0.2091,0.2091 0.3484,0.3484 -0.2787,0.1394 -0.5225,0.2787 -0.7664,0.4529z"/>
   <path id="_131115832" class="fil0" d="M73.6801 236.31c0.1393,-0.4877 0.3135,-0.9755 0.4877,-1.4284 0.4529,0 0.9407,0 1.4284,0 0,0.3136 0,0.6271 0,0.9407 -0.6619,0.1393 -1.289,0.3135 -1.9161,0.4877z"/>
   <path id="_131115200" class="fil1" d="M52.8816 235.822c-0.1045,-0.8362 -0.2091,-1.6723 -0.3136,-2.4736 1.6723,-0.2438 1.4981,0.871 1.4284,2.16 -0.3832,0.1045 -0.7664,0.209 -1.1148,0.3136z"/>
   <path id="_131114592" class="fil1" d="M41.2455 234.394c-0.1045,-0.6619 -0.1741,-1.3239 -0.2438,-1.951 0.0697,0.6271 0.1393,1.2891 0.2438,1.951z"/>
   <path id="_131113984" class="fil0" d="M37.8662 232.931c0.2439,-1.951 0.2439,-1.951 0.7316,-2.4039 -0.2438,0.8013 -0.4877,1.6026 -0.7316,2.4039z"/>
   <path id="_131113352" class="fil1" d="M41.2455 225.197c0.0697,-0.418 0.1742,-0.8012 0.2788,-1.1845 0.3832,-0.0348 0.7664,-0.0348 1.1845,-0.0348 -0.871,0.3484 -0.871,0.3484 -1.4633,1.2193z"/>
   <path id="_131112664" class="fil1" d="M43.6842 221.817c-0.1393,-0.209 -0.2787,-0.418 -0.3832,-0.6271 0.1742,-0.2438 0.3832,-0.4529 0.5923,-0.6619 -0.4878,-0.6271 -0.4878,-0.6271 -0.5226,-2.1948 0.2439,-0.1394 0.5226,-0.2787 0.8013,-0.4181 0.1045,1.5678 0.4877,2.6477 -0.4878,3.9019z"/>
   <path id="_131112032" class="fil1" d="M39.8172 215.999c0.3484,-0.6271 0.3484,-0.6271 1.4283,-0.9755 0,0.3136 0,0.6271 0,0.9755 -0.4877,0 -0.9754,0 -1.4283,0z"/>
   <path id="_131111424" class="fil1" d="M43.6842 204.851c0.2439,-3.2399 0.4878,-6.4451 0.7316,-9.6502 0.662,3.6232 0.2439,6.1664 -0.7316,9.6502z"/>
   <path id="_131110544" class="fil1" d="M146.248 193.738c0.6968,-2.0206 0.6968,-2.0206 1.9858,-3.6929 1.7071,-0.1045 3.4142,-0.209 5.1561,-0.3135 0.1742,-0.2439 0.3484,-0.4529 0.5226,-0.662 0.4877,0.2439 1.0103,0.5226 1.5329,0.8013 0.0696,0.871 0.1742,1.7419 0.2787,2.6129 0.6967,0.1742 1.4284,0.3484 2.16,0.5226 -2.4039,0.4529 -2.4039,0.4529 -11.6361,0.7316z"/>
   <path id="_131109880" class="fil1" d="M44.172 191.334c-0.1742,-0.9754 -0.3484,-1.9509 -0.4878,-2.9264 0.3136,0 0.6271,0 0.9755,0 0,0.9755 0,1.951 0,2.9264 -0.1742,0 -0.3484,0 -0.4877,0z"/>
   <path id="_131109272" class="fil1" d="M145.273 190.358c-0.6968,-2.4387 -0.6968,-2.4387 -0.9407,-5.3303 3.3097,0.5574 1.8465,2.7871 0.9407,5.3303z"/>
   <path id="_131108640" class="fil1" d="M157.397 190.358c0,-1.1497 0,-2.2645 0,-3.3794 0.4181,0.1046 0.8361,0.2091 1.289,0.3136 -0.2438,1.2193 -0.2787,2.369 -1.289,3.0658z"/>
   <path id="_131108008" class="fil1" d="M148.687 188.407c0.1394,-0.9755 0.3136,-1.9509 0.4878,-2.8916 2.2296,0 4.4941,0 6.7586,0 -0.4877,3.9368 -3.8671,2.6826 -7.2464,2.8916z"/>
   <path id="_131107376" class="fil1" d="M41.7333 187.92c0.2439,-1.7768 0.4877,-3.5535 0.7316,-5.2955 0.2439,1.742 0.4877,3.5187 0.7316,5.2955 -0.4877,0 -0.9755,0 -1.4632,0z"/>
   <path id="_131106416" class="fil1" d="M149.628 183.565c0.7316,-4.5987 0.7316,-4.5987 1.3238,-5.9225 2.9264,-0.871 1.4284,-3.6581 1.1148,-5.6787 0.662,0.0348 1.3239,0.0697 2.0207,0.1045 -0.0349,-1.8116 -0.0697,-3.6232 -0.1045,-5.4348 -0.3136,0 -0.6271,0 -0.9407,0 -0.2438,-2.8916 -0.2438,-2.8916 -0.9755,-5.3302 -0.3483,0 -0.6619,0 -0.9754,0 -0.2091,-1.5329 -0.7316,-1.951 -1.7071,-3.1355 0.1742,-0.5226 0.3832,-1.0452 0.5922,-1.5677 1.3587,0.9058 1.7768,1.3935 2.5781,2.787 0.3135,0 0.6271,0 0.9755,0 3.3096,6.9329 0.7664,14.1444 0,21.2863 -0.3484,0 -0.662,0 -0.9755,0 0.0348,0.8361 0.0697,1.6722 0.1045,2.5084 -1.0103,0.1045 -2.0206,0.2438 -3.0309,0.3832z"/>
   <path id="_131105784" class="fil1" d="M42.221 182.137c0.1742,-0.9406 0.3484,-1.8464 0.5226,-2.7522 0.1394,0.9058 0.2787,1.8116 0.4529,2.7522 -0.3484,0 -0.6619,0 -0.9755,0z"/>
   <path id="_131102400" class="fil1" d="M31.1076 181.649c-2.7174,-2.9613 -2.5084,-3.9716 -0.4878,-7.2813 0.2787,-0.0348 0.5575,-0.0696 0.8362,-0.1045 1.6025,-3.3793 6.5844,-9.7896 5.9225,-13.4127 1.2542,-0.1394 3.4838,-3.5884 5.0864,-4.6684 -0.6968,2.0206 -1.0103,1.8464 -1.4981,3.24 0,3.0309 0.4529,3.6232 0.4529,4.4941 -0.3483,0.2091 -0.6967,0.4181 -1.0103,0.662 0.4529,-0.0697 0.9058,-0.1394 1.3587,-0.1742 0.1394,1.4283 0.1394,1.4283 -0.5226,2.7174 -0.4528,0.0348 -0.9057,0.0696 -1.3238,0.1045 -0.6271,2.9961 -3.449,6.9328 -5.6438,9.058 -0.1045,0.4877 -0.2091,0.9754 -0.2787,1.498 -0.3136,0.0348 -0.5923,0.0697 -0.871,0.1045 -1.3935,3.449 -1.3935,3.449 -2.0206,3.7626z"/>
   <path id="_131101912" class="fil1" d="M41.9772 172.939c-0.3833,-0.4529 -0.4529,-1.6723 -0.1394,-1.9161 0.0348,0.6271 0.0697,1.2541 0.1394,1.9161z"/>
   <path id="_131104696" class="fil1" d="M150.116 171.476c0.1394,-0.4878 0.3135,-0.9755 0.4877,-1.4633 1.0103,0.2091 1.0103,0.2091 1.742,0.9058 -0.7665,0.1742 -1.4981,0.3484 -2.2297,0.5575z"/>
   <path id="_131104312" class="fil1" d="M152.066 170.013c-0.2787,-0.3135 -0.5225,-0.627 -0.7664,-0.9057 0.0697,-0.4529 0.1394,-0.9058 0.209,-1.3239 0.2439,0.1742 0.4878,0.3832 0.7316,0.5922 -0.0696,0.5226 -0.1393,1.08 -0.1742,1.6374z"/>
   <path id="_131100904" class="fil0" d="M56.7486 164.23c-3.3445,-2.1252 -3.3445,-17.4192 -0.5574,-21.1121 0.3832,0.1742 0.8013,0.3832 1.2194,0.5923 0.1742,1.5677 0.3832,3.1354 0.5922,4.738 20.1366,-0.7665 40.6564,-0.4877 60.8278,-0.4529 0.1045,-0.4181 0.2091,-0.8013 0.3136,-1.1845 5.7483,0.3135 12.0541,0.2787 17.9069,0 0.1394,0.6271 0.3135,1.2542 0.4877,1.9161 -0.3135,0.0348 -0.5922,0.0697 -0.8709,0.1045 -0.0349,0.2787 -0.0697,0.5574 -0.1045,0.871 -3.5884,-0.3136 -6.8284,0.6967 -10.347,0.6619 -0.1394,-0.3484 -0.2787,-0.6968 -0.4181,-1.0452 -0.7316,0 -1.4632,0 -2.1948,0 -0.0349,0.2788 -0.0697,0.5575 -0.1045,0.871 -2.8568,-0.5226 -6.2361,0.0348 -9.3716,-0.2787 -0.1045,0.2439 -0.209,0.4877 -0.2787,0.7664 -4.3548,-0.0696 -9.5108,-1.1845 -13.5173,0.6968 -2.9264,0 -2.9264,0 -3.7973,0.4878 2.5432,0.9406 5.0864,1.9161 7.6644,2.8915 10.1031,-0.5225 20.2411,-1.0103 30.3791,-1.498 1.289,0.209 6.4451,1.3935 7.5251,0.7316 -0.0349,-1.6026 -0.0349,-3.2051 -0.0349,-4.8077 -1.5329,-0.4529 -2.2296,0.3484 -4.0412,-0.4529 0.0697,-0.3832 0.1742,-0.7664 0.2787,-1.1497 1.08,-0.1045 2.16,-0.209 3.2748,-0.3135 0.2439,-0.9058 0.4877,-1.8116 0.7316,-2.7174 2.16,5.2606 1.9509,8.8141 1.6374,14.2141 0.209,0.1741 0.4181,0.3483 0.6619,0.5574 -0.1742,0.6619 -0.3484,1.3238 -0.5225,1.9858 -0.5226,-1.1149 -1.3936,-1.4284 -2.0207,-2.9265 -5.2257,-0.7316 -8.4657,-0.7316 -10.5212,-1.2542 0,-0.2787 0,-0.5574 0,-0.8361 5.4348,-0.0697 5.4348,-0.0697 6.8284,-0.418 -0.0697,-0.2091 -0.1394,-0.4181 -0.1742,-0.6271 -4.5639,0.1045 -9.0928,0.2438 -13.6218,0.3832 -0.3833,0.9755 -0.4529,1.0451 -1.4284,1.4284 -0.0348,0.2787 -0.0697,0.5574 -0.1045,0.8709 -9.6503,0.2091 -11.6012,0.6968 -17.0012,0.7665 -3.0309,8.396 -26.2681,-0.7665 -32.4345,-1.5329 -1.289,0 -2.578,0.0348 -3.8671,0.0697 -0.2438,-0.2091 -0.4877,-0.4181 -0.6967,-0.6271 -0.0697,0.2787 -0.1394,0.5574 -0.2091,0.8361 -7.2115,1.6722 -7.2115,1.6722 -8.9186,1.6374 -0.418,-0.871 -0.8361,-1.7419 -1.2542,-2.578 1.0104,-0.3136 1.0104,-0.3136 1.742,0.209 1.5677,-1.3935 2.9264,-0.4529 4.9818,-1.4632 9.5458,0 18.1857,1.4632 27.8359,0.4529 -9.058,-5.4348 -19.3701,-4.5987 -29.6823,-5.2955 -1.8813,0.2439 -3.7625,0.5226 -5.609,0.8013 -0.4877,2.0555 -0.3135,3.24 0,5.3303 -0.418,2.5432 -0.8012,5.1212 -1.1845,7.6993z"/>
   <path id="_131100272" class="fil1" d="M44.6597 162.279c-0.7664,-2.8567 -0.7664,-2.8567 -0.6968,-4.0761 1.5678,-0.0696 1.5678,-0.0696 2.6478,-0.5922 0.1393,2.0554 -0.8362,2.9264 -1.951,4.6683z"/>
   <path id="_131099608" class="fil1" d="M97.3702 160.85c-2.5781,-0.6968 -5.1561,-1.3936 -7.6993,-2.0903 3.24,0 7.769,-0.9058 10.6257,0.627 0,0.3136 0,0.6271 0,0.9755 -0.9755,0.1394 -1.9509,0.3136 -2.9264,0.4878z"/>
   <path id="_131098944" class="fil0" d="M125.45 157.924c-0.0348,-0.5922 -0.0697,-1.1845 -0.0697,-1.7419 5.0864,0.1045 5.0864,0.1045 5.3303,0.4181 -0.6967,0.6271 -0.6967,0.6271 -0.4877,0.9406 -1.6026,0.1045 -3.2052,0.2439 -4.7729,0.3832z"/>
   <path id="_131098200" class="fil1" d="M43.6842 157.436c-0.1742,-0.8013 -0.3483,-1.6026 -0.4877,-2.4039 2.8219,-0.6619 3.9716,-1.6374 6.3057,-2.7174 -0.0348,1.0452 -0.0348,2.1252 -0.0348,3.2052 -0.2787,0.0348 -0.5574,0.0697 -0.8361,0.1045 -0.0349,0.4181 -0.0697,0.871 -0.1045,1.3239 -2.6477,-0.2788 -2.6477,-0.2788 -3.24,-0.7317 -0.5574,0.3833 -1.08,0.8013 -1.6026,1.2194z"/>
   <path id="_131097536" class="fil1" d="M139.002 156.948c-0.3833,-0.5226 -0.3833,-0.5226 0,-1.3239 0.4877,-0.0348 0.9754,-0.0697 1.4632,-0.1045 -0.1045,0.3832 -0.2091,0.7664 -0.3136,1.1496 -0.3832,0.0697 -0.7664,0.1742 -1.1496,0.2788z"/>
   <path id="_131092504" class="fil1" d="M153.042 156.948c-2.4735,-2.1252 -2.4735,-2.1252 -3.4141,-2.4039 0,-0.6619 0,-1.3239 0,-1.9509 1.8812,0.3135 2.6477,2.4735 3.6928,3.9367 -0.1045,0.1393 -0.209,0.2787 -0.2787,0.4181z"/>
   <path id="_131092240" class="fil1" d="M97.3702 156.495c-2.9613,-1.8116 -5.4696,-3.449 -8.7096,-4.5987 5.3303,0 7.6993,1.3587 12.5418,3.7277 -1.289,0.2787 -2.578,0.5574 -3.8322,0.871z"/>
   <path id="_131091472" class="fil1" d="M94.4786 150.19c0.2439,-0.3484 0.4877,-0.6619 0.7316,-0.9755 0.0697,0.3136 0.1394,0.6271 0.2439,0.9755 -0.3484,0 -0.662,0 -0.9755,0z"/>
   <path id="_131090864" class="fil1" d="M149.175 149.702c-0.1046,-0.662 -0.1742,-1.289 -0.2439,-1.9161 0.0697,0.6271 0.1393,1.2541 0.2439,1.9161z"/>
   <path id="_131096448" class="fil1" d="M152.066 146.81c0.0697,-0.4878 0.1394,-0.9755 0.2439,-1.4632 0.2439,0.4877 0.4878,0.9754 0.7316,1.4632 -0.3484,0 -0.6619,0 -0.9755,0z"/>
   <path id="_131095816" class="fil1" d="M153.53 143.884c-0.871,-1.6374 -0.662,-2.4387 -0.4878,-4.3548 0.8013,-0.1742 1.6026,-0.3136 2.4039,-0.4529 -0.662,1.6025 -1.289,3.2051 -1.9161,4.8077z"/>
   <path id="_131095184" class="fil1" d="M134.16 138.589c0.1394,-0.2787 0.2787,-0.5574 0.4181,-0.8013 0.1045,0.1046 0.209,0.2091 0.3484,0.3484 -0.2787,0.1394 -0.5226,0.2787 -0.7665,0.4529z"/>
   <path id="_131090320" class="fil1" d="M119.632 137.613c-1.289,-0.1046 -22.9585,-2.9961 -24.3172,-2.0904 -0.1393,-0.4528 -0.2438,-0.8709 -0.3484,-1.289 -0.3832,0.1045 -0.7664,0.2091 -1.1148,0.3484 -0.1393,-0.2787 -0.2439,-0.5574 -0.3484,-0.8361 -1.6374,0 -3.2399,0 -4.8425,0 0,-0.3484 0,-0.6619 0,-0.9755 -12.8205,1.4284 -26.9998,-6.2361 -37.73,-12.3328 0.1394,-0.1742 0.3136,-0.3484 0.4878,-0.4877 -1.2891,-0.6271 -1.9858,-0.9406 -2.6478,-2.1948 -0.1742,0.1393 -0.3483,0.3135 -0.4877,0.4877 -1.5677,-2.2993 -3.8671,-7.7689 -3.1703,-10.6257 0.3136,0 0.6271,0 0.9755,0 -1.7768,-3.7277 -1.3936,-6.4103 -0.1394,-10.3122 2.5781,-0.5922 2.5781,-0.5922 3.0658,-1.0799 -0.8361,-0.1046 -1.6374,-0.1742 -2.4387,-0.2439 0.2439,-1.9161 0.7316,-2.4039 0.9755,-4.3548 0.3135,0 0.6271,0 0.9755,0 0.2787,-3.3793 2.4387,-3.1355 3.3793,-5.7832 1.9161,-0.7316 3.8671,-1.4632 5.818,-2.1948 -0.4877,-0.3484 -0.9755,-0.6619 -1.4632,-0.9755 2.8916,-0.9406 2.8916,-0.9406 4.3548,-0.9406 2.7174,1.8464 4.9819,4.3199 8.3264,4.4593 0.2787,0.6619 0.5574,1.3587 0.8709,2.0555 0.4181,-0.1394 0.8361,-0.2787 1.289,-0.3833 0,-0.3135 0,-0.6271 0,-0.9406 6.6542,2.8916 13.0296,6.9677 19.7534,9.3019 0.2439,-0.1742 0.4877,-0.3484 0.7316,-0.4878 -0.3484,-0.1742 -0.6619,-0.3135 -0.9755,-0.4529 0.4878,-0.2439 0.9755,-0.4877 1.4633,-0.7316 0.3832,1.289 0.7664,1.2542 2.0206,1.7768 0.2438,-0.2439 0.4877,-0.4878 0.7316,-0.6968 1.9509,1.1497 3.4141,0.8361 5.4696,1.5677 -0.1742,0.1394 -0.3484,0.3136 -0.4877,0.4878 1.1148,0.1393 2.2296,0.3135 3.3793,0.4877 -0.1742,0.1394 -0.3484,0.3135 -0.4877,0.4877 0.8012,0.0697 1.6025,0.1394 2.4386,0.2439 0,0.4529 0,0.9406 0,1.4284 0.4878,0 0.4878,0 0.8013,-0.8361 2.2297,0.5225 4.4593,1.0451 6.689,1.5677 3.1355,-0.4877 3.1355,-0.4877 4.5987,-0.2439 1.9161,6.4451 37.5557,-6.1315 39.6809,-6.7586 1.0103,2.7174 2.8916,5.818 2.4038,8.7096 -2.4387,-0.4878 -4.8425,-0.9755 -7.2464,-1.4632 0,0.3135 0,0.627 0,0.9754 0.8013,0.1394 1.6026,0.3136 2.4039,0.4878 0,0.4877 0,0.9754 0,1.4632 0.9755,0.4529 1.9509,0.9406 2.9264,1.4284 0,0.4877 0,0.9754 0,1.4632 -0.4877,0.0696 -0.9755,0.1393 -1.4632,0.2438 1.1845,1.1845 1.3587,2.0555 1.8116,3.7277 -0.6619,0.0697 -1.3239,0.1394 -1.9509,0.2439 -0.1046,-2.7871 -1.1846,-6.0619 -4.5987,-5.818 0.5922,0.9406 1.1845,1.8813 1.7767,2.8219 0.2439,-0.0348 0.4878,-0.0697 0.7665,-0.0697 0.0697,0.5574 0.1393,1.1497 0.2439,1.742 -0.8013,-0.1742 -1.6026,-0.3484 -2.4039,-0.4878 -0.1045,0.4878 -0.1742,0.9755 -0.2439,1.4632 -0.5922,-0.3484 -1.1496,-0.6619 -1.707,-0.9754 0.1393,0.9754 0.3135,1.9509 0.4877,2.9264 0.3484,0.1045 0.6968,0.209 1.08,0.3135 0.1045,1.6374 0.2439,3.3097 0.3832,4.9819 0.3136,0 0.6271,0 0.9755,0 0.1045,0.6619 0.209,1.3587 0.3484,2.0555 -0.2787,0.209 -0.5574,0.418 -0.8362,0.6271 0.3136,0.1393 0.6271,0.3135 0.9755,0.4877 -0.1742,0.1394 -0.3484,0.2787 -0.4877,0.4529 0.2787,0.1742 0.5574,0.3832 0.8361,0.5923 -0.4529,1.4283 -0.4877,2.1251 -1.8116,2.8219 0.6968,1.1845 -1.289,7.5599 -2.1948,8.9534 -0.1742,-0.1742 -0.3136,-0.3484 -0.4529,-0.4877 -0.3484,0.3135 -0.6619,0.6271 -0.9755,0.9755 0.0349,0.3484 0.0697,0.6967 0.1045,1.0451 -0.6271,0.1045 -1.2193,0.2439 -1.8116,0.3832 0,0.4878 0,0.9755 0,1.4633 -2.6477,-0.7317 -2.6477,-0.7317 -4.3548,-0.4878 0,-0.3484 0,-0.6619 0,-0.9755 -7.5251,0.6271 -14.7018,1.2891 -22.2617,1.4633z"/>
   <path id="_131089656" class="fil1" d="M152.066 137.125c0.1394,-0.9755 0.3136,-1.9509 0.4878,-2.8916 0.5574,0.1394 1.1148,0.2787 1.7071,0.4181 -0.0349,0.5574 -0.0697,1.1148 -0.1045,1.6722 -0.6968,0.2439 -1.3936,0.5226 -2.0904,0.8013z"/>
   <path id="_131088912" class="fil1" d="M154.958 134.234c-0.3832,-0.4529 -0.7664,-0.8709 -1.1496,-1.289 0.1393,-0.6271 0.2787,-1.2542 0.4529,-1.8464 0.2787,0 0.5574,0 0.8709,0 0.9058,1.5329 0.9058,1.5329 1.7768,1.9161 -0.3136,0.1045 -0.5923,0.209 -0.871,0.3484 -0.0348,0.2787 -0.0697,0.5574 -0.1045,0.8709 -0.3484,0 -0.6619,0 -0.9755,0z"/>
   <path id="_131088280" class="fil1" d="M156.909 132.283c-0.1394,-0.2091 -0.2787,-0.4181 -0.3832,-0.6271 0.2787,-0.1394 0.5574,-0.2439 0.8709,-0.3484 -0.1742,0.3136 -0.3484,0.6271 -0.4877,0.9755z"/>
   <path id="_131087616" class="fil1" d="M159.801 129.391c-0.1742,-6.5496 0.1742,-12.8205 0.7316,-19.3701 0.2438,0.627 0.4877,1.289 0.7316,1.9509 0.3135,0 0.6271,0 0.9755,0 0.6619,3.658 2.787,15.5379 -2.4387,17.4192z"/>
   <path id="_131086848" class="fil1" d="M156.421 126.465c0.2439,-0.9755 0.4878,-1.951 0.7317,-2.8916 0.5225,1.9858 0.5225,1.9858 0.2787,2.6477 -0.3484,0.0697 -0.6968,0.1394 -1.0104,0.2439z"/>
   <path id="_131086184" class="fil1" d="M182.55 121.169c-0.5574,-7.8734 -1.6374,-12.5069 -10.1728,-13.5521 0,-0.3484 0,-0.6619 0,-0.9755 9.5109,-0.4529 11.8799,5.3303 11.009,14.3883 -0.2788,0.0348 -0.5575,0.0697 -0.8362,0.1393z"/>
   <path id="_131085576" class="fil1" d="M154.958 113.888c-0.1045,-0.4877 -0.1742,-0.9755 -0.2438,-1.4284 0.5225,1.0104 0.5225,1.0104 0.2438,1.4284z"/>
   <path id="_131084832" class="fil1" d="M166.106 110.509c-0.6271,-1.5329 -1.2193,-2.9961 -2.9264,-3.3793 -0.0697,-0.3136 -0.1045,-0.5923 -0.1394,-0.871 -1.0451,-0.4181 -1.0451,-0.4181 -1.9858,-0.1393 -0.1045,0.3135 -0.209,0.6619 -0.2787,1.0103 -0.418,-0.1045 -0.8012,-0.2091 -1.1845,-0.3136 -0.418,-1.0451 -0.8361,-2.0554 -1.2541,-3.0658 4.6683,0.871 7.0025,1.7768 7.7689,6.7587z"/>
   <path id="_131082408" class="fil0" d="M147.712 102.775c-0.0696,-0.4181 -0.1393,-0.8013 -0.209,-1.1845 0.3832,-0.1046 0.7665,-0.2091 1.1845,-0.2787 0,0.4877 0,0.9754 0,1.4632 -0.3484,0 -0.6619,0 -0.9755,0z"/>
   <path id="_131081792" class="fil0" d="M138.027 102.287c-0.1742,-0.6619 -0.3484,-1.3238 -0.4878,-1.9509 0.3136,0 0.6271,0 0.9755,0 -0.1742,0.6271 -0.3484,1.289 -0.4877,1.9509z"/>
   <path id="_131084136" class="fil0" d="M140.465 101.799c-0.3484,-0.2439 -0.662,-0.4877 -0.9755,-0.7316 0.3484,0 0.7316,0 1.1148,0.0348 -0.0697,0.2091 -0.1045,0.4529 -0.1393,0.6968z"/>
   <path id="_131081264" class="fil1" d="M121.583 97.9321c-15.5031,-1.707 -15.5031,-1.707 -20.7986,-2.6477 -8.5354,-3.1006 -17.5237,-5.8877 -24.7004,-11.636 -0.2787,0.0348 -0.5574,0.0697 -0.8361,0.1045 0,0.3136 0,0.6271 0,0.9755 -5.4348,-3.9716 -5.4348,-3.9716 -10.765,-7.107 0,-0.3484 0,-0.662 0,-0.9755 -0.3484,0 -0.662,0 -0.9755,0 -0.1742,-0.6619 -0.3484,-1.3239 -0.4878,-1.951 0.9755,0 0.9755,0 0.9755,-0.4877 -1.289,0.1393 -2.578,0.3135 -3.867,0.4877 0,-0.3135 0,-0.6271 0,-0.9406 -0.8013,-0.3484 -1.6026,-0.6619 -2.4039,-0.9755 -0.1045,-0.3484 -0.1742,-0.6619 -0.2439,-0.9755 -0.1742,0.1394 -0.3483,0.3136 -0.4877,0.4878 -0.4877,-2.2297 -4.8077,-3.5187 -7.0374,-3.8671 0,-0.3484 0,-0.6619 0,-0.9755 -6.7586,-1.707 -6.7586,-1.707 -7.8734,-2.2993 -0.1742,-1.9509 1.1496,-5.3651 1.3587,-7.6296 0.7316,-1.5677 2.0903,-3.449 1.7767,-5.2257 0.2787,-0.1046 0.5574,-0.2091 0.871,-0.3136 -0.1394,-0.5574 -0.2787,-1.08 -0.3832,-1.6026 0.4529,-0.3832 0.9058,-0.7316 1.3587,-1.0799 -0.1742,-0.1742 -0.3484,-0.3484 -0.4878,-0.4878 0.3484,-0.3832 0.6968,-0.7316 1.08,-1.08 2.0903,2.4735 6.8283,9.1277 10.0683,9.7896 10.6257,8.2219 12.5767,9.1973 14.9805,11.1483 8.0128,9.0928 16.4786,11.2876 27.7662,14.4579 0.1742,-0.2438 0.3484,-0.4529 0.5574,-0.6619 2.6826,4.2503 12.507,3.658 17.2102,6.4799 7.6993,0.2091 19.0566,2.16 25.5365,-2.8916 15.9908,-4.3896 15.9908,-4.3896 16.6179,-5.0167 0.1394,0.2439 0.3136,0.5226 0.4878,0.8013 6.6889,-3.1006 6.6889,-3.1006 6.8631,-2.7522 -1.6374,3.5883 -3.2748,7.1767 -4.8774,10.7999 -0.8361,0.418 -19.1611,6.0618 -19.9623,5.0167 1.3238,-0.4529 2.4735,-0.5574 3.1006,-1.8116 0.1045,0.2787 0.209,0.5574 0.3484,0.8361 2.4386,-1.3935 3.7625,-2.1251 6.5496,-2.4038 -0.0697,-0.2091 -0.1394,-0.4181 -0.1742,-0.6271 -10.347,1.9509 -20.694,6.3057 -31.1455,7.0373z"/>
   <path id="_131080632" class="fil1" d="M164.643 95.0405c0.2439,-0.3483 0.4877,-0.6619 0.7316,-0.9754 0.0348,0.2787 0.0697,0.5574 0.1045,0.8361 -0.2787,0.0348 -0.5574,0.0697 -0.8361,0.1393z"/>
   <path id="_131080000" class="fil1" d="M89.1483 94.5528c-0.1393,-0.209 -0.2787,-0.4181 -0.3832,-0.6271 1.0452,-0.0697 1.0452,-0.0697 1.289,0.2439 -0.3135,0.1045 -0.6271,0.2439 -0.9058,0.3832z"/>
   <path id="_131079200" class="fil1" d="M160.288 93.5773c-0.0348,-0.4529 -0.0697,-0.8709 -0.0697,-1.289 0.662,-0.0697 1.3239,-0.1393 2.0207,-0.1742 -0.1046,0.3832 -0.2091,0.7665 -0.3136,1.1497 -0.5574,0.1045 -1.1148,0.209 -1.6374,0.3135z"/>
   <path id="_131073960" class="fil0" d="M42.221 93.0896c0,-0.3484 0,-0.6619 0,-0.9755 0.2439,0.1394 0.4878,0.2787 0.7665,0.4181 -0.2787,0.1742 -0.5226,0.3484 -0.7665,0.5574z"/>
   <path id="_131073696" class="fil1" d="M66.8866 85.3555c0.0697,-0.2439 0.1394,-0.4878 0.209,-0.6968 -1.2193,-1.0451 -1.2193,-1.0451 -4.9819,-2.8219 2.0555,-0.0348 3.8323,-0.4181 5.7484,0.3832 -0.3136,0.1394 -0.5923,0.2787 -0.871,0.4529 0.4529,0.0697 0.9058,0.1394 1.3587,0.2439 0.0697,0.2787 0.1394,0.5574 0.209,0.8361 0.0697,-0.2787 0.1742,-0.5574 0.2787,-0.8361 0.7665,0.3484 1.5329,0.6968 2.3342,1.08 -0.418,0.1742 -0.8361,0.3832 -1.2542,0.5922 0.2787,0.1742 0.5575,0.3484 0.871,0.5226 -1.3239,0.0697 -2.6129,0.1394 -3.9019,0.2439z"/>
   <path id="_131073312" class="fil1" d="M130.292 84.38c-3.1355,-0.7316 -3.1355,-0.7316 -9.1974,-0.9755 -0.1045,-3.867 -0.1742,-7.7341 -0.2438,-11.6012 -0.4529,-2.8219 -2.822,-9.3366 -1.4633,-12.0889 0.3136,0.3136 0.6271,0.6271 0.9755,0.9755 0,-2.9613 -1.0451,-5.0167 -2.16,-7.769 -0.3483,-0.1045 -0.6619,-0.1741 -0.9754,-0.2438 1.9509,-1.5329 2.5083,-2.0207 3.1354,-4.3548 -1.6025,-3.4839 -4.0064,-8.6399 -8.7096,-6.7587 -0.9058,-0.6619 -1.7767,-1.3238 -2.6477,-1.9509 2.2993,-2.2994 7.4903,-1.7419 10.2425,-0.3832 1.3587,2.578 1.3587,2.578 1.8464,2.578 0,-0.4877 0,-0.9755 0,-1.4632 0.6271,0.1393 1.289,0.3135 1.951,0.4877 0.1045,0.8361 0.209,1.6723 0.3135,2.5432 4.7032,2.5432 4.5987,14.5276 8.849,14.1444 -0.4878,0.2439 -0.9755,0.4877 -1.4284,0.7316 2.16,7.2464 2.16,7.2464 2.0206,8.3264 0.2787,0.1045 0.5574,0.2439 0.871,0.3832 1.2193,6.7935 1.2193,6.7935 1.4632,11.1483 -0.6619,-0.1045 -1.3239,-0.1742 -1.951,-0.2439 2.1252,1.9858 1.7768,3.2748 1.08,6.1316 -1.3238,0.1045 -2.6477,0.2438 -3.9715,0.3832z"/>
   <path id="_131075472" class="fil1" d="M136.563 83.4045c0.418,-12.716 -1.3587,-24.9094 -6.0271,-36.7545 -4.947,-8.8489 -13.9353,-14.7018 -24.4565,-11.636 0,0.3136 0,0.6271 0,0.9755 -8.5354,-1.08 -9.6154,-1.6723 -16.4437,3.1354 -0.662,0.0697 -1.2891,0.1394 -1.9161,0.2439 -1.7071,2.9264 -3.6581,5.3303 -5.0865,8.2567 -1.289,7.1419 0.5575,14.2489 1.6723,21.2863 -3.4142,0.2787 -5.5045,-1.1497 -8.2219,-3.1703 1.0103,-0.0349 1.951,0.4877 3.4142,0.4877 -4.8425,-2.7522 -13.587,-6.5148 -14.7715,-12.3328 -0.1742,0.1394 -0.3484,0.3136 -0.4877,0.4878 -0.1742,-0.3484 -0.3484,-0.662 -0.4878,-0.9755 -0.209,0.5922 -0.418,1.1845 -0.627,1.8116 -2.6129,-1.8465 -2.7871,-1.4284 -4.4594,-4.7032 -0.3135,0 -0.627,0 -0.9406,0 0,-0.3484 0,-0.6619 0,-0.9755 -0.9058,-0.2787 -1.7768,-0.5574 -2.6477,-0.8013 0.0348,-0.1742 0.0697,-0.3483 0.1393,-0.4877 0.3484,0.1045 0.6968,0.209 1.0452,0.3135 -1.289,-3.4141 -2.1251,-3.9367 -5.3303,-5.0864 1.1497,-1.6722 1.3587,-2.5432 1.7071,-4.5638 0.1394,0.2439 0.2787,0.5226 0.4529,0.8013 1.6026,-2.1948 1.9161,-4.0413 4.1458,-4.7032 0.1393,-0.6619 0.3135,-1.289 0.4877,-1.9161 0.3136,0 0.6271,0 0.9406,0 -0.1045,-0.3484 -0.209,-0.6968 -0.3135,-1.0451 1.9509,-0.1742 1.3935,-1.5329 2.0206,-2.822 0.1394,0.1394 0.3136,0.3136 0.4878,0.4878 2.369,-2.5084 5.5393,-5.0864 8.9534,-5.818 0,-0.3484 0,-0.662 0,-0.9755 1.3239,0.1742 1.5678,0.3832 2.5084,1.3239 -0.0349,-0.9407 -0.0697,-1.8465 -0.1045,-2.7523 1.4632,-0.2438 1.4632,-0.2438 3.7974,-1.7419 -0.6271,-0.1742 -1.2542,-0.3135 -1.8465,-0.4529 0.4878,-0.4877 2.16,-0.4877 2.8916,-0.9755 -0.3484,-0.1742 -0.6619,-0.3484 -0.9755,-0.4877 4.5987,-2.0206 9.1625,-3.1006 14.0399,-4.3548 3.3793,0.209 10.8696,2.16 14.0399,1.2193 0.8013,2.7174 8.1522,5.8877 11.1134,6.7935 0,0.3136 0,0.6271 0,0.9407 2.6826,0.8012 3.449,2.1948 6.3058,2.1948 -0.2787,0.1742 -0.5575,0.3484 -0.8013,0.5226 0.209,0.1741 0.418,0.3483 0.6619,0.5574 0.3484,-0.1394 0.7316,-0.2439 1.1148,-0.3484 0.1046,0.4877 0.2091,1.0103 0.3484,1.5329 3.5187,1.8464 9.8941,5.3651 11.2528,9.0928 -0.9755,0 -0.9755,0 -0.9755,0.4877 3.449,1.0103 6.3406,2.5084 7.2813,6.3058 0.3135,0 0.6271,0 0.9406,0 1.5329,6.1664 4.8425,11.0089 7.0374,16.9314 0.5574,4.8426 2.787,16.5134 -0.6271,19.9276 -0.6968,0.1045 -1.3936,0.2439 -2.0555,0.3832 -0.1742,0.8013 -0.3484,1.6026 -0.4877,2.4387 -0.5226,0.0348 -1.0452,0.0697 -1.5678,0.1045 -0.1393,-0.3832 -0.2438,-0.7316 -0.3483,-1.08 -0.3136,0.1045 -0.5923,0.209 -0.871,0.3484 0.1045,0.3484 0.2439,0.6968 0.3832,1.08 -0.8013,0.1393 -1.6026,0.3135 -2.4038,0.4877 -0.1394,-0.2787 -0.2787,-0.5574 -0.3833,-0.8361 -1.0799,0.5923 -1.0799,0.5923 -3.5186,0.8361z"/>
   <path id="_131072928" class="fil1" d="M117.228 82.9168c-9.8245,-1.9858 -17.3147,-4.4245 -26.1288,-9.1625 0,-0.3484 0,-0.6619 0,-0.9755 -0.3484,-0.1045 -0.662,-0.1742 -0.9755,-0.2438 0.1394,-0.1742 0.3135,-0.3484 0.4877,-0.4878 -0.3483,-0.1045 -0.6619,-0.1742 -0.9754,-0.2439 0,-0.6619 0,-1.3238 0,-1.9509 -0.9755,0 -0.9755,0 -0.9755,-0.4529 0.9755,0 0.9755,0 0.9755,-0.4877 -0.3484,0 -0.662,0 -0.9755,0 -0.4529,-3.2748 -1.0103,-7.1767 -0.1742,-10.3819 0.9406,1.1845 1.8813,2.369 2.8567,3.5884 0.1742,-0.3832 0.3833,-0.7665 0.5923,-1.1149 6.3057,-1.289 5.7135,-7.5947 5.4348,-12.925 -1.1497,-0.2787 -1.1497,-0.2787 -2.6477,-1.6722 -1.9161,0 -2.7174,0 -4.3548,-0.9755 -0.4529,0.3484 -0.9058,0.6968 -1.3587,1.08 -0.1394,-0.6271 -0.2439,-1.2194 -0.3484,-1.8116 0.3484,-0.1394 0.6968,-0.2787 1.08,-0.3832 0.1045,-0.3484 0.2438,-0.6968 0.3832,-1.0452 0.3135,0 0.6271,0 0.9755,0 0,-0.3484 0,-0.6619 0,-0.9755 0.3135,0 0.6271,0 0.9755,0 1.3586,-4.5638 6.6192,-3.3444 10.1379,-2.9264 0,0.1394 0,0.3136 0,0.4877 -0.6619,0 -1.289,0 -1.9161,0 0,0.4878 2.4039,1.2194 3.9716,2.2994 0.8709,1.5329 4.0412,9.058 6.1664,9.8244 0.5922,1.6374 1.1845,3.2748 1.8116,4.9122 1.8116,0.5226 2.0903,2.5781 2.787,4.2503 0.1394,-0.1742 0.3136,-0.3135 0.4878,-0.4529 1.7767,2.9613 2.1251,4.8774 3.1703,8.2219 -0.3136,0.1045 -0.5923,0.209 -0.871,0.3483 1.3936,4.8426 1.6374,8.5703 1.8116,13.6567 -0.8013,0 -1.6026,0 -2.4038,0z"/>
   <path id="_131072320" class="fil1" d="M159.313 80.0252c0.5923,-2.0903 2.5432,-2.7871 4.6335,-2.4735 -1.4632,1.4632 -2.7174,1.7767 -4.6335,2.4735z"/>
   <path id="_131071656" class="fil1" d="M88.6606 79.0497c-0.4181,-0.6619 -0.4181,-0.6619 -1.6374,-0.7664 0.0348,-0.3484 0.0697,-0.6619 0.1393,-0.9755 0.9407,0.4529 1.9161,0.9058 2.8916,1.3587 -0.4877,0.1045 -0.9406,0.2439 -1.3935,0.3832z"/>
   <path id="_131071024" class="fil1" d="M85.2813 77.6214c-0.1394,-0.2091 -0.2787,-0.4181 -0.3833,-0.6271 1.0452,-0.0697 1.0452,-0.0697 1.2891,0.2438 -0.3136,0.1045 -0.6271,0.2439 -0.9058,0.3833z"/>
   <path id="_131070392" class="fil0" d="M47.5513 71.8033c-0.1045,-0.209 -0.209,-0.3832 -0.3135,-0.5574 0.1393,-0.0696 0.3135,-0.1045 0.4877,-0.1393 -0.0697,0.209 -0.1394,0.4529 -0.1742,0.6967z"/>
   <path id="_131069624" class="fil1" d="M171.89 68.424c1.8116,-2.2645 3.24,-4.1457 4.3548,-6.7935 0.3135,0 0.6271,0 0.9755,0 -0.6968,2.5432 -2.6826,6.0271 -5.3303,6.7935z"/>
   <path id="_131069016" class="fil0" d="M32.536 66.4731c0.2787,-0.6968 0.2787,-0.6968 0.7664,-0.5574 -0.2787,0.1742 -0.5226,0.3483 -0.7664,0.5574z"/>
   <path id="_131068384" class="fil1" d="M37.1346 66.4731c-0.0348,-1.3936 -0.0348,-1.3936 -0.5574,-2.4736 0.4877,-0.0696 0.9755,-0.1045 1.4632,-0.1393 0.0349,1.2193 0.0349,1.2193 -0.9058,2.6129z"/>
   <path id="_131067752" class="fil1" d="M36.8908 63.0937c-0.1046,-0.4877 -0.1742,-0.9754 -0.2439,-1.4632 0.3135,0.2787 0.6619,0.5923 1.0103,0.9058 -0.2787,0.1742 -0.5226,0.3484 -0.7664,0.5574z"/>
   <path id="_131067120" class="fil1" d="M87.2322 62.606c-0.1393,-0.209 -0.2787,-0.418 -0.3832,-0.6271 0.2787,-0.1393 0.5574,-0.2438 0.871,-0.3484 -0.1742,0.3136 -0.3484,0.6271 -0.4878,0.9755z"/>
   <path id="_131066512" class="fil1" d="M51.9061 50.0294c-0.1045,-0.662 -0.1742,-1.3239 -0.2439,-1.951 0.0697,0.6271 0.1394,1.289 0.2439,1.951z"/>
   <path id="_131065880" class="fil1" d="M49.9551 47.1378c0.1394,-0.2787 0.2788,-0.5574 0.4181,-0.8013 0.1045,0.1045 0.209,0.209 0.3484,0.3484 -0.2787,0.1393 -0.5226,0.2787 -0.7665,0.4529z"/>
   <path id="_131065216" class="fil0" d="M79.4981 44.6991c-0.871,-1.6723 -0.871,-1.6723 -0.6968,-2.1252 0.3832,-0.1045 0.7665,-0.209 1.1497,-0.2787 -0.2439,1.1497 -0.2439,1.1497 0.2787,1.8465 -0.2439,0.1742 -0.4877,0.3484 -0.7316,0.5574z"/>
   <path id="_131064584" class="fil1" d="M43.6842 43.2707c0.1394,-0.2787 0.2787,-0.5574 0.4181,-0.8013 0.1045,0.1045 0.209,0.2091 0.3484,0.3484 -0.2787,0.1394 -0.5226,0.2787 -0.7665,0.4529z"/>
   <path id="_131063816" class="fil0" d="M79.0104 41.8075c0.2438,-3.1355 1.6722,-8.0477 4.8425,-9.1973 0.209,-1.4632 0.209,-1.4632 0.6968,-1.951 0.4877,0.4878 1.1496,0.1742 1.8812,0.6968 0.2439,-0.1742 0.4878,-0.3484 0.7316,-0.5226 0.2787,0.2439 0.5575,0.4877 0.8362,0.7316 -0.7665,1.7071 -2.0207,1.6723 -3.7277,2.2993 -1.7071,2.7523 -3.0658,4.8426 -3.8323,7.9432 -0.4877,0 -0.9754,0 -1.4283,0z"/>
   <path id="_131062904" class="fil0" d="M78.0349 31.147c0,-0.3136 0,-0.6271 0,-0.9407 0.2787,-0.0697 0.5574,-0.1045 0.8361,-0.1393 -0.1394,-1.3239 0.6271,-2.0207 0.9058,-3.4839 0.8361,0 0.8361,0 1.3587,0.5574 0.0697,-0.2787 0.1742,-0.5574 0.2787,-0.8361 0.4877,0 0.9755,0 1.4632,0 -1.1845,1.9858 -2.7522,2.5084 -3.867,4.8426 -0.3484,0 -0.662,0 -0.9755,0z"/>
   <path id="_131062080" class="fil0" d="M100.297 25.3638c0.1394,-1.289 0.3136,-2.5781 0.4877,-3.8671 0.4529,0 0.9407,0 1.4284,0 0.1045,0.2439 0.2091,0.5226 0.3484,0.8013 0.5226,-0.1394 1.0452,-0.2439 1.6026,-0.3484 0,0.4878 0,0.4878 -0.9755,0.4878 0,0.3135 0,0.627 0,0.9754 0.3135,0.0697 0.6271,0.1394 0.9755,0.2439 -0.2439,0.1394 -0.4878,0.3135 -0.7316,0.4877 -0.3484,-0.1742 -0.662,-0.3483 -0.9755,-0.4877 -0.7316,0.5574 -1.4632,1.1148 -2.16,1.7071z"/>
   <path id="_131061472" class="fil0" d="M76.5717 21.009c-0.3136,-0.5226 -0.3136,-0.5226 -0.0349,-0.8013 0.2787,0.6619 0.2787,0.6619 0.0349,0.8013z"/>
   <path id="_131060840" class="fil0" d="M96.4295 19.058c0.2091,-0.4877 0.4529,-0.9754 0.6968,-1.4632 0.0697,0.4878 0.1394,0.9755 0.2439,1.4632 -0.3136,0 -0.6271,0 -0.9407,0z"/>
  </g>
 </g>
</svg>
