<?xml version="1.0" encoding="UTF-8" standalone="no"?>
<!-- Created with Inkscape (http://www.inkscape.org/) -->

<svg
   xmlns:dc="http://purl.org/dc/elements/1.1/"
   xmlns:cc="http://creativecommons.org/ns#"
   xmlns:rdf="http://www.w3.org/1999/02/22-rdf-syntax-ns#"
   xmlns:svg="http://www.w3.org/2000/svg"
   xmlns="http://www.w3.org/2000/svg"
   xmlns:sodipodi="http://sodipodi.sourceforge.net/DTD/sodipodi-0.dtd"
   xmlns:inkscape="http://www.inkscape.org/namespaces/inkscape"
   width="210mm"
   height="297mm"
   id="svg2"
   version="1.1"
   inkscape:version="0.48.3.1 r9886"
   sodipodi:docname="Neues Dokument 1">
  <defs
     id="defs4" />
  <sodipodi:namedview
     id="base"
     pagecolor="#ffffff"
     bordercolor="#666666"
     borderopacity="1.0"
     inkscape:pageopacity="0.0"
     inkscape:pageshadow="2"
     inkscape:zoom="0.50383782"
     inkscape:cx="350"
     inkscape:cy="520"
     inkscape:document-units="px"
     inkscape:current-layer="layer1"
     showgrid="false"
     inkscape:window-width="1199"
     inkscape:window-height="757"
     inkscape:window-x="453"
     inkscape:window-y="1280"
     inkscape:window-maximized="0" />
  <metadata
     id="metadata7">
    <rdf:RDF>
      <cc:Work
         rdf:about="">
        <dc:format>image/svg+xml</dc:format>
        <dc:type
           rdf:resource="http://purl.org/dc/dcmitype/StillImage" />
        <dc:title></dc:title>
      </cc:Work>
    </rdf:RDF>
  </metadata>
  <g
     inkscape:label="Ebene 1"
     inkscape:groupmode="layer"
     id="layer1">
    <g
       id="g3050"
       transform="matrix(2.4540408,0,0,2.5185455,-457.11654,-692.70327)">
      <path
         style="fill:#fefefe"
         d="m 194.9286,512.36218 0,-74.5 136.5,0 136.5,0 0,74.5 0,74.5 -136.5,0 -136.5,0 0,-74.5 z"
         id="path3056"
         inkscape:connector-curvature="0" />
      <path
         style="fill:#020202"
         d="m 206.326,582.09687 c -1.72297,-1.14805 -2.72309,-10.95967 -1.1698,-11.47627 2.12869,-0.70796 1.65087,-16.65159 -1.86863,-62.35184 -0.34281,-4.45138 -0.30436,-11.4969 0.0855,-15.65671 l 0.70874,-7.5633 6.17342,-2.27096 c 3.39538,-1.24902 7.16722,-3.02856 8.38188,-3.95453 1.21465,-0.92596 5.48965,-2.7237 9.5,-3.99498 4.01034,-1.27129 8.36473,-3.13373 9.6764,-4.13876 1.31167,-1.00504 3.14535,-1.82734 4.07485,-1.82734 2.60664,0 14.99027,-4.45292 20.29777,-7.2987 2.61662,-1.40298 7.34162,-3.45533 10.5,-4.56078 3.15839,-1.10544 8.21752,-3.36158 11.24252,-5.01363 3.025,-1.65205 9.2125,-4.17602 13.75,-5.60882 4.5375,-1.43279 8.25,-2.97434 8.25,-3.42565 0,-0.45132 2.0921,-1.10733 4.64911,-1.4578 2.55701,-0.35048 5.14451,-0.97415 5.75,-1.38593 1.61408,-1.0977 59.60089,-0.29994 59.60089,0.81996 0,0.55214 -10.99352,0.93135 -27,0.93135 l -27,0 0,5.16809 c 0,6.99261 -1.96551,17.83191 -3.2335,17.83191 -0.63619,0 -0.78215,-1.42969 -0.38284,-3.75 0.97189,-5.64747 1.9807,-19.25 1.42765,-19.25 -2.3739,0 -31.24608,10.2469 -34.32489,12.1821 -2.19253,1.37812 -6.91142,3.48126 -10.48642,4.67365 -3.575,1.19239 -8.525,3.33507 -11,4.76151 -4.79461,2.76333 -17.85676,7.38274 -20.87591,7.38274 -0.99776,0 -2.58657,0.85356 -3.53069,1.89679 -0.94411,1.04324 -3.80471,2.42259 -6.35687,3.06524 -2.55217,0.64264 -8.71195,3.11584 -13.68842,5.496 -4.97646,2.38016 -10.02397,4.6195 -11.21668,4.97631 -1.88825,0.56489 -2.26109,1.63602 -2.88426,8.2861 -0.39362,4.20054 -0.21278,13.51935 0.40186,20.70845 2.89371,33.846 3.35829,49.71005 1.74238,59.49761 l -0.8959,5.4265 3.05662,-2.1765 c 1.68113,-1.19707 3.52168,-2.1765 4.0901,-2.1765 0.56843,0 2.44667,-1.9678 4.17387,-4.37289 1.72721,-2.40509 4.23017,-4.95613 5.56214,-5.66898 1.33197,-0.71285 2.42176,-1.89505 2.42176,-2.62711 0,-0.73206 0.34523,-1.33102 0.76718,-1.33102 0.42194,0 3.12194,-2.0599 6,-4.57755 5.94496,-5.20051 7.19591,-9.42245 2.79184,-9.42245 -1.34254,0 -2.71154,0.43777 -3.04223,0.97283 -0.33068,0.53505 -2.4552,1.47204 -4.72115,2.0822 -7.59764,2.04583 -9.70784,-0.88865 -11.3604,-15.7979 -0.69137,-6.23756 0.50977,-10.02718 2.74108,-8.64816 0.52234,0.32283 1.72998,-0.11918 2.68364,-0.98224 1.98806,-1.79917 10.81411,-6.62673 12.1154,-6.62673 0.47825,0 1.38347,1.6875 2.01161,3.75 2.23978,7.35428 4.43832,11.4612 6.56916,12.27134 2.25838,0.85864 3.86804,5.70973 2.80969,8.46772 -1.05525,2.74994 2.36309,1.62183 5.16091,-1.70319 2.69955,-3.20824 2.70339,-3.23621 2.09692,-15.25 -0.33417,-6.61973 -0.86755,-18.78587 -1.18529,-27.03587 l -0.57771,-15 5.17144,-3.44436 c 2.8443,-1.8944 7.58652,-4.42592 10.53827,-5.6256 2.95176,-1.19969 7.56239,-3.59013 10.24585,-5.3121 l 4.87902,-3.13086 19.49971,-0.41276 c 19.338,-0.40935 19.52069,-0.39333 22.02787,1.93146 2.18449,2.02557 2.62687,3.52946 3.25446,11.06354 0.4718,5.6639 1.03569,8.23072 1.60921,7.325 0.48559,-0.76688 0.88979,-2.85682 0.89821,-4.64432 0.0184,-3.89936 1.81557,-5.84465 9.41845,-10.19458 4.72692,-2.70447 6.88591,-3.31139 12.17136,-3.42153 3.53384,-0.0736 6.42523,-0.37126 6.42533,-0.66138 5.3e-4,-1.6415 -3.26577,-4.80769 -4.47931,-4.34201 -0.78361,0.3007 -1.87664,0.26744 -2.42896,-0.0739 -1.40679,-0.86945 -0.18952,-3.55659 1.61114,-3.55659 2.40014,0 7.2973,3.30092 7.2973,4.91873 0,0.81814 3.52832,4.88362 7.84071,9.0344 4.3124,4.15078 8.33836,8.44687 8.9466,9.54687 1.48455,2.68484 4.01951,1.15112 6.75648,-4.08787 1.12409,-2.15167 3.37409,-4.5899 5,-5.41829 1.62592,-0.82838 5.20621,-3.23684 7.95621,-5.35212 4.91191,-3.77821 5.12459,-3.8382 12.07189,-3.40546 7.28464,0.45376 9.92399,1.68656 16.62161,7.76374 4.25121,3.8574 7.34668,13.8712 7.32477,23.69558 l -0.0183,8.19558 4.14945,-0.56772 c 3.54514,-0.48504 4.31718,-0.2543 5.30122,1.58438 0.63347,1.18366 1.01622,4.49019 0.85055,7.34785 -0.24457,4.2185 -0.72311,5.40508 -2.54433,6.30881 -1.23372,0.6122 -3.06915,1.86063 -4.07874,2.7743 -1.00957,0.91367 -2.40419,1.66122 -3.09913,1.66122 -0.69494,0 -2.4077,0.9 -3.80612,2 -1.39842,1.1 -3.08716,2 -3.75274,2 -0.66559,0 -1.9921,0.86404 -2.94781,1.92009 -0.95572,1.05605 -3.95046,2.45094 -6.65499,3.09974 -4.43052,1.06287 -4.91733,1.45541 -4.91733,3.96508 0,1.53198 -0.7612,5.14233 -1.69155,8.023 l -1.69155,5.23759 2.69155,1.96065 c 1.51294,1.1021 2.69155,2.92446 2.69155,4.16165 0,1.38506 1.11212,2.85793 3,3.97313 1.65,0.97468 3,2.3849 3,3.13382 0,2.59601 -1.22204,4.52525 -2.86644,4.52525 -0.90886,0 -2.21453,0.9 -2.90149,2 -0.68696,1.1 -2.1452,2 -3.24054,2 -1.09534,0 -1.99153,0.48214 -1.99153,1.07143 0,2.01737 -2.80202,3.87328 -6.81717,4.51532 -3.49918,0.55955 -4.50989,0.24467 -7.8624,-2.44949 -3.60038,-2.89334 -4.17327,-3.04 -8.93491,-2.28729 -5.64703,0.89268 -8.31437,0.20441 -12.9702,-3.34676 -1.85218,-1.41273 -5.25496,-2.67836 -8.27989,-3.07963 -2.82449,-0.37468 -5.13543,-1.01479 -5.13543,-1.42245 0,-0.40766 -1.97275,-1.29354 -4.38389,-1.96862 -5.08601,-1.424 -6.79905,-4.13032 -5.94514,-9.39236 0.59252,-3.65129 4.36708,-7.97592 7.88443,-9.03343 1.3343,-0.40117 2.81067,0.0857 4.20819,1.38766 1.18403,1.10309 2.69867,2.00562 3.36586,2.00562 0.66719,0 2.11237,0.7875 3.21151,1.75 1.59631,1.39786 1.51893,1.08915 -0.38457,-1.53416 -1.91254,-2.63577 -2.33837,-4.3513 -2.15684,-8.68922 l 0.22617,-5.40505 -3.33831,0.54173 c -3.01467,0.48921 -3.49844,0.21672 -4.99009,-2.81078 -0.90848,-1.84389 -1.66203,-2.79002 -1.67455,-2.10252 -0.0125,0.6875 -1.26027,1.28553 -2.77277,1.32895 -1.5125,0.0434 -2.1847,0.30685 -1.49377,0.58541 2.07743,0.83754 0.3256,2.33564 -2.73122,2.33564 -2.17552,0 -3.64601,-1.0137 -6.16514,-4.25 -1.81951,-2.3375 -3.58328,-4.475 -3.91949,-4.75 -0.33622,-0.275 -1.12166,-1.4 -1.74543,-2.5 -1.06147,-1.87186 -1.13608,-1.82759 -1.16454,0.69098 -0.0167,1.48004 0.41959,2.9691 0.96959,3.30902 0.55,0.33992 1,3.2402 1,6.44508 0,6.44839 1.12093,5.2494 -10.55803,11.29329 -1.84754,0.95611 -3.82434,2.60757 -4.39289,3.66992 -0.56855,1.06235 -2.72468,2.48004 -4.7914,3.15043 -2.06673,0.67039 -4.95215,2.05643 -6.41205,3.08009 -1.4599,1.02365 -3.12422,1.86119 -3.69848,1.86119 -0.57426,0 -2.258,1.125 -3.74165,2.5 -2.29498,2.12692 -3.65558,2.5 -9.11726,2.5 -3.53085,0 -7.21862,0.42756 -8.19505,0.95013 -0.97644,0.52257 -8.02237,1.02092 -15.65764,1.10745 l -13.88229,0.15731 -0.80522,-3.10744 c -0.91965,-3.54902 -0.80247,-3.4954 -4.22811,-1.93458 -1.96907,0.89717 -2.84989,0.89717 -3.74706,0 -1.80675,-1.80675 -4.43935,-1.4085 -8.77287,1.32713 -2.17814,1.375 -4.4192,2.5 -4.98013,2.5 -0.56093,0 -1.01987,0.44362 -1.01987,0.98581 0,0.5422 -1.7635,2.15284 -3.91889,3.57921 -2.1554,1.42637 -5.13063,4.34193 -6.61163,6.47903 -1.51634,2.18807 -4.60993,4.81371 -7.08111,6.00999 -2.4136,1.1684 -4.38837,2.53423 -4.38837,3.03517 0,1.09166 -1.09106,1.15265 -2.6026,0.14548 z m 195.68439,-7.23469 c 1.83203,0 0.85179,-3.29606 -2.08179,-7 -1.65,-2.08329 -3,-4.08459 -3,-4.44733 0,-1.55065 -5.6383,-7.55261 -7.09501,-7.55264 -1.75113,-3e-5 -4.25119,2.51361 -5.22161,5.24997 -0.76231,2.14956 -2.54354,2.27799 -3.32567,0.23979 -0.72346,-1.88529 3.92665,-8.12788 6.71328,-9.01232 1.28508,-0.40787 2.73983,-0.0537 3.82941,0.9324 2.77009,2.50689 4.6465,1.91177 8.78059,-2.78479 4.22788,-4.80314 6.86095,-13.39234 6.60059,-21.53145 -0.15656,-4.89399 -2.32001,-7.32629 -9.8473,-11.071 -4.03407,-2.00688 -11.43428,-2.78154 -11.43428,-1.19694 0,0.45412 1.14618,1.90246 2.54706,3.21852 1.82973,1.71894 2.4634,3.22491 2.25,5.3473 -0.35295,3.51037 -2.79706,4.85273 -2.79706,1.53621 0,-2.59981 -4.70063,-9.19417 -6.19805,-8.69504 -0.55855,0.18619 -1.11445,3.88013 -1.23533,8.20878 -0.20557,7.36124 -0.40886,8.02592 -3.1432,10.2771 -2.45729,2.02308 -3.68079,2.32463 -7.67342,1.89125 -4.48903,-0.48725 -4.75,-0.38388 -4.75,1.88154 0,3.34851 4.01706,7.82307 6.25293,6.96509 0.96089,-0.36873 1.74707,-1.07227 1.74707,-1.56343 0,-0.49115 0.675,-0.89301 1.5,-0.89301 2.52957,0 1.68672,1.68406 -2.50403,5.00319 -3.48805,2.76259 -4.50748,3.08619 -7.91094,2.51118 -2.1488,-0.36304 -4.69173,-1.52729 -5.65096,-2.58722 -0.95922,-1.05993 -2.36812,-1.92715 -3.13087,-1.92715 -2.10262,0 -5.61785,3.68188 -4.7916,5.01876 0.39836,0.64457 0.12952,2.2833 -0.59744,3.64163 -1.64081,3.06589 -0.17675,4.30136 5.1244,4.3243 1.94621,0.008 5.30385,0.91531 7.46144,2.01531 4.63752,2.36434 7.5,2.56846 7.5,0.5348 0,-0.80587 1.2375,-2.94485 2.75,-4.75329 1.5125,-1.80845 3.24596,-4.18661 3.85213,-5.2848 1.16269,-2.10643 5.39787,-3.36498 5.39787,-1.60406 0,0.56746 -2.475,3.80553 -5.5,7.19571 -3.025,3.39018 -5.5,6.52453 -5.5,6.96522 0,0.44069 1.2304,1.76909 2.73422,2.952 2.05035,1.6128 3.48851,1.98677 5.75,1.49518 9.10153,-1.97845 9.88026,-1.87363 14.45105,1.94516 2.42085,2.02256 5.00735,3.40634 5.7991,3.10252 0.78606,-0.30164 1.8424,-0.54844 2.34742,-0.54844 z m 9.98395,-7.03518 c 2.75545,-1.47468 2.40325,-2.76218 -2.45237,-8.96482 -3.31466,-4.23419 -4.84461,-5.4375 -6.6477,-5.22844 -2.96614,0.34391 -2.94334,0.31597 -3.61021,4.42542 -0.47841,2.9481 -0.0587,3.97526 2.91084,7.1239 3.54644,3.76032 6.31681,4.50778 9.79944,2.64394 z m -129.35659,-9.04356 c 4.28497,-0.59331 8.46585,-1.33747 9.29085,-1.65369 0.825,-0.31622 2.23208,-0.48689 3.12685,-0.37926 1.43125,0.17215 1.56601,-0.9215 1.12085,-9.09632 -0.2783,-5.11059 -0.81862,-9.96699 -1.20072,-10.79199 -0.3821,-0.825 -0.59862,-4.9875 -0.48115,-9.25 0.11747,-4.2625 -0.18678,-7.75 -0.67612,-7.75 -0.48934,0 -0.8966,-0.7875 -0.90502,-1.75 -0.0378,-4.31864 -1.42158,-4.71624 -8.41921,-2.41908 -8.1427,2.67306 -10.56548,2.75769 -10.56548,0.36908 0,-2.26505 -1.88566,-4.2 -4.09301,-4.2 -0.93116,0 -1.95203,-0.675 -2.26862,-1.5 -0.31658,-0.825 -1.48972,-1.5 -2.60699,-1.5 -1.7409,0 -2.03138,0.64349 -2.03138,4.5 0,2.475 -0.3949,4.5 -0.87756,4.5 -2.15241,0 -3.17079,-3.34271 -3.38823,-11.12149 l -0.23421,-8.37851 4.28473,-2.75 c 5.443,-3.4934 7.36335,-3.4622 9.49966,0.15429 2.11394,3.57861 2.19248,6.7617 0.21561,8.73857 -1.98714,1.98714 -1.89997,3.98968 0.2089,4.79893 1.81738,0.69739 4.07661,-1.57346 6.77839,-6.81325 1.75299,-3.39972 1.23813,-4.62854 -1.93932,-4.62854 -2.32809,0 -4.05834,-2.36519 -2.9922,-4.09024 0.74475,-1.20503 7.64668,-1.16348 10.87913,0.0655 2.88738,1.09778 3.23269,3.3165 1.0933,7.02475 -0.79328,1.375 -1.90489,3.52403 -2.47025,4.77563 -0.56536,1.25159 -1.70969,2.53723 -2.54294,2.85698 -0.83326,0.31975 -1.51501,1.48137 -1.51501,2.58137 0,1.52002 0.41998,1.82239 1.75,1.25993 0.9625,-0.40704 3.57681,-1.18639 5.80957,-1.73189 l 4.05957,-0.99182 -0.41648,-11.6251 c -0.22906,-6.39381 -0.8031,-12.03733 -1.27563,-12.54116 -0.51864,-0.55299 -4.34061,-0.38354 -9.64309,0.42753 -4.83117,0.73898 -9.90894,1.40053 -11.28394,1.47012 -1.375,0.0696 -5.34575,0.50159 -8.82389,0.95999 -6.1668,0.81277 -6.30773,0.89787 -5.67325,3.42582 0.35785,1.4258 0.83004,16.74285 1.04931,34.0379 0.21928,17.29506 0.74724,31.79285 1.17326,32.21732 0.42601,0.42448 3.69957,0.93383 7.27457,1.1319 3.575,0.19806 7.49412,0.44683 8.70915,0.5528 1.21503,0.10597 5.71503,-0.29275 10,-0.88606 z m -29.26492,-4.83102 c 1.43048,-2.31456 -0.61345,-3.87723 -4.40598,-3.36854 -3.67902,0.49346 -3.8557,0.38259 -4.54845,-2.85415 -0.39641,-1.85215 -1.13457,-3.88268 -1.64036,-4.51229 -0.50579,-0.62961 -0.79132,-1.68398 -0.63453,-2.34306 0.37206,-1.56388 -1.82856,-2.76339 -6.40855,-3.49315 -2.46982,-0.39353 -3.90031,-1.23968 -4.31739,-2.55379 -0.85454,-2.69244 -3.46555,-2.48536 -3.59029,0.28474 -0.16943,3.76277 0.18593,9.14946 0.72567,11 0.75951,2.60401 2.68738,2.12891 2.02888,-0.5 -0.43383,-1.73196 0.0287,-2.52889 2.00901,-3.46133 2.26002,-1.06415 2.9836,-0.89785 5.95518,1.36869 2.42877,1.85251 3.38258,3.37234 3.38258,5.3899 0,1.54544 0.70714,3.51703 1.57143,4.38131 1.69187,1.69188 8.93604,2.17738 9.8728,0.66167 z m 57.14766,-3.94778 c 2.25053,-1.11999 6.00561,-3.63523 8.34461,-5.58941 2.339,-1.95418 4.86006,-3.55305 5.60235,-3.55305 2.57278,0 6.25307,-4.45893 6.79421,-8.23168 0.29439,-2.05242 0.11488,-3.99148 -0.3989,-4.30901 -0.51379,-0.31754 -0.9307,-1.78829 -0.92647,-3.26833 0.007,-2.32906 -1.90024,-13.39193 -5.03162,-29.19098 -0.49055,-2.475 -1.16274,-8.1 -1.49376,-12.5 -0.82416,-10.95497 -1.40343,-13.5 -3.0727,-13.5 -0.78732,0 -5.02164,2.25 -9.40961,5 -4.38797,2.75 -8.27807,5 -8.64467,5 -0.3666,0 -2.18353,1.15706 -4.03763,2.57125 l -3.37108,2.57124 0.14566,13.94327 c 0.0801,7.66879 0.54212,14.18829 1.02669,14.48777 0.48456,0.29947 0.88103,2.34753 0.88103,4.55123 0,2.2037 0.41067,4.77406 0.91259,5.71192 0.50193,0.93785 1.00226,6.19577 1.11185,11.68426 0.10959,5.48848 0.68095,11.83662 1.26968,14.10698 0.9921,3.82591 1.25828,4.07023 3.63815,3.33941 1.41225,-0.43368 4.40908,-1.70487 6.65962,-2.82487 z m -4.92522,-22.80913 c -0.36667,-0.36666 -0.66667,-1.43656 -0.66667,-2.37755 0,-0.94099 -0.675,-2.27109 -1.5,-2.95578 -0.825,-0.68469 -1.5,-2.43966 -1.5,-3.89994 0,-1.46027 -0.66514,-3.60467 -1.47809,-4.76531 -1.38996,-1.98445 -1.28563,-2.18201 1.75,-3.31369 6.84012,-2.55 7.72809,-3.00957 7.72809,-3.99962 0,-0.56179 0.65934,-1.02144 1.4652,-1.02144 0.80587,0 2.99349,-1.34185 4.8614,-2.9819 3.17769,-2.79005 3.49018,-2.87047 4.85711,-1.25 1.39264,1.65096 3.03128,6.43043 4.30368,12.5527 0.80074,3.8528 -2.17192,6.85735 -11.09232,11.21133 -7.72303,3.76956 -7.75105,3.77855 -8.7284,2.8012 z m 5.98825,-5.87646 c 0.32569,-0.84872 0.32244,-1.81284 -0.007,-2.1425 -0.71244,-0.71223 -3.64792,1.54756 -3.64792,2.80808 0,1.50908 3.03233,0.95689 3.65492,-0.66558 z m 6.34508,-2.48825 c 0,-1.19717 -2.82062,-2.48133 -3.64326,-1.65869 -0.87571,0.87571 0.60965,2.69007 2.20228,2.69007 0.79254,0 1.44098,-0.46412 1.44098,-1.03138 z m -9,-4.46862 c 0,-2.79174 -2.4225,-3.44732 -3.39301,-0.91821 -1.01421,2.64298 -0.69828,3.41821 1.39301,3.41821 1.46667,0 2,-0.66667 2,-2.5 z m 13,0.5 c 0,-1.1 -0.42344,-2 -0.94098,-2 -1.34235,0 -2.28822,1.82013 -1.55902,3 1.04512,1.69104 2.5,1.10909 2.5,-1 z m -7,-3.5 c 0,-1.62953 -0.55953,-2.5 -1.60699,-2.5 -1.05452,0 -1.39831,0.5438 -1,1.58179 0.33385,0.86998 0.60699,1.99498 0.60699,2.5 0,0.50501 0.45,0.91821 1,0.91821 0.55,0 1,-1.125 1,-2.5 z m 4.39301,-3.08179 c 0.85768,-2.23506 0.79004,-2.41821 -0.89301,-2.41821 -0.83333,0 -1.5,0.88889 -1.5,2 0,2.38425 1.53559,2.65261 2.39301,0.41821 z m -93.39301,39.4137 c 0,-0.64244 -0.5108,-4.10132 -1.13512,-7.68639 l -1.13511,-6.51832 2.88511,-2.30863 c 3.60767,-2.88681 4.75123,-2.8986 6.65384,-0.0686 0.83196,1.2375 1.81843,1.95592 2.19215,1.59648 0.86665,-0.83351 -1.97201,-9.34648 -3.1166,-9.34648 -1.61617,0 -12.32084,5.999 -12.76421,7.15319 -0.93824,2.44242 1.5488,15.85492 3.1702,17.09681 2.04388,1.56547 3.24974,1.59587 3.24974,0.0819 z m 150.91714,-16.88113 c 1.55947,-7.2716 1.40394,-8.95078 -0.82904,-8.95078 -1.62965,0 -1.88801,0.68107 -1.75,4.61324 0.12481,3.55632 -0.26849,4.87368 -1.71667,5.75 -1.43535,0.86856 -1.98586,0.84184 -2.33333,-0.11324 -0.71862,-1.97526 -3.2881,-1.45429 -3.2881,0.66667 0,2.22269 1.26763,2.89472 5.66714,3.00438 3.01193,0.0751 3.2202,-0.16848 4.25,-4.97027 z m -15.79305,0.37437 c 2.08787,-0.92116 4.02495,-2.27116 4.30463,-3 0.74932,-1.95269 -1.11877,-1.61418 -4.37414,0.79262 -1.57545,1.16478 -3.35723,1.81322 -3.95951,1.44098 -0.61456,-0.37981 -1.09507,0.007 -1.09507,0.88223 0,1.95675 0.44952,1.94659 5.12409,-0.11583 z m -14.82572,-3.07515 c -0.31674,-2.0625 -1.04701,-4.3468 -1.62283,-5.07621 -0.74869,-0.94841 -0.67129,-1.55838 0.27169,-2.14118 1.08565,-0.67096 1.07429,-1.15772 -0.0643,-2.75491 -2.15858,-3.02803 -8.1483,-7.93462 -10.63293,-8.71017 -2.0441,-0.63804 -2.25,-0.37586 -2.25,2.86508 0,2.36021 0.46529,3.56739 1.375,3.56739 0.75625,0 1.65335,1.39175 1.99355,3.09277 0.34021,1.70102 1.97146,4.35656 3.625,5.90121 1.65355,1.54464 3.00645,3.09689 3.00645,3.44944 0,1.13113 2.46062,3.47924 3.68713,3.51854 0.81047,0.026 1.00441,-1.15178 0.61124,-3.71196 z m 70.48682,-0.75 c 2.02349,-1.375 4.85136,-2.5 6.28415,-2.5 1.44472,0 5.23876,-1.85703 8.51787,-4.16915 3.25203,-2.29303 6.02335,-4.24109 6.15849,-4.32903 0.13513,-0.0879 0.54344,-2.33219 0.90735,-4.98723 l 0.66167,-4.82735 -3.80076,0.61678 c -4.79537,0.77818 -8.24431,3.98086 -9.56374,8.88085 -0.74704,2.77431 -1.56242,3.81513 -2.98876,3.81513 -2.5215,0 -2.52248,-2.47131 -0.002,-5.67526 1.07756,-1.3699 2.86553,-4.9131 3.97327,-7.87378 1.83282,-4.89866 1.90619,-6.06101 0.81535,-12.91701 -0.65954,-4.14367 -1.57407,-7.53395 -2.03254,-7.53395 -0.45846,0 -0.5677,-0.43019 -0.24274,-0.95598 0.82335,-1.33222 -2.12062,-8.03887 -4.77053,-10.86769 -1.21125,-1.29303 -3.71973,-2.98667 -5.57439,-3.76365 -4.42563,-1.85402 -14.17496,-1.8367 -16.68675,0.0297 -1.90973,1.419 -1.90542,1.47852 0.26648,3.67983 1.9175,1.94347 2.54789,2.08246 4.79705,1.05767 5.78052,-2.63378 9.03445,-0.13337 10.55527,8.11096 1.52768,8.28152 -0.85153,12.7466 -7.30316,13.70591 -3.41485,0.50777 -4.69983,0.24137 -6.49688,-1.34689 -1.89444,-1.67434 -2.63467,-1.80008 -4.79705,-0.81483 -3.67481,1.67436 -4.94562,1.47112 -8.26477,-1.32176 -2.66597,-2.24327 -2.90556,-2.92874 -2.44667,-7 0.27979,-2.48227 0.11268,-4.49908 -0.37135,-4.48179 -1.82191,0.0651 -4.2272,4.78598 -4.86056,9.53994 -0.36114,2.71075 -1.14975,5.93729 -1.75247,7.17009 -0.80413,1.64479 -0.78587,2.92175 0.0686,4.79705 0.64043,1.40558 1.16441,3.82933 1.16441,5.3861 0,4.01379 2.10999,5.40156 6.96541,4.58124 2.219,-0.37491 4.03456,-1.19474 4.03456,-1.82186 0,-0.62712 -1.9125,-2.92388 -4.25,-5.1039 -3.50994,-3.27347 -3.93231,-4.0326 -2.4256,-4.35953 1.00343,-0.21773 2.57843,0.27376 3.5,1.0922 4.73335,4.2036 13.56556,5.7605 19.82947,3.49544 4.20944,-1.52215 5.36677,-0.38385 2.51086,2.46958 -1.77393,1.77238 -3.33149,2.21151 -7.69444,2.16932 -3.85508,-0.0373 -5.47029,0.33181 -5.47029,1.25 0,0.7166 0.6199,1.3029 1.37756,1.3029 0.75765,0 1.93136,0.6673 2.60823,1.48288 0.67688,0.81559 2.81394,1.92004 4.74903,2.45434 3.08915,0.85296 3.94186,0.64843 6.99018,-1.67663 1.90951,-1.45645 3.86641,-3.68591 4.34867,-4.95434 1.21336,-3.19141 2.92633,-2.89087 2.92633,0.51341 0,2.62906 -3.7097,7.18034 -5.85262,7.18034 -0.46057,0 -1.61101,0.85483 -2.55654,1.89962 -1.28855,1.42384 -1.54996,2.80137 -1.04369,5.5 0.80586,4.2956 2.21956,4.51053 7.23804,1.10038 z m -64.78519,0.74055 c 0,-0.94984 -4.04141,-3.53247 -4.62092,-2.95297 -0.23439,0.23439 -0.14242,1.16557 0.20437,2.06929 0.61898,1.61304 4.41655,2.37287 4.41655,0.88368 z m 12.86475,-5.00402 c 0.93564,-1.19052 1.50682,-1.35929 1.8166,-0.53675 0.30416,0.80765 2.06109,0.2096 5.37555,-1.82981 5.81406,-3.57743 6.30726,-4.21561 5.08458,-6.57929 -2.4347,-4.70677 -3.43657,-8.03722 -3.21043,-10.67227 l 0.24729,-2.88159 -3.08917,2.19969 c -1.69904,1.20982 -3.08917,2.54893 -3.08917,2.97578 0,0.42686 -1.89197,2.64935 -4.20439,4.93888 -3.7351,3.69814 -4.57909,4.09247 -7.5615,3.53297 -2.85802,-0.53617 -3.43964,-0.3142 -3.91224,1.49303 -0.30532,1.16756 -1.1295,2.12283 -1.83151,2.12283 -1.82891,0 -2.72923,3.00725 -1.38517,4.62675 0.62684,0.75529 2.40804,1.37325 3.95824,1.37325 1.55019,0 3.12467,0.49534 3.49883,1.10074 0.95188,1.54017 6.62873,0.26551 8.30249,-1.86421 z m -10.18441,-11.21166 c 3.03086,-0.36632 4.72687,-1.03576 4.56966,-1.8037 -0.1375,-0.67164 0.0875,-1.11671 0.5,-0.98903 1.05718,0.32721 5.25,-3.45733 5.25,-4.73877 0,-0.58419 1.35,-1.85962 3,-2.8343 1.65,-0.97468 3,-2.3842 3,-3.13227 0,-0.74807 0.50859,-1.52966 1.1302,-1.73687 0.62161,-0.2072 1.25497,-2.3822 1.40748,-4.83333 0.35052,-5.63382 -3.98864,-12.95364 -9.8856,-16.67623 -5.29382,-3.34184 -15.03869,-4.27386 -20.01181,-1.91396 -1.89339,0.89848 -4.06201,1.63359 -4.81916,1.63359 -0.75714,0 -2.10054,0.84547 -2.98532,1.87882 -0.88478,1.03335 -2.07277,2.04585 -2.63998,2.25 -0.56721,0.20415 -1.56674,3.29618 -2.22119,6.87118 -0.65445,3.575 -1.61447,7.31822 -2.13338,8.31827 -0.63764,1.22889 -0.43162,3.57894 0.63558,7.25 1.34852,4.63873 1.93134,5.43173 3.9921,5.43173 1.32717,0 2.69116,0.45 3.03108,1 0.33992,0.55 1.38477,1 2.32189,1 0.93712,0 2.14806,1.01135 2.69098,2.24745 1.05717,2.40691 6.48301,4.06855 7.66747,2.34813 0.37418,-0.5435 2.84918,-1.25032 5.5,-1.57071 z M 341.1786,507.1168 c -1.7875,-0.88961 -3.25,-2.21083 -3.25,-2.93605 0,-1.73063 0.37111,-1.68006 5,0.68143 5.41497,2.76251 7.09,2.5341 11,-1.5 1.86578,-1.925 3.75406,-3.5 4.19617,-3.5 1.92992,0 0.52166,3.04056 -2.73097,5.89641 -4.06474,3.56889 -8.85384,4.02647 -14.2152,1.35821 z m -5.73838,-11.50462 c -1.37499,-1.60059 -1.93392,-3.75709 -1.93653,-7.47161 -0.003,-4.40256 0.45145,-5.69665 2.89772,-8.25 3.52732,-3.68173 5.13853,-3.79221 7.70585,-0.52839 2.5291,3.21522 3.13837,3.14774 4.51528,-0.50011 2.25624,-5.97746 10.88242,-5.36388 12.69818,0.90323 1.14555,3.95387 -0.40501,13.14092 -2.39212,14.17328 -4.40809,2.29014 -9.08135,3.00011 -10.14117,1.54067 -0.35265,-0.48561 -1.69027,-0.14811 -2.97251,0.75 -3.36701,2.35835 -8.05837,2.07931 -10.3747,-0.61707 z m 7.55412,-1.78518 c 3.2944,-1.76311 2.2887,-8.75323 -1.85563,-12.89757 -1.2987,-1.2987 -1.7452,-1.13394 -3.75391,1.38522 -1.76666,2.21561 -2.15593,3.6683 -1.72928,6.45338 0.89789,5.86112 3.05785,7.35007 7.33882,5.05897 z m -3.94388,-2.24296 c -1.63202,-1.63202 -1.37986,-3.07964 0.77033,-4.42246 2.24318,-1.40088 3.10781,-0.77205 3.10781,2.26028 0,2.56499 -2.23131,3.80901 -3.87814,2.16218 z m 18.67814,0.0781 c 1.6316,-1.6316 1.51102,-7.11987 -0.24897,-11.33212 -1.69977,-4.06811 -2.48434,-4.24944 -5.26961,-1.21788 -1.47118,1.60126 -2.08844,3.66273 -2.14082,7.14968 -0.0405,2.69483 0.16287,5.28233 0.45191,5.75 0.78522,1.27053 5.83215,1.02566 7.20749,-0.34968 z m -4.64823,-2.11713 c -0.91824,-1.10641 -0.83522,-1.70069 0.37828,-2.70781 2.33509,-1.93795 4.48743,0.43603 2.34119,2.58227 -1.3262,1.3262 -1.70837,1.34384 -2.71947,0.12554 z m -84.15177,11.81713 c 0,-2.7037 -0.40952,-3.5 -1.8,-3.5 -2.4645,0 -4.2,1.94211 -4.2,4.7 0,1.88889 0.53623,2.3 3,2.3 2.7619,0 3,-0.27778 3,-3.5 z M 409.91077,490.6511 c 1.29512,-2.12965 1.59218,-3.43395 0.88206,-3.87283 -0.7577,-0.46828 -0.7474,-1.26587 0.0352,-2.72823 0.72874,-1.36167 0.76396,-2.27785 0.10324,-2.68619 -0.55145,-0.34084 -1.00267,-1.49315 -1.00267,-2.56069 0,-1.27431 -0.68694,-1.94098 -2,-1.94098 -1.1,0 -2,0.45 -2,1 0,0.55 -0.51289,1 -1.13976,1 -1.68091,0 -3.79198,3.17066 -3.82844,5.75 -0.0331,2.33894 2.49017,3.18408 3.19484,1.07009 0.21631,-0.64895 1.09819,-0.90942 1.95972,-0.57882 1.07901,0.41406 1.40854,1.42704 1.05902,3.25544 -0.42316,2.21361 -0.90076,2.55562 -2.87639,2.05976 -2.56816,-0.64456 -3.0782,0.33432 -1.16899,2.24353 2.09516,2.09516 4.76678,1.30296 6.78217,-2.01108 z m -14.53887,-0.0114 c 1.03719,-1.48081 1.5567,-4.48431 1.5567,-9 0,-6.22699 -0.17126,-6.7775 -2.10841,-6.7775 -1.74962,0 -2.00163,0.42542 -1.48095,2.5 0.50543,2.01378 0.25559,2.5 -1.2846,2.5 -1.75692,0 -3.12604,1.79605 -3.12604,4.10084 0,0.5155 1.125,0.65491 2.5,0.3098 2.05069,-0.51468 2.5,-0.26322 2.5,1.39916 0,3.08242 -1.05872,5.1902 -2.60699,5.1902 -0.76615,0 -1.39301,0.45 -1.39301,1 0,1.87732 3.8829,1.00527 5.4433,-1.22251 z m -117.63125,-7.38042 c 3.47163,-0.76839 8.64663,-1.40011 11.5,-1.40382 4.44077,-0.006 6.19175,-0.65387 12.1577,-4.5 3.83337,-2.47129 7.36239,-4.49326 7.84227,-4.49326 0.47989,0 1.97762,-0.86927 3.32829,-1.93171 2.45393,-1.93026 2.44583,-1.93138 -10.84227,-1.50352 -17.59861,0.56665 -18.94003,0.85005 -28.45197,6.01106 -4.48465,2.43329 -8.81147,4.42417 -9.61514,4.42417 -1.75143,0 -6.73093,3.75783 -6.73093,5.07956 0,1.18534 12.37517,0.18491 20.81205,-1.68248 z m 168.21617,68.05388 c -1.90948,-1.34803 -4.49698,-2.45096 -5.75,-2.45096 -2.40505,0 -2.76321,-0.68763 -1.44221,-2.7689 0.64412,-1.01482 1.65064,-0.97068 5.02652,0.2204 4.76622,1.68162 7.13747,3.66735 7.13747,5.97707 0,2.09749 -0.8537,1.92962 -4.97178,-0.97761 z m -13.44723,-16.31992 c -0.94696,-1.53221 0.0405,-1.78528 13.41901,-3.43893 9.68787,-1.19748 11.72961,-1.20755 12.95714,-0.0639 0.92639,0.86306 1.10851,1.70319 0.5,2.3065 -1.50606,1.49319 -26.01834,2.58433 -26.87615,1.19636 z m 4.41901,-33.13104 c 0,-0.61546 5.00635,-1 13.01905,-1 12.97328,0 13.01741,-0.008 12.55091,-2.25 -1.054,-5.06576 -2.51551,-23.16963 -3.01092,-37.29656 -0.29022,-8.27562 -0.81597,-16.48811 -1.16835,-18.25 -0.76426,-3.82127 1.08255,-4.43836 2.02655,-0.67716 0.34873,1.38946 1.03966,12.07696 1.53541,23.75 0.49574,11.67305 1.1239,21.89872 1.39591,22.72372 0.272,0.825 0.7772,4.3125 1.12265,7.75 l 0.6281,6.25 -14.04965,0 c -8.69977,0 -14.04966,-0.38078 -14.04966,-1 z m -107,-32.86012 c 0,-0.47307 1.57314,-2.52814 3.49587,-4.56682 2.67202,-2.83317 4.14289,-3.63204 6.24145,-3.38988 3.96681,0.45774 4.41593,3.81682 0.51032,3.81682 -1.79931,0 -3.78993,0.94834 -5.24764,2.5 -2.30462,2.45315 -5,3.33717 -5,1.63988 z m 52,-0.86826 c 0,-1.98181 3.70078,-4.19725 8.02612,-4.80478 3.30486,-0.46419 4.08193,-0.34998 2.97388,0.43707 -1.01773,0.72291 -1.09811,1.07039 -0.25,1.08078 2.85403,0.035 0.96586,1.79589 -2.5,2.33152 -2.0625,0.31876 -4.7625,0.88049 -6,1.2483 -1.2375,0.36782 -2.25,0.23601 -2.25,-0.29289 z m 31,-4.72457 c 0,-2.04784 2.82891,-5.67851 5.57815,-7.15907 3.97122,-2.13864 6.02344,-0.89287 2.42381,1.47133 -1.37392,0.90238 -3.45052,2.65319 -4.61467,3.89069 -1.97627,2.10079 -3.38729,2.84938 -3.38729,1.79705 z m -30.75,-20.27926 c -2.3375,-0.21053 -4.25,-0.82526 -4.25,-1.36607 0,-0.62399 4.11069,-0.74964 11.25,-0.34388 7.54963,0.42908 16.84167,0.0959 28.25,-1.01288 19.7576,-1.92029 39.5,-1.34133 39.5,1.15836 0,0.88319 -0.67027,1.24388 -1.75,0.94172 -5.33066,-1.49179 -22.21016,-1.5842 -36.25,-0.19845 -14.53813,1.43493 -26.87521,1.71061 -36.75,0.8212 z"
         id="path3054"
         inkscape:connector-curvature="0" />
      <path
         style="fill:#000000"
         d="m 206.326,582.09687 c -1.72297,-1.14805 -2.72309,-10.95967 -1.1698,-11.47627 2.12869,-0.70796 1.65087,-16.65159 -1.86863,-62.35184 -0.34281,-4.45138 -0.30436,-11.4969 0.0855,-15.65671 l 0.70874,-7.5633 6.17342,-2.27096 c 3.39538,-1.24902 7.16722,-3.02856 8.38188,-3.95453 1.21465,-0.92596 5.48965,-2.7237 9.5,-3.99498 4.01034,-1.27129 8.36473,-3.13373 9.6764,-4.13876 1.31167,-1.00504 3.14535,-1.82734 4.07485,-1.82734 2.60664,0 14.99027,-4.45292 20.29777,-7.2987 2.61662,-1.40298 7.34162,-3.45533 10.5,-4.56078 3.15839,-1.10544 8.21752,-3.36158 11.24252,-5.01363 3.025,-1.65205 9.2125,-4.17602 13.75,-5.60882 4.5375,-1.43279 8.25,-2.97434 8.25,-3.42565 0,-0.45132 2.0921,-1.10733 4.64911,-1.4578 2.55701,-0.35048 5.14451,-0.97415 5.75,-1.38593 1.61408,-1.0977 59.60089,-0.29994 59.60089,0.81996 0,0.55214 -10.99352,0.93135 -27,0.93135 l -27,0 0,5.16809 c 0,6.99261 -1.96551,17.83191 -3.2335,17.83191 -0.63619,0 -0.78215,-1.42969 -0.38284,-3.75 0.97189,-5.64747 1.9807,-19.25 1.42765,-19.25 -2.3739,0 -31.24608,10.2469 -34.32489,12.1821 -2.19253,1.37812 -6.91142,3.48126 -10.48642,4.67365 -3.575,1.19239 -8.525,3.33507 -11,4.76151 -4.79461,2.76333 -17.85676,7.38274 -20.87591,7.38274 -0.99776,0 -2.58657,0.85356 -3.53069,1.89679 -0.94411,1.04324 -3.80471,2.42259 -6.35687,3.06524 -2.55217,0.64264 -8.71195,3.11584 -13.68842,5.496 -4.97646,2.38016 -10.02397,4.6195 -11.21668,4.97631 -1.88825,0.56489 -2.26109,1.63602 -2.88426,8.2861 -0.39362,4.20054 -0.21278,13.51935 0.40186,20.70845 2.89371,33.846 3.35829,49.71005 1.74238,59.49761 l -0.8959,5.4265 3.05662,-2.1765 c 1.68113,-1.19707 3.52168,-2.1765 4.0901,-2.1765 0.56843,0 2.48774,-2.025 4.26515,-4.5 1.77741,-2.475 3.60538,-4.5 4.06214,-4.5 0.45676,0 2.66798,-1.8375 4.91381,-4.08333 2.24584,-2.24584 4.31192,-3.85475 4.59131,-3.57536 1.2335,1.2335 -1.15013,4.94498 -4.67314,7.27639 -2.11161,1.3974 -5.05102,4.28925 -6.53202,6.42635 -1.51634,2.18807 -4.60993,4.81371 -7.08111,6.00999 -2.4136,1.1684 -4.38837,2.53423 -4.38837,3.03517 0,1.09166 -1.09106,1.15265 -2.6026,0.14548 z m 167.63156,-10.19563 c -0.80907,-0.51167 -1.19967,-1.20168 -0.868,-1.53335 0.84825,-0.84826 5.83904,0.52162 5.83904,1.6027 0,1.16259 -3.09125,1.11946 -4.97104,-0.0693 z m -13.77896,-5.76246 c -2.08886,-0.25922 -3.25,-0.95481 -3.25,-1.94695 0,-0.89735 0.57449,-1.32318 1.37215,-1.01708 0.75468,0.2896 3.45468,0.83883 6,1.22053 2.54532,0.38169 4.62785,1.09289 4.62785,1.58044 0,0.88271 -2.56576,0.93052 -8.75,0.16306 z m -56.25,-11.20851 c 0,-2.1233 14.23992,-9.16151 15.66089,-7.74053 1.04328,1.04328 -0.72708,2.53896 -4.42482,3.73829 -2.05484,0.66647 -4.93054,2.0493 -6.39044,3.07296 -2.8861,2.02368 -4.84563,2.39947 -4.84563,0.92928 z m 60.62718,-7.31809 c -2.4546,-3.89226 -2.96034,-6.75 -1.19457,-6.75 0.86207,0 1.56739,0.59656 1.56739,1.32569 0,0.72912 1.11113,2.36954 2.46918,3.64536 1.35805,1.27582 2.23149,2.70426 1.94098,3.17431 -0.97139,1.57175 -3.3493,0.87804 -4.78298,-1.39536 z m -13.4466,-0.44916 c 0.39786,-2.06593 2.67771,-2.7103 4.79046,-1.35396 1.78134,1.14358 1.38451,1.56625 -2.30194,2.4518 -2.3645,0.568 -2.7745,0.38712 -2.48852,-1.09784 z m 4.06942,-14.21568 c -1.50771,-2.48233 -1.6058,-4.08516 -0.25,-4.08516 0.55,0 1,0.9 1,2 0,2.39194 0.84332,2.48402 4.63569,0.50616 2.86745,-1.49547 6.36431,-2.00906 6.36431,-0.93473 0,1.52649 -3.19418,3.43433 -6.65091,3.9725 -3.19132,0.49684 -4.0627,0.24755 -5.09909,-1.45877 z m -22.95209,-3.26356 c -0.82642,-3.09615 -0.81863,-5.42724 0.03,-9 1.32748,-5.58838 2.17258,-6.06889 3.04059,-1.72883 0.34021,1.70102 1.97146,4.35656 3.625,5.90121 1.6536,1.54464 3.0065,3.3029 3.0065,3.90723 0,0.60433 0.45,1.09879 1,1.09879 0.55,0 1,0.6375 1,1.41667 0,0.77916 0.5625,1.64364 1.25,1.92105 0.77979,0.31465 0.62332,0.53408 -0.41597,0.58333 -0.91628,0.0434 -3.15466,-1.83355 -4.97416,-4.17105 -1.81951,-2.3375 -3.58328,-4.475 -3.91949,-4.75 -0.33622,-0.275 -1.12166,-1.4 -1.74543,-2.5 -1.06147,-1.87186 -1.13608,-1.82759 -1.16454,0.69098 -0.0167,1.48004 0.41959,2.9691 0.96959,3.30902 1.17868,0.72846 1.36521,7.5 0.20659,7.5 -0.43637,0 -1.29528,-1.88028 -1.90868,-4.1784 z m 14.24046,0.41779 c -0.2961,-0.77163 -0.50791,-2.37866 -0.47069,-3.57118 l 0.0677,-2.16821 1.08513,2.25 c 0.66848,1.38606 1.98639,2.25 3.43232,2.25 3.36961,0 2.89867,1.69206 -0.61444,2.20768 -1.93879,0.28455 -3.14757,-0.0499 -3.5,-0.96829 z m 14.46163,-4.17297 c 0,-0.58653 0.68912,-1.06642 1.53138,-1.06642 0.84227,0 1.79041,-0.675 2.10699,-1.5 0.89437,-2.33068 2.53842,-1.76537 2.18118,0.75 -0.2288,1.61101 -1.10054,2.33986 -3.06955,2.56642 -1.5125,0.17403 -2.75,-0.16347 -2.75,-0.75 z m 47.24322,-6.31642 c 0.22544,-0.6875 2.28794,-2.51724 4.58334,-4.0661 2.48845,-1.67912 4.17344,-3.59689 4.17344,-4.75 0,-1.06364 0.45,-1.9339 1,-1.9339 0.55,0 1,1.31812 1,2.92915 0,2.35978 -0.88447,3.52608 -4.55013,6 -4.83549,3.26343 -6.87598,3.86206 -6.20665,1.82085 z m 12.75678,-0.55 c 0,-1.03498 2.16502,-3.2 3.2,-3.2 1.46453,0 0.82479,2.77651 -0.78179,3.39301 -2.07027,0.79444 -2.41821,0.76667 -2.41821,-0.19301 z m -72,-3.59301 c 0,-1.31616 0.7118,-2.66616 1.58179,-3 2.53749,-0.97373 8.41821,-0.69918 8.41821,0.39301 0,0.55 -1.39213,1 -3.09362,1 -2.25262,0 -3.2358,0.5437 -3.61663,2 -0.73864,2.82455 -3.28975,2.51978 -3.28975,-0.39301 z m -9.95127,-3.05512 c -1.26494,-1.34647 -3.59338,-2.73222 -5.17431,-3.07945 -1.58093,-0.34723 -2.87442,-1.04558 -2.87442,-1.55187 0,-1.24477 4.72376,-1.17653 5.5,0.0795 0.33992,0.55 1.43899,1 2.44239,1 1.00339,0 2.10212,0.78749 2.44162,1.75 0.3395,0.9625 0.87949,2.31249 1.19997,2.99999 0.97823,2.09853 -1.09983,1.39426 -3.53525,-1.19812 z m 2.20127,-5.29725 c -1.7875,-0.88961 -3.25,-2.21083 -3.25,-2.93605 0,-1.73063 0.37111,-1.68006 5,0.68143 5.41497,2.76251 7.09,2.5341 11,-1.5 1.86578,-1.925 3.75406,-3.5 4.19617,-3.5 1.92992,0 0.52166,3.04056 -2.73097,5.89641 -4.06474,3.56889 -8.85384,4.02647 -14.2152,1.35821 z m 86.14375,-1.47337 c 0.77217,-3.86083 2.21269,-5.57504 3.55571,-4.23125 0.59932,0.59967 0.36887,2.14851 -0.62491,4.2 -2.0435,4.21848 -3.77193,4.23691 -2.9308,0.0312 z m 4.60625,0.80208 c 0,-0.87083 0.7125,-1.58333 1.58333,-1.58333 0.87084,0 1.40521,0.53438 1.1875,1.1875 -0.61807,1.85422 -2.77083,2.16176 -2.77083,0.39583 z m -62.58398,-4.83333 c 0.32048,-0.6875 0.84576,-1.98125 1.16728,-2.875 0.68377,-1.90071 5.4167,-2.21964 5.4167,-0.36501 0,1.35909 -4.21742,4.49001 -6.04815,4.49001 -0.61518,0 -0.85631,-0.5625 -0.53583,-1.25 z m 67.58398,0.25 c 0,-0.61546 5.00635,-1 13.01905,-1 12.97328,0 13.01741,-0.008 12.55091,-2.25 -1.054,-5.06576 -2.51551,-23.16963 -3.01092,-37.29656 -0.29022,-8.27562 -0.81597,-16.48811 -1.16835,-18.25 -0.76426,-3.82127 1.08255,-4.43836 2.02655,-0.67716 0.34873,1.38946 1.03966,12.07696 1.53541,23.75 0.49574,11.67305 1.1239,21.89872 1.39591,22.72372 0.272,0.825 0.7772,4.3125 1.12265,7.75 l 0.6281,6.25 -14.04965,0 c -8.69977,0 -14.04966,-0.38078 -14.04966,-1 z m -109.68017,-9.25 c 0.29515,-1.2375 0.83387,-4.31305 1.19714,-6.83456 0.70287,-4.87867 1.97786,-7.75394 2.98968,-6.74212 0.51104,0.51103 -0.86564,10.05845 -2.10187,14.57668 -0.62904,2.29906 -2.64158,1.33379 -2.08495,-1 z m 47.68017,-1.25 c 0,-0.825 0.45,-1.5 1,-1.5 0.55,0 1,0.675 1,1.5 0,0.825 -0.45,1.5 -1,1.5 -0.55,0 -1,-0.675 -1,-1.5 z m -3.09606,-7.98098 c -1.23772,-2.63312 -3.5079,-5.3472 -5.50512,-6.58155 -3.45648,-2.13622 -4.42935,-3.93747 -2.12666,-3.93747 3.56893,0 11.72784,9.82457 11.72784,14.12212 0,2.34796 -2.21432,0.40013 -4.09606,-3.6031 z m -102.88953,-8.26902 c 0.0132,-0.68915 9.3431,-6.25 10.48611,-6.25 0.27471,0 0.49948,0.59214 0.49948,1.31586 0,0.72372 -1.74877,2.29872 -3.88616,3.5 -3.89256,2.18774 -7.12646,2.84101 -7.09943,1.43414 z m 23.23559,-5.91228 c -0.6875,-0.27741 -1.25,-0.94818 -1.25,-1.4906 0,-1.40712 4.26069,-0.5981 4.75501,0.90288 0.41398,1.25706 -1.1827,1.52479 -3.50501,0.58772 z m 10.75,-1.33772 c 0,-0.55 1.4625,-1.00495 3.25,-1.01101 1.7875,-0.006 4.9375,-0.28993 7,-0.63084 3.05376,-0.50475 3.75,-0.31705 3.75,1.01101 0,1.35247 -1.19484,1.63084 -7,1.63084 -4,0 -7,-0.42857 -7,-1 z m 83,-2.19371 c 0,-1.81838 0.43738,-1.997 3.6239,-1.4799 6.02088,0.97706 6.06655,2.05251 0.1261,2.9692 -3.31097,0.51092 -3.75,0.33656 -3.75,-1.4893 z m 27,-2.25924 c 0,-2.04784 2.82891,-5.67851 5.57815,-7.15907 3.97122,-2.13864 6.02344,-0.89287 2.42381,1.47133 -1.37392,0.90238 -3.45052,2.65319 -4.61467,3.89069 -1.97627,2.10079 -3.38729,2.84938 -3.38729,1.79705 z m -30.75,-20.27926 c -2.3375,-0.21053 -4.25,-0.82526 -4.25,-1.36607 0,-0.62399 4.11069,-0.74964 11.25,-0.34388 7.54963,0.42908 16.84167,0.0959 28.25,-1.01288 19.7576,-1.92029 39.5,-1.34133 39.5,1.15836 0,0.88319 -0.67027,1.24388 -1.75,0.94172 -5.33066,-1.49179 -22.21016,-1.5842 -36.25,-0.19845 -14.53813,1.43493 -26.87521,1.71061 -36.75,0.8212 z"
         id="path3052"
         inkscape:connector-curvature="0" />
    </g>
  </g>
</svg>
